<svg width="292" height="92" viewBox="0 0 292 92" fill="none" xmlns="http://www.w3.org/2000/svg">
<path d="M292.001 63.0401C290.459 68.4324 286.358 71.1286 279.699 71.1286H254.605C249.75 71.1286 247.322 69.3761 247.322 65.8711C247.322 64.9948 247.503 64.0511 247.864 63.0401L254.113 44.841H246.043L249.143 36.7525C254.883 35.2359 259.148 33.298 261.936 30.9389C265.085 28.2764 268.448 23.457 272.023 16.4807H281.618L274.68 36.7525H287.375C285.341 42.1448 281.208 44.841 274.976 44.841H271.728L265.577 63.0401H292.001Z" fill="white"/>
<path d="M270.744 36.7522C269.694 42.1445 265.463 44.8407 258.049 44.8407H225.328C228.346 47.7053 229.723 52.7438 229.461 59.956C229.133 68.4826 224.705 76.0824 216.176 82.7555C208.5 88.7881 201.135 91.7033 194.083 91.5011C192.738 91.4674 191.54 90.9282 190.491 89.8834C189.441 88.8387 188.916 87.5917 188.916 86.1425C188.916 85.5696 189.031 84.9798 189.26 84.3731L201.709 48.2277C200.036 47.7559 198.626 46.8459 197.478 45.4978C196.166 44.015 195.509 42.313 195.509 40.392C195.509 39.2124 195.772 37.9991 196.297 36.7522H205.547L214.749 10.1613H232.462L221.588 36.7522H270.744ZM214.945 67.7917C215.798 65.1967 216.225 62.9218 216.225 60.9671C216.225 58.2035 215.356 56.1308 213.617 54.749C210.927 61.2198 206.728 70.926 201.02 83.8676C203.678 82.4521 206.466 80.0256 209.385 76.588C212.239 73.2852 214.093 70.3531 214.945 67.7917Z" fill="white"/>
<path d="M192.952 16.0257C192.952 19.3959 191.673 22.2605 189.114 24.6197C186.588 26.9788 183.538 28.1584 179.962 28.1584C176.321 28.1584 173.221 26.9788 170.662 24.6197C168.136 22.2605 166.873 19.3959 166.873 16.0257C166.873 12.6892 168.136 9.84134 170.662 7.4822C173.221 5.12305 176.321 3.94348 179.962 3.94348C183.538 3.94348 186.588 5.12305 189.114 7.4822C191.673 9.84134 192.952 12.6892 192.952 16.0257ZM196.495 63.04C195.642 66.0058 193.871 68.1964 191.181 69.6119C189.245 70.623 187.146 71.1285 184.882 71.1285H165.446C160.756 71.1285 158.41 69.1064 158.41 65.0621C158.41 63.9163 158.64 62.6861 159.099 61.3718L167.661 36.7524H185.522L176.419 63.04H196.495Z" fill="white"/>
<path d="M163.64 36.7529L154.734 63.0405C152.307 68.4328 148.223 71.129 142.482 71.129H117.584C113.222 71.129 110.794 69.6461 110.302 66.6803C107.907 69.6461 104.447 71.129 99.9198 71.129H91.1613C86.3064 71.129 83.8789 69.3596 83.8789 65.8209C83.8789 64.9784 84.0593 64.0516 84.4202 63.0405L93.3755 36.7529H111.237L102.036 63.0405H110.597L119.799 36.7529H137.414L128.459 63.0405H136.824L145.976 36.7529H163.64Z" fill="white"/>
<path d="M107.218 12.2338C107.218 15.5703 105.922 18.4182 103.331 20.7773C100.772 23.1364 97.6885 24.316 94.0801 24.316C90.4718 24.316 87.3882 23.1364 84.8296 20.7773C82.2709 18.4182 80.9916 15.5703 80.9916 12.2338C80.9916 11.4587 81.1228 10.4476 81.3852 9.20065C79.9091 9.06585 78.9742 8.99844 78.5805 8.99844C73.5944 8.99844 71.1013 11.1385 71.1013 15.4187C71.1013 17.6093 72.5611 22.513 75.4806 30.1296C78.4329 37.7463 79.9091 43.7115 79.9091 48.0254C79.9091 57.2598 74.9393 64.1855 64.9999 68.8027C57.5863 72.2066 48.9099 73.9086 38.9704 73.9086C29.8839 73.9086 21.8307 72.611 14.8107 70.016C4.93691 66.3762 0 60.7816 0 53.2324C0 42.2455 9.10294 36.7521 27.3088 36.7521H46.056L49.6479 44.8406H35.034C31.36 44.8406 28.1617 45.4977 25.439 46.8121C21.8963 48.5309 20.1249 51.0754 20.1249 54.4456C20.1249 58.254 22.5687 61.2366 27.4564 63.3935C31.2288 65.0449 35.2636 65.8706 39.5609 65.8706C45.0062 65.8706 49.5495 64.6405 53.1907 62.1803C57.4223 59.3493 59.5381 55.2882 59.5381 49.997C59.5381 46.3572 58.1932 41.1333 55.5033 34.3255C52.8135 27.5177 51.4685 22.2265 51.4685 18.4519C51.4685 6.15062 61.654 0 82.0249 0H94.1785C97.5245 0 100.51 1.16272 103.134 3.48816C105.857 5.94841 107.218 8.86364 107.218 12.2338Z" fill="white"/>
</svg>
