<svg width="150" height="150" viewBox="0 0 150 150" fill="none" xmlns="http://www.w3.org/2000/svg">
<path d="M112.5 117.875H107.75C102.75 117.875 98 119.812 94.5 123.312L83.8125 133.875C78.9375 138.688 71 138.688 66.125 133.875L55.4375 123.312C51.9375 119.812 47.125 117.875 42.1875 117.875H37.5C27.125 117.875 18.75 109.563 18.75 99.3125V31.1248C18.75 20.8748 27.125 12.5625 37.5 12.5625H112.5C122.875 12.5625 131.25 20.8748 131.25 31.1248V99.3125C131.25 109.5 122.875 117.875 112.5 117.875Z" stroke="#003E27" stroke-width="12" stroke-miterlimit="10" stroke-linecap="round" stroke-linejoin="round"/>
<path d="M43.75 57.2502C43.75 51.4377 48.5 46.6873 54.3125 46.6873C60.125 46.6873 64.875 51.4377 64.875 57.2502C64.875 69.0002 48.1875 70.2501 44.5 81.4376C43.75 83.7501 45.6875 86.0626 48.125 86.0626H64.875" stroke="#003E27" stroke-width="12" stroke-linecap="round" stroke-linejoin="round"/>
<path d="M100.25 85.9999V50.3127C100.25 48.6877 99.1875 47.2498 97.625 46.8123C96.0625 46.3748 94.375 46.9998 93.5 48.3748C89 55.6248 84.125 63.8749 79.875 71.1249C79.1875 72.3124 79.1875 73.8749 79.875 75.0624C80.5625 76.2499 81.875 76.9995 83.3125 76.9995H106.25" stroke="#003E27" stroke-width="12" stroke-linecap="round" stroke-linejoin="round"/>
</svg>
