<svg width="196" height="100" viewBox="0 0 196 100" fill="none" xmlns="http://www.w3.org/2000/svg">
<path d="M14.668 55.8511V54.0241H21.0686V56.3479C21.0254 59.0071 25.2322 59.3498 25.7769 56.8911C25.9483 56.3066 25.9337 55.6833 25.7352 55.1075C24.4964 51.9921 16.0317 50.5819 14.9564 45.7261C14.7375 44.6594 14.7239 43.5608 14.9164 42.489C15.5766 38.5899 19.0029 37.1797 23.2561 37.1797C26.6423 37.1797 31.3089 37.9681 31.3089 43.1957V44.8976H25.3634V43.404C25.5224 40.7966 21.4109 40.4038 20.9452 42.864C20.8784 43.2778 20.8925 43.7007 20.9868 44.1091C21.6872 46.888 30.732 48.3832 31.724 53.404C31.9719 54.7052 31.9855 56.0402 31.764 57.3462C31.1855 61.327 27.6342 62.8206 23.341 62.8206C18.8346 62.8206 14.668 61.202 14.668 55.8511ZM92.2188 55.7693V53.9424H98.5377V56.2245C98.4512 58.86 102.639 59.2381 103.198 56.8046C103.369 56.2338 103.355 55.6233 103.158 55.061C101.959 51.9921 93.5762 50.5738 92.5041 45.7261C92.2848 44.6735 92.2706 43.5885 92.4624 42.5306C93.1275 38.6733 96.5586 37.263 100.725 37.263C104.071 37.263 108.695 38.0931 108.695 43.2373V44.8976H102.791V43.4457C102.958 40.862 98.8774 40.4419 98.456 42.8656C98.3885 43.2793 98.4021 43.7022 98.496 44.1107C99.1563 46.8896 108.111 48.3431 109.11 53.3206C109.357 54.6079 109.371 55.9292 109.15 57.2212C108.571 61.2052 105.062 62.6571 100.817 62.6571C96.3502 62.6603 92.2188 61.0369 92.2188 55.7693ZM114.849 56.6427C114.791 56.1186 114.778 55.5906 114.808 55.0642V37.8848H120.837V55.6011C120.829 55.9061 120.843 56.2113 120.877 56.5145C121.502 58.8356 124.796 58.8356 125.421 56.5145C125.456 56.2114 125.47 55.9062 125.462 55.6011V37.8848H131.494V55.061C131.494 55.5177 131.453 56.3895 131.453 56.6395C131.041 61.1267 127.53 62.569 123.153 62.569C118.776 62.569 115.262 61.1187 114.849 56.6395V56.6427ZM164.486 56.3927C164.425 55.8667 164.397 55.3373 164.403 54.8078V44.7309C164.403 44.3159 164.443 43.5691 164.484 43.1524C165.021 38.6733 168.614 37.263 172.867 37.263C177.081 37.263 180.795 38.6733 181.21 43.154C181.26 43.6787 181.273 44.2061 181.25 44.7325V45.513H175.222V44.1925C175.223 43.8861 175.195 43.5803 175.14 43.279C174.411 40.9525 171.119 40.9525 170.39 43.279C170.32 43.6486 170.293 44.025 170.308 44.4008V55.3527C170.301 55.6577 170.315 55.9629 170.35 56.2661C170.978 58.6536 174.763 58.6513 175.303 56.2709C175.359 55.9698 175.344 55.6624 175.345 55.3575V51.8671H172.909V48.3816H181.334V54.8078C181.34 55.3347 181.312 55.8614 181.25 56.3847C180.839 60.7405 177.084 62.2757 172.867 62.2757C168.651 62.2757 164.898 60.7453 164.486 56.3895V56.3927ZM80.4513 61.8238L80.291 39.6685L76.1564 61.8238H70.1276L66.0379 39.6685L65.8776 61.8238H59.9273L60.4225 37.9265H70.1276L73.142 56.5979L76.1564 37.9265H85.8599L86.3967 61.8238H80.4513ZM48.7367 61.8238L45.5156 39.6685L42.2111 61.8238H35.7704L40.1486 37.9265H50.7623L55.1405 61.8238H48.7367ZM149.661 61.5754L143.674 41.7021L144.004 61.5738H138.138V37.9265H146.975L152.584 57.178L152.262 37.9265H158.167V61.577L149.661 61.5754Z" fill="white"/>
</svg>
