<svg width="195" height="100" viewBox="0 0 195 100" fill="none" xmlns="http://www.w3.org/2000/svg">
<g clip-path="url(#clip0_596_64563)">
<path fill-rule="evenodd" clip-rule="evenodd" d="M136.563 33.1768H112.301V66.4989H121.149V37.6622H131.182C133.576 37.6622 135.545 39.6197 135.545 42.0246V66.4989H144.393V40.9955C144.381 36.7002 140.858 33.1768 136.563 33.1768Z" fill="white"/>
<path fill-rule="evenodd" clip-rule="evenodd" d="M172.582 33.1768H156.139C151.844 33.1768 148.32 36.7002 148.32 40.9955V58.6801C148.32 62.9754 151.844 66.4989 156.139 66.4989H172.582C176.889 66.4989 180.401 62.9754 180.401 58.6801V40.9955C180.412 36.7002 176.889 33.1768 172.582 33.1768ZM167.202 37.6622C169.595 37.6622 171.564 39.6197 171.564 42.0246V57.6622C171.564 60.056 169.607 62.0246 167.202 62.0246H161.531C159.137 62.0246 157.168 60.0671 157.168 57.6622V42.0246C157.168 39.6309 159.126 37.6622 161.531 37.6622H167.202Z" fill="white"/>
<path fill-rule="evenodd" clip-rule="evenodd" d="M57.6274 33.1768H77.1128V37.6622H63.0077C60.614 37.6622 58.6565 39.6197 58.6565 42.0246V42.8747C58.6565 45.2685 60.614 47.2372 63.0077 47.2372H77.1128V51.7226H58.6565V57.6622C58.6565 60.056 60.614 62.0246 63.0077 62.0246H77.1128V66.5101H57.6274C53.3321 66.5101 49.8086 62.9866 49.8086 58.6913V40.9955C49.8086 36.7002 53.3321 33.1768 57.6274 33.1768Z" fill="white"/>
<path fill-rule="evenodd" clip-rule="evenodd" d="M88.8774 33.1768H108.363V37.6622H94.2577C91.864 37.6622 89.8953 39.6197 89.8953 42.0246V57.6622C89.8953 60.056 91.8528 62.0246 94.2577 62.0246H108.363V66.5101H88.8774C84.5709 66.5101 81.0586 62.9866 81.0586 58.6913V40.9955C81.0586 36.7002 84.5709 33.1768 88.8774 33.1768Z" fill="white"/>
<path fill-rule="evenodd" clip-rule="evenodd" d="M45.8584 33.1768H13.7891V37.6622H25.411V66.4989H34.2589V42.0246C34.2589 39.6309 36.2164 37.6734 38.6101 37.6622H45.8808V33.1768H45.8584Z" fill="white"/>
</g>
<defs>
<clipPath id="clip0_596_64563">
<rect width="166.667" height="33.557" fill="white" transform="translate(14 33.2217)"/>
</clipPath>
</defs>
</svg>
