<svg width="195" height="100" viewBox="0 0 195 100" fill="none" xmlns="http://www.w3.org/2000/svg">
<g clip-path="url(#clip0_596_64574)">
<path d="M14.332 59.8721H34.5411L33.3796 61.4981H14.332V59.8721Z" fill="white"/>
<path d="M181 61.4981H156.262L157.539 59.8721H181.117V61.4981H181Z" fill="white"/>
<path d="M14.332 56.8525H36.864L35.5864 58.4786H14.332V56.8525Z" fill="white"/>
<path d="M14.332 53.833H39.1868L37.9093 55.459H14.332V53.833Z" fill="white"/>
<path d="M180.998 58.4786H158.582L159.86 56.8525H181.114V58.4786H180.998Z" fill="white"/>
<path d="M162.067 53.833H180.998V55.459H160.789L162.067 53.833Z" fill="white"/>
<path d="M36.168 61.4986L46.8532 47.2129C46.8532 47.2129 58.6999 47.2129 60.0936 47.2129C61.6035 47.2129 61.6035 47.7936 60.7905 48.7228C60.0936 49.6519 58.8161 51.3941 58.1192 52.3232C57.7708 52.9039 57.0739 53.717 59.2806 53.717C61.7197 53.717 77.0507 53.717 77.0507 53.717C75.6569 55.8075 70.7789 61.6147 62.1842 61.6147C55.2156 61.4986 36.168 61.4986 36.168 61.4986Z" fill="white"/>
<path d="M97.3736 53.833L91.5664 61.6147H76.3516L82.1588 53.833H97.3736Z" fill="white"/>
<path d="M119.56 53.833L113.753 61.6147H98.4219L104.229 53.833H119.56Z" fill="white"/>
<path d="M124.554 53.833C124.554 53.833 123.393 55.3429 122.928 56.0397C120.954 58.5949 122.696 61.6147 128.968 61.6147C136.169 61.6147 153.59 61.6147 153.59 61.6147L159.398 53.833H124.554Z" fill="white"/>
<path d="M43.7176 38.3857L38.375 45.4705C38.375 45.4705 65.9011 45.4705 67.411 45.4705C68.9209 45.4705 68.9209 46.0512 68.1079 46.9803C67.411 47.9095 66.1334 49.6516 65.4366 50.5808C65.0881 51.0454 64.3913 51.9745 66.598 51.9745C69.037 51.9745 78.4447 51.9745 78.4447 51.9745C78.4447 51.9745 80.4191 49.4194 81.929 47.2126C84.1357 44.309 82.1613 38.2695 74.3796 38.2695C67.411 38.3857 43.7176 38.3857 43.7176 38.3857Z" fill="white"/>
<path d="M120.836 51.9746H83.4375L93.6582 38.3857H108.989L103.182 46.1674H110.034L115.842 38.3857H131.173L120.836 51.9746Z" fill="white"/>
<path d="M152.313 38.3857L142.092 51.9746H125.832L136.053 38.3857H152.313Z" fill="white"/>
</g>
<defs>
<clipPath id="clip0_596_64574">
<rect width="166.667" height="23.2288" fill="white" transform="translate(14.332 38.3857)"/>
</clipPath>
</defs>
</svg>
