<svg width="195" height="100" viewBox="0 0 195 100" fill="none" xmlns="http://www.w3.org/2000/svg">
<path d="M123.257 42.207H109.375C109.375 42.207 106.858 42.207 105.942 44.0377V42.207H99.7383V68.0397H105.942V51.4112C105.942 49.3771 107.595 47.7244 109.629 47.7244H121.376C123.41 47.7244 125.062 49.3771 125.062 51.4112V68.0397H131.139V49.5551C131.165 49.5551 130.707 42.207 123.257 42.207Z" fill="white"/>
<path d="M20.5359 34.7568H14.332V68.0393H20.5359V34.7568Z" fill="white"/>
<path d="M93.4325 42.1816H87.2031V68.0652H93.4325V42.1816Z" fill="white"/>
<path d="M143.649 42.207H137.445V68.0397H143.649V42.207Z" fill="white"/>
<path d="M50.3354 42.207H36.4528C36.4528 42.207 33.9357 42.207 33.0203 44.0377V42.207H26.8164V68.0397H33.0203V51.4112C33.0203 49.3771 34.673 47.7244 36.7071 47.7244H48.4793C50.5133 47.7244 52.166 49.3771 52.166 51.4112V68.0397H58.2428V49.5551C58.2682 49.5551 57.8106 42.207 50.3354 42.207Z" fill="white"/>
<path d="M93.4325 31.9346H87.2031V37.2994H93.4325V31.9346Z" fill="white"/>
<path d="M143.649 31.9346H137.445V37.2994H143.649V31.9346Z" fill="white"/>
<path d="M180.997 42.207H173.242L164.318 51.2332L155.394 42.207H147.664L160.428 55.1488L147.664 68.0397H155.495L164.318 59.0898L173.166 68.0397H180.997L168.208 55.1488L180.997 42.207Z" fill="white"/>
<path d="M73.3974 37.9351C73.7788 37.5283 74.2873 37.2994 74.8976 37.2994H81.8388V31.9346H76.3468C76.2706 31.96 75.4569 31.9091 74.3636 31.96C74.3128 31.96 74.2873 31.96 74.2619 31.96C71.9736 31.96 69.8124 32.7991 68.4394 34.2483C67.2698 35.4688 66.685 37.1723 66.685 38.5199C66.685 41.1642 66.685 42.2066 66.685 42.2066H58.625C58.625 42.2066 60.8371 43.0203 62.3626 47.724H66.685V68.0393H72.8126V47.724H81.8134V42.2066H77.2113H72.8126V39.9437C72.8126 39.7912 72.8126 39.6386 72.8381 39.4861C72.8381 39.4352 72.8126 39.3844 72.8126 39.3589C72.8126 38.9267 72.9652 38.5199 73.194 38.1893C73.2703 38.0876 73.3212 38.0114 73.3974 37.9351Z" fill="white"/>
</svg>
