<svg width="195" height="100" viewBox="0 0 195 100" fill="none" xmlns="http://www.w3.org/2000/svg">
<path d="M43.5217 28.6987H14V71.3027H22.9686V52.8049H37.7294V45.3311H22.9686V36.3593H43.5217V28.6987ZM48.9402 28.6987H81.4514V36.3593H57.9119V45.3311H77.3408V52.8049H57.9119V63.4551H81.4514V71.3027H48.9402V28.6987ZM171.698 28.6987H180.667V71.3027H171.698V28.6987ZM114.336 57.2892L96.9596 28.6987H86.6831V71.3027H95.4649V41.4073L113.589 71.3027H123.308V28.6987H114.336V57.2892ZM146.287 28.6987H129.658V71.3027H146.287C152.571 71.2622 165.61 69.7051 165.532 50.0022C165.613 30.3896 152.571 28.6395 146.287 28.6987Z" fill="white"/>
</svg>
