<svg width="196" height="100" viewBox="0 0 196 100" fill="none" xmlns="http://www.w3.org/2000/svg">
<path d="M179.54 32.6482H179.429C179.318 32.6482 179.179 32.7593 179.179 32.8982C179.068 34.6203 177.818 39.5368 169.096 46.3143C151.736 59.9804 121.126 76.3409 112.987 80.6463C112.626 80.7574 112.376 80.7574 112.126 80.6463C111.876 80.3963 112.126 80.0352 112.126 79.8963L120.737 68.2024C120.737 68.2024 124.292 64.147 122.709 62.4248C121.737 61.4526 116.792 62.3137 116.792 62.3137C116.792 62.3137 76.3218 67.9801 45.1841 61.3415C45.1841 61.3415 45.073 61.3415 45.073 61.4526V61.5637C51.8505 63.5359 76.3218 69.8134 111.515 67.9524C111.765 67.9524 112.015 68.2024 112.015 68.5635C112.015 68.6746 112.015 68.8134 111.904 68.9245C110.07 71.2578 105.126 77.4242 97.1265 85.785C95.1544 88.0071 93.9322 89.2293 95.5155 90.7015C96.9877 91.9237 99.5709 90.7015 99.5709 90.7015L121.709 80.1186C121.709 80.1186 154.069 64.3692 167.957 54.2862C185.929 41.8978 181.151 34.3703 179.54 32.6482ZM71.2664 28.5928C70.1554 28.5928 69.2943 28.2317 68.6832 27.4817C68.0721 26.7317 67.9332 25.7595 68.1832 24.5374C68.7943 22.4541 70.8775 20.732 73.0997 20.732C74.2108 20.732 75.0718 21.093 75.6829 21.843C76.294 22.593 76.4329 23.5652 76.1829 24.6762C75.5718 27.0095 73.4886 28.5928 71.2664 28.5928ZM105.848 58.3694C104.626 58.3694 103.515 58.2583 102.515 58.0083C100.432 57.3972 98.9598 56.0362 98.2098 54.064C96.8488 50.5086 98.2098 45.5643 100.043 42.5089C100.043 42.3978 105.321 32.4259 118.015 30.5649H118.987C121.07 30.5649 122.542 31.176 123.542 32.2871C124.903 34.0092 124.292 36.2314 124.292 36.3425C124.181 36.5925 122.459 44.0922 108.793 46.9254C107.321 47.1754 106.321 47.1754 105.71 47.1754H105.098C104.848 47.7865 104.237 49.6475 104.848 51.2308C105.21 52.0919 105.96 52.8418 107.071 53.314C107.821 53.564 108.793 53.6751 109.654 53.6751C115.07 53.6751 120.487 48.7587 120.487 48.6198C120.487 48.6198 120.848 48.3698 121.709 47.5087H121.82C121.931 47.5087 122.07 47.3976 122.181 47.3976C122.431 47.3976 122.681 47.5087 122.792 47.6476C122.903 47.7587 123.042 48.1476 123.042 48.3976C123.042 48.5087 123.042 48.6476 122.931 48.8975C122.681 49.5086 121.57 51.8419 116.792 55.1751C114.57 56.5361 112.376 57.5083 110.015 58.0083C108.432 58.2583 107.071 58.3694 105.848 58.3694ZM115.681 35.2314H115.07C113.459 35.3425 111.876 35.9814 110.265 37.2035C107.321 39.4257 105.848 42.62 105.848 42.62C105.737 42.7311 105.737 42.9811 105.848 43.2311C105.96 43.4811 106.348 43.5922 106.821 43.5922H107.182C108.543 43.5922 110.626 43.4811 113.57 41.9811C115.181 41.1201 116.265 40.1479 116.904 38.8979C117.404 37.9257 117.515 37.0647 117.515 37.0647C117.515 37.0647 117.626 36.3147 117.154 35.7036C117.042 35.4814 116.431 35.2314 115.681 35.2314ZM127.736 56.6472C126.375 56.5361 125.403 55.4251 125.403 54.1751C125.403 53.814 125.514 53.4251 125.653 53.064C125.903 52.703 127.264 50.2308 141.903 23.4263C142.014 23.3152 142.014 23.1763 142.153 23.0652L142.264 22.9541C143.125 21.7319 144.486 20.9819 145.958 20.8708H146.569C147.93 20.9819 148.902 22.093 148.902 23.343C148.902 23.7041 148.791 24.0929 148.652 24.454C148.402 24.8151 147.041 27.2873 132.403 54.0918C132.292 54.2029 132.292 54.3418 132.153 54.4529L132.042 54.564C131.181 55.7862 129.82 56.5361 128.348 56.6472H127.736ZM80.7383 58.3694C78.405 58.3694 76.1829 57.1472 74.9607 55.0362L74.5996 54.2862C73.9885 52.453 74.3496 50.4808 74.5996 49.6197C74.7107 48.8698 74.8496 48.7587 77.7939 43.3422C78.655 41.7311 79.5161 40.1479 80.9883 37.3146H75.8218C75.7107 37.3146 75.5718 37.3146 75.4607 37.2035C75.3496 37.0924 75.2107 37.0924 75.0996 36.9536C75.0996 36.8424 74.9885 36.8424 74.9885 36.7036C74.8774 36.4536 74.8774 35.9536 74.9885 35.7314L75.7385 34.3703C75.9885 33.8703 76.3496 33.3981 76.8495 32.8982C77.5995 32.1482 78.4606 31.7871 79.4328 31.676H84.0993L87.7936 24.8985C87.9047 24.7874 87.9047 24.6485 88.0436 24.5374L88.1547 24.4263C89.0157 23.2041 90.3768 22.4541 91.849 22.343H92.46C93.8211 22.4541 94.7933 23.5652 94.7933 24.8151C94.7933 25.1762 94.6822 25.5651 94.5433 25.9262C94.4322 26.1762 91.2101 31.8426 91.2101 31.8426H97.8487C98.0987 31.8426 98.3487 31.9537 98.5987 32.0926C98.7098 32.2037 98.7098 32.2037 98.7098 32.3426C98.8209 32.5926 98.9598 33.0926 98.7098 33.3148C98.7098 33.3148 97.5987 35.2869 97.4876 35.3981C96.7377 36.5091 95.6544 37.1202 94.4044 37.2313H88.2658L81.8771 48.9253C81.8771 48.9253 80.5161 51.2586 81.016 52.6196C81.1272 52.9807 81.3771 53.2307 81.8771 53.4807C82.3771 53.5918 82.8493 53.7307 83.4882 53.7307C85.5714 53.7307 88.1547 52.5085 90.8768 50.3975L90.9879 50.2864C91.349 50.0364 91.7379 49.7864 91.9601 49.6753H92.0712C92.1823 49.6753 92.3212 49.5642 92.4323 49.5642C92.9322 49.5642 93.2933 49.9253 93.2933 50.4253C93.2933 50.5364 93.2934 50.6752 93.1822 50.7864L92.6823 51.6474C91.5712 53.6196 89.9879 55.2029 88.0158 56.4528C86.2936 57.5639 84.2104 58.0639 82.0993 58.175H80.7383V58.3694ZM55.6559 56.6472C54.2949 56.5361 53.3227 55.4251 53.3227 54.1751C53.3227 53.814 53.4338 53.4251 53.5727 53.064C53.6838 52.8141 63.9056 34.1203 63.9056 34.1203C64.0167 34.0092 64.0167 33.8703 64.1556 33.7592L64.2667 33.6481C65.1278 32.4259 66.4888 31.676 67.961 31.5649H68.5721C69.9331 31.676 70.9053 32.787 70.9053 34.037C70.9053 34.3981 70.7942 34.787 70.6553 35.1481C70.5442 35.3981 60.3224 54.0918 60.3224 54.0918C60.2113 54.2029 60.2113 54.3418 60.0724 54.4529L59.9613 54.564C59.1002 55.7862 57.7392 56.5361 56.267 56.6472H55.6559ZM147.069 14.5655C147.18 14.5655 147.18 14.5655 147.069 14.5655C147.18 14.4544 147.069 14.4544 147.069 14.4544C134.653 11.2601 123.209 9.89903 111.626 9.17684C70.4053 6.70471 35.7122 15.4544 22.185 26.0373C12.8242 33.1481 14.5464 40.1756 15.2964 42.12L15.4075 42.2311C15.5186 42.2311 15.5186 42.2311 15.5186 42.12C15.8797 39.8979 18.8518 30.926 39.5176 23.4263C48.9895 20.3431 66.961 13.7044 100.404 12.1212C123.82 11.6212 141.403 14.0933 147.069 14.5655Z" fill="white"/>
</svg>
