<svg width="196" height="100" viewBox="0 0 196 100" fill="none" xmlns="http://www.w3.org/2000/svg">
<g clip-path="url(#clip0_596_64626)">
<path d="M98.0008 89.1998C119.65 89.1998 137.201 71.6494 137.201 49.9998C137.201 28.3502 119.65 10.7998 98.0008 10.7998C76.3512 10.7998 58.8008 28.3502 58.8008 49.9998C58.8008 71.6494 76.3512 89.1998 98.0008 89.1998Z" fill="white"/>
<path d="M80.1248 43.1551H76.7648V50.2863C73.8208 47.6463 70.8832 45.0063 67.8672 42.3711V56.8447H71.2272V49.7135C74.0304 52.2015 77.04 54.9935 80.1264 57.6287L80.1248 43.1551ZM87.576 56.8399H84.216V43.1551H87.576V56.8399ZM96.2848 57.6239C93.904 53.1439 91.52 47.9967 89.1392 43.1503H92.9216L96.2816 50.5647L99.5168 43.1503H103.222C100.915 48.0095 98.6016 53.1375 96.2896 57.6287L96.2848 57.6239ZM113.848 46.1455H108.162V48.5071H113.854V51.4927H108.162V53.8399H113.854V56.8255H104.798V43.1455H113.854L113.848 46.1455ZM122.386 42.3711C120.074 46.9343 117.762 51.8543 115.45 56.8447H118.96L119.659 55.2047H125.133L125.835 56.8447H129.472C127.075 51.8543 124.694 46.8639 122.386 42.3711ZM120.643 52.6367L122.386 48.6559L124.069 52.6367H120.643Z" fill="#003E27"/>
</g>
<defs>
<clipPath id="clip0_596_64626">
<rect width="80" height="80" fill="white" transform="translate(58 10)"/>
</clipPath>
</defs>
</svg>
