<svg width="195" height="100" viewBox="0 0 195 100" fill="none" xmlns="http://www.w3.org/2000/svg">
<path fill-rule="evenodd" clip-rule="evenodd" d="M97.9826 10C88.3944 10 80.6211 17.7733 80.6211 27.3615C80.6211 36.9503 88.3944 44.7229 97.9826 44.7229C107.571 44.7229 115.344 36.9503 115.344 27.3615C115.344 17.7733 107.571 10 97.9826 10Z" fill="white"/>
<path fill-rule="evenodd" clip-rule="evenodd" d="M97.9826 10C88.3944 10 80.6211 17.7733 80.6211 27.3615C80.6211 36.9503 88.3944 44.7229 97.9826 44.7229C107.571 44.7229 115.344 36.9503 115.344 27.3615C115.344 17.7733 107.571 10 97.9826 10Z" fill="#003E27" stroke="#003E27" stroke-width="0.9562" stroke-miterlimit="2.613"/>
<path fill-rule="evenodd" clip-rule="evenodd" d="M98.172 13.0068C107.996 13.0068 112.451 21.9786 112.451 27.5709C112.451 33.1632 107.597 41.9335 98.0131 41.9335C88.4281 41.9335 83.7344 33.3239 83.7344 27.0079C83.735 21.3342 88.3486 13.0068 98.172 13.0068Z" fill="white" stroke="white" stroke-width="0.198595" stroke-miterlimit="2.613"/>
<path fill-rule="evenodd" clip-rule="evenodd" d="M110.746 42.3722C110.971 42.5978 111.082 42.8704 111.082 43.1901C111.082 43.5116 110.97 43.7862 110.746 44.013C110.64 44.1228 110.513 44.2096 110.373 44.2681C110.232 44.3266 110.081 44.3555 109.929 44.353C109.607 44.353 109.335 44.2393 109.111 44.013C109.003 43.9055 108.917 43.7771 108.86 43.6357C108.802 43.4943 108.774 43.3427 108.776 43.1901C108.776 42.8704 108.889 42.5978 109.113 42.3722C109.338 42.146 109.61 42.0322 109.929 42.0322C110.248 42.0322 110.52 42.1453 110.746 42.3722ZM110.88 42.2426C110.756 42.1162 110.608 42.0164 110.445 41.9492C110.281 41.882 110.106 41.8488 109.929 41.8517C109.559 41.8517 109.244 41.982 108.983 42.2426C108.856 42.3652 108.756 42.5126 108.688 42.6755C108.621 42.8385 108.587 43.0136 108.59 43.1901C108.59 43.5631 108.72 43.8808 108.979 44.1427C109.24 44.4058 109.557 44.5373 109.929 44.5373C110.3 44.5373 110.618 44.4058 110.88 44.1427C111.141 43.8796 111.273 43.5618 111.273 43.1901C111.276 43.0136 111.242 42.8385 111.175 42.6755C111.107 42.5126 111.007 42.3652 110.88 42.2426ZM110.127 43.1272C110.048 43.1532 109.964 43.1646 109.881 43.1608H109.647V42.6264H109.868C110.012 42.6264 110.116 42.6448 110.181 42.681C110.247 42.7179 110.279 42.7897 110.279 42.8971C110.279 43.0109 110.228 43.0878 110.127 43.1272ZM109.387 43.9228H109.647V43.3413H109.851C109.989 43.3413 110.085 43.3572 110.14 43.389C110.233 43.4436 110.279 43.5567 110.279 43.7271V43.8446L110.285 43.8917C110.286 43.898 110.287 43.9037 110.289 43.9082L110.292 43.9222H110.535L110.526 43.9044C110.52 43.8917 110.516 43.8662 110.513 43.8275C110.51 43.7887 110.509 43.7518 110.509 43.7175V43.6095C110.506 43.5271 110.478 43.4475 110.429 43.3814C110.375 43.3032 110.291 43.2555 110.175 43.2365C110.25 43.2274 110.323 43.2032 110.389 43.1653C110.485 43.103 110.533 43.0064 110.533 42.8749C110.533 42.6893 110.458 42.5654 110.305 42.5018C110.22 42.4663 110.085 42.4485 109.903 42.4485H109.387V43.9228Z" fill="white" stroke="white" stroke-width="0.198595" stroke-miterlimit="2.613"/>
<path fill-rule="evenodd" clip-rule="evenodd" d="M47.741 29.2824C47.5879 27.9682 47.4716 27.9441 46.8793 27.925L46.6779 27.9231C46.5813 27.8462 46.5673 27.6212 46.6613 27.5609C47.1971 27.5242 47.732 27.4744 48.2653 27.4115L50.6338 27.1357C51.4281 27.043 52.1456 26.947 52.3038 26.9031C52.3782 27.1084 52.5669 28.0801 52.7029 28.6043C52.6648 28.7092 52.4201 28.7632 52.3121 28.6997C52.0299 28.0038 51.8075 27.7153 51.3989 27.6619C51.1034 27.6085 50.7285 27.627 50.3936 27.6664L49.5623 27.763C49.0292 27.8252 49.0323 27.85 49.1143 28.5567L49.3583 30.6525C49.3958 30.9753 49.4098 30.9861 49.6952 30.9531L50.2912 30.8838C51.3697 30.7586 51.5794 30.7211 51.6035 30.1784L51.6416 29.7463C51.7306 29.6478 51.9664 29.6205 52.0395 29.7107C52.0661 30.0469 52.0935 30.4962 52.1469 30.9556C52.2015 31.4265 52.2771 31.858 52.3356 32.2546C52.2835 32.3486 52.0477 32.3759 51.9403 32.3137L51.7954 31.8275C51.648 31.316 51.4345 31.316 50.3554 31.4424L49.76 31.5111C49.4746 31.5447 49.4657 31.5708 49.5013 31.8809L49.685 33.4563C49.7587 34.0886 49.8356 34.5322 50.0459 34.7215C50.215 34.8779 50.4374 34.9522 51.479 34.8308C53.0569 34.672 53.2882 34.2811 53.6053 33.2262C53.707 33.1265 53.9218 33.1385 54.0107 33.2542C53.9974 33.7835 53.8341 34.7577 53.7 35.113C53.1509 35.1524 52.0833 35.2636 50.6319 35.4333L49.2179 35.5972C48.6727 35.6608 47.9171 35.7612 47.3623 35.8508C47.2568 35.8127 47.2187 35.5909 47.2956 35.4936L47.7487 35.3907C48.3244 35.2611 48.4318 35.2108 48.2787 33.896L47.741 29.2824ZM55.6395 34.5398C55.3891 34.3021 55.1394 33.4626 55.0726 32.6918C55.1343 32.5596 55.344 32.5253 55.452 32.6022C55.7412 33.2122 56.5482 34.4705 57.7645 34.3453C58.7076 34.2481 59.1823 33.6221 59.1048 32.8653C59.0317 32.158 58.6383 31.621 57.6533 31.1959L57.089 30.9531C56.104 30.5273 55.2067 29.855 55.0917 28.7384C54.9646 27.5094 55.7761 26.3719 57.5879 26.185C58.2335 26.119 58.7203 26.2187 59.3151 26.2702C59.4804 26.5295 59.6882 27.3359 59.7492 27.9193C59.6983 28.0375 59.4759 28.0724 59.3552 27.9975C59.1029 27.3715 58.5824 26.5841 57.5275 26.6928C56.5349 26.7951 56.1911 27.4827 56.2591 28.1404C56.3125 28.6615 56.7306 29.1839 57.5942 29.5328L58.4064 29.8639C59.2567 30.2026 60.2296 30.88 60.3586 32.1332C60.5041 33.5484 59.528 34.6643 57.7283 34.8505C56.5864 34.9687 55.9026 34.6624 55.6395 34.5398ZM64.61 26.7589C64.5636 26.2372 64.549 26.2136 64.2262 26.2422L63.5297 26.3045C62.3858 26.4062 62.0623 26.5727 61.6918 27.62C61.6111 27.7026 61.3468 27.688 61.2858 27.5685C61.4377 26.8784 61.5552 26.0916 61.6042 25.6487C61.6251 25.6093 61.6741 25.5921 61.7363 25.5864C61.7859 25.582 61.8367 25.5902 61.8647 25.6258C61.9543 25.9302 62.1297 25.9283 62.9749 25.8521L68.0467 25.4015C68.6561 25.3468 68.8392 25.2935 68.9624 24.9941C69.0052 24.9621 69.0548 24.9404 69.1073 24.9306C69.1823 24.9236 69.2465 24.9439 69.2751 24.9783C69.1957 25.4987 69.1912 26.5771 69.2637 26.9718C69.2103 27.0766 69.0018 27.1198 68.8817 27.043C68.6339 26.0878 68.3765 25.8724 67.0464 25.9912L66.3372 26.0541C66.0144 26.0827 66.0043 26.1088 66.05 26.6312L66.5273 32.001C66.6448 33.3184 66.7598 33.3457 67.3496 33.3565L67.8014 33.3667C67.8961 33.4461 67.9037 33.6711 67.8084 33.7289C67.1974 33.7601 66.5871 33.8019 65.9776 33.8541C65.4304 33.9024 64.8477 33.9672 64.0539 34.0625C63.9497 34.0219 63.9154 33.7747 63.9968 33.7047L64.5134 33.5961C65.0936 33.4944 65.2016 33.4474 65.0847 32.1294L64.61 26.7589ZM71.988 32.7C71.9775 32.5917 71.9891 32.4823 72.022 32.3785C72.0548 32.2747 72.1083 32.1786 72.1793 32.096C72.2502 32.0134 72.3371 31.9459 72.4347 31.8977C72.5323 31.8495 72.6387 31.8215 72.7474 31.8154C73.2081 31.7805 73.5837 32.116 73.6186 32.5761C73.6536 33.0362 73.332 33.4245 72.8713 33.4595C72.763 33.4699 72.6537 33.4583 72.55 33.4254C72.4462 33.3926 72.3502 33.339 72.2677 33.2681C72.1852 33.1972 72.1179 33.1103 72.0698 33.0127C72.0217 32.915 71.9939 32.8087 71.988 32.7ZM123.182 31.5905C123.093 32.7858 123.141 32.8144 123.882 32.9695L124.213 33.0438C124.295 33.1252 124.277 33.3743 124.162 33.4029C122.992 33.266 121.816 33.1791 120.638 33.1423C120.53 33.0966 120.547 32.8475 120.641 32.7795L120.98 32.7547C121.734 32.7102 121.787 32.6886 121.875 31.4939L122.167 27.5469C122.228 26.7252 122.212 26.4234 121.656 26.3198L121.063 26.2136C120.993 26.1456 121.007 25.9588 121.073 25.9137C122.121 25.791 123.016 25.5566 123.547 25.3081C123.62 25.3259 123.667 25.3672 123.675 25.4301C123.631 25.6894 123.563 26.4354 123.527 26.9336L123.182 31.5905ZM132.08 27.9193C131.991 28.9386 131.129 29.3263 130.544 29.5874C131.276 30.078 132.071 30.8622 131.963 32.0925C131.841 33.4849 130.51 34.0822 129.154 33.9621C127.937 33.8547 126.677 33.2173 126.804 31.7881C126.895 30.7561 127.712 30.1517 128.627 29.8569C127.998 29.4629 127.313 28.7136 127.381 27.7928C127.507 26.5009 128.603 25.7205 130.033 25.847C131.264 25.9556 132.188 26.7011 132.08 27.9193ZM130.599 32.3613C130.685 31.3916 130.042 30.7211 129.043 30.1193C128.418 30.528 128.086 31.0249 128.005 31.7945C127.936 32.728 128.453 33.3997 129.261 33.4715C129.932 33.53 130.534 33.1068 130.599 32.3613ZM128.647 27.503C128.572 28.3616 129.465 28.8782 130.131 29.2881C130.624 28.9558 130.915 28.4925 130.974 27.8214C131.035 27.1249 130.673 26.4043 129.902 26.3363C129.157 26.2708 128.706 26.8326 128.647 27.503ZM136.258 34.6357C134.42 34.4502 133.591 32.9612 133.771 31.185C133.873 30.1543 134.351 28.6584 135.811 27.4884C137.19 26.3852 138.909 26.1317 139.801 26.1215C139.883 26.18 139.89 26.3687 139.817 26.4615C138.994 26.6553 137.847 26.9533 136.965 27.7433C135.917 28.6793 135.427 30.0602 135.291 31.1507C135.099 32.6873 135.476 34.0549 136.457 34.154C137.29 34.2379 137.702 33.502 137.784 32.6943C137.905 31.4894 137.49 30.3805 136.583 30.2896C136.443 30.2729 136.301 30.2843 136.165 30.3233C136.081 30.289 136.056 30.1613 136.103 30.066C136.509 29.7806 137.02 29.6821 137.467 29.7266C138.647 29.8461 139.37 30.8972 139.204 32.2857C138.999 33.8452 137.8 34.7908 136.258 34.6357ZM144.154 34.2335C145.047 34.3345 145.268 34.2595 145.73 33.6209C145.823 33.5815 145.993 33.6259 146.032 33.7308C145.754 34.6287 145.433 35.2458 145.219 35.472C144.701 35.3875 144.182 35.3161 143.661 35.2579L141.614 35.0259C140.92 34.9471 140.509 34.9128 140.246 34.9084C140.177 34.8499 140.148 34.7717 140.197 34.6764C140.934 34.1579 141.412 33.8217 142.258 33.1144C143.31 32.2539 144.302 31.1476 144.45 29.8448C144.562 28.8528 144.074 28.0686 143.167 27.9663C142.461 27.8862 141.976 28.2834 141.519 28.8846C141.367 28.8929 141.225 28.8141 141.217 28.6615C141.799 27.6219 142.848 27.1256 144.002 27.2565C145.329 27.4064 146.058 28.394 145.926 29.5601C145.836 30.3532 145.399 31.1082 144.149 32.1599L143.012 33.1112C142.415 33.6082 142.347 33.7638 142.337 33.8509C142.326 33.95 142.379 34.0314 142.702 34.0682L144.154 34.2335ZM70.6751 25.9537C70.6172 25.2979 70.6033 25.2166 70.2785 25.2032L70.1336 25.2026C70.0828 25.1721 70.072 25.0494 70.1235 25.01C70.6882 24.9157 71.2566 24.8451 71.8272 24.7984C72.476 24.7412 72.9463 24.7552 73.461 24.8893C74.3075 25.1174 74.9525 25.791 75.0421 26.8097C75.1082 27.5679 74.8013 28.3813 73.991 28.8865C73.5271 29.175 72.9463 29.3091 72.3242 29.3637C71.9073 29.4006 71.5825 29.3873 71.3296 29.4095C71.0697 29.4324 70.7628 29.4661 70.4635 29.5061C70.4063 29.4839 70.3891 29.3606 70.4323 29.3091L70.5804 29.2748C70.8981 29.2061 70.9579 29.1801 70.8943 28.455L70.6751 25.9537ZM71.6645 28.1195C71.723 28.7829 71.8018 29.1343 72.5269 29.0702C73.7438 28.9634 74.2147 28.0534 74.113 26.8981C73.9942 25.5445 73.1503 24.9573 72.0083 25.0577C71.7211 25.0831 71.5069 25.1568 71.4631 25.2026C71.4192 25.2477 71.4243 25.392 71.4529 25.7135L71.6645 28.1195Z" fill="white"/>
<path fill-rule="evenodd" clip-rule="evenodd" d="M94.6113 43.7687C94.537 44.0909 94.5503 44.1011 94.7721 44.1799L94.8713 44.2173C94.8935 44.2434 94.8782 44.3101 94.8414 44.3127C94.4859 44.218 94.1273 44.1356 93.7661 44.0655C93.7344 44.0477 93.7496 43.9803 93.7814 43.9663L93.8869 43.9771C94.122 44.0026 94.1379 43.9994 94.2123 43.6772L94.4582 42.6134C94.5097 42.3916 94.5167 42.309 94.3495 42.2531L94.1709 42.194C94.1519 42.1724 94.164 42.1221 94.1862 42.1126C94.5135 42.131 94.7982 42.112 94.9723 42.0707C94.9939 42.0796 95.0073 42.0929 95.0073 42.1101C94.9673 42.2433 94.9321 42.3779 94.9018 42.5136L94.6113 43.7687ZM97.6235 42.9279C97.6013 43.2101 97.3344 43.3175 97.1526 43.3906C97.3846 43.5266 97.6375 43.7433 97.6108 44.0839C97.5803 44.4696 97.1685 44.6349 96.7447 44.6025C96.3634 44.5726 95.9668 44.3966 95.998 44.0013C96.0202 43.7153 96.2725 43.5475 96.5566 43.4656C96.3583 43.3569 96.1397 43.1497 96.1556 42.8949C96.188 42.5371 96.5254 42.3211 96.9728 42.3547C97.3573 42.384 97.6502 42.5911 97.6235 42.9279ZM97.1863 44.1582C97.2073 43.8894 97.0027 43.7039 96.6875 43.5374C96.4943 43.6505 96.3939 43.7884 96.3729 44.0013C96.3564 44.2593 96.5216 44.4455 96.7745 44.4645C96.9849 44.4817 97.1698 44.3648 97.1863 44.1582ZM96.5489 42.8136C96.5305 43.0512 96.8127 43.1942 97.0224 43.3073C97.0959 43.2668 97.1579 43.2082 97.2025 43.137C97.2471 43.0659 97.2728 42.9845 97.2772 42.9006C97.2918 42.7074 97.1749 42.5085 96.934 42.4901C96.8871 42.4838 96.8394 42.4873 96.7939 42.5005C96.7485 42.5137 96.7062 42.5363 96.67 42.5667C96.6337 42.5972 96.6042 42.6348 96.5834 42.6773C96.5626 42.7199 96.5508 42.7663 96.5489 42.8136ZM99.3279 44.6158C98.7528 44.6546 98.423 44.2892 98.3899 43.7973C98.3709 43.5113 98.4427 43.0811 98.8348 42.6915C99.2046 42.3249 99.7213 42.1724 99.9952 42.126C100.024 42.138 100.035 42.1889 100.017 42.2181C99.7734 42.3109 99.4347 42.4469 99.2027 42.7055C98.9257 43.0106 98.8443 43.4103 98.857 43.714C98.8742 44.1417 99.0585 44.4957 99.3654 44.4754C99.626 44.4576 99.7162 44.237 99.701 44.0134C99.6787 43.6791 99.4957 43.3976 99.2116 43.4173C99.1679 43.4195 99.1249 43.4294 99.0845 43.4465C99.0566 43.4414 99.0426 43.4071 99.0521 43.3798C99.1633 43.2825 99.3158 43.2304 99.4557 43.2209C99.8249 43.1961 100.1 43.4471 100.118 43.8335C100.133 44.2675 99.8103 44.5828 99.3279 44.6158ZM102.017 43.8558C102.292 43.796 102.35 43.7547 102.428 43.5437C102.452 43.5247 102.507 43.5196 102.528 43.5431C102.529 43.8036 102.491 43.9956 102.448 44.0756C102.299 44.1011 102.142 44.1322 101.966 44.1703L101.337 44.3082C101.197 44.3368 101.058 44.3707 100.92 44.4099C100.894 44.401 100.879 44.3838 100.884 44.354C101.055 44.1474 101.165 44.014 101.35 43.7477C101.582 43.4217 101.774 43.0385 101.697 42.6846C101.637 42.4151 101.419 42.2588 101.141 42.3198C100.924 42.3674 100.817 42.5181 100.737 42.7182C100.693 42.7348 100.644 42.7284 100.627 42.6896C100.703 42.3624 100.968 42.1317 101.323 42.0542C101.731 41.9652 102.039 42.1514 102.108 42.4679C102.155 42.6833 102.095 42.9216 101.823 43.3162L101.573 43.674C101.443 43.8608 101.437 43.9079 101.442 43.9314C101.449 43.9587 101.472 43.974 101.571 43.9523L102.017 43.8558ZM81.4956 27.5117C81.5254 27.5365 81.5337 27.6058 81.5114 27.6344C81.3011 27.7163 81.0297 27.9114 81.0685 28.4217C81.1054 28.9129 81.4504 29.3857 82.152 29.3343C82.8809 29.2809 83.1987 28.7395 83.1612 28.2406C83.1243 27.7526 82.8212 27.5619 82.5905 27.4691C82.5568 27.4367 82.5663 27.3744 82.5956 27.3522C82.8269 27.3624 83.0608 27.4501 83.13 27.499C83.1408 27.5447 83.1573 27.5905 83.1707 27.6324C83.2012 27.7157 83.2794 27.9781 83.2984 28.2298C83.327 28.613 83.2838 28.9466 83.1434 29.237C82.9858 29.5637 82.6922 29.823 82.2435 29.856C82.0636 29.8703 81.883 29.8393 81.7181 29.7658C81.5533 29.6923 81.4095 29.5787 81.2998 29.4353C81.0869 29.1627 80.9579 28.7801 80.9287 28.3893C80.9143 28.1641 80.9226 27.938 80.9535 27.7144C80.9605 27.6674 80.9617 27.6401 80.9662 27.6045C81.0437 27.5918 81.2452 27.5689 81.4956 27.5117ZM82.4392 26.1086C82.4284 26.209 82.4284 26.2045 82.5168 26.2503L82.9089 26.453C83.1021 26.5521 83.1135 26.5381 83.1465 26.3977L83.1764 26.2878C83.2031 26.2636 83.2641 26.2744 83.2743 26.3062C83.2539 26.4288 83.24 26.5559 83.219 26.7135C83.205 26.84 83.1948 26.9601 83.1872 27.0961C83.1675 27.1209 83.1154 27.119 83.0881 27.0885L83.0836 26.9709C83.0824 26.8578 83.0563 26.812 82.9502 26.7421C82.8663 26.6862 82.7297 26.6087 82.5543 26.5076L81.3977 25.8455C81.2941 25.7832 81.2166 25.7393 81.1568 25.7444C81.1486 25.6072 81.0228 25.4648 81.0234 25.4572C81.024 25.4447 81.0275 25.4326 81.0335 25.4216C81.0396 25.4107 81.0481 25.4014 81.0583 25.3943C81.2185 25.3504 81.385 25.318 81.5451 25.2735L83.0372 24.8776C83.2755 24.8141 83.3016 24.7975 83.3543 24.6044L83.3709 24.5478C83.3982 24.5198 83.456 24.5262 83.4706 24.5561C83.4459 24.713 83.4268 24.8554 83.4046 25.0549C83.3861 25.2208 83.374 25.3905 83.3626 25.5252C83.3423 25.5538 83.2806 25.5512 83.2622 25.5258L83.2616 25.4394C83.2635 25.2996 83.2444 25.2856 83.0919 25.3199L82.6077 25.4496C82.5117 25.4775 82.5098 25.489 82.4983 25.5963L82.4392 26.1086ZM82.3369 25.63C82.349 25.522 82.3439 25.5061 82.2588 25.5277L81.8311 25.644C81.643 25.6891 81.5756 25.7057 81.5496 25.7222L81.5489 25.7298C81.5712 25.7476 81.6532 25.7883 81.8063 25.8753L82.1876 26.0806C82.2816 26.134 82.2829 26.1225 82.2937 26.0304L82.3369 25.63ZM83.5018 24.108C83.4134 24.1557 83.1713 24.1405 82.968 24.0788C82.9413 24.047 82.9553 23.9829 82.987 23.9593C83.1745 23.9403 83.585 23.838 83.6873 23.4719C83.7674 23.1885 83.66 22.9845 83.4586 22.9279C83.2698 22.8752 83.09 22.933 82.872 23.1739L82.7475 23.3124C82.5301 23.5533 82.2594 23.7433 81.962 23.6594C81.6341 23.5666 81.4339 23.2126 81.5871 22.6674C81.6417 22.4729 81.7212 22.342 81.8 22.1755C81.8838 22.1552 82.1126 22.1793 82.2683 22.2226C82.2925 22.2499 82.2772 22.3179 82.2448 22.3446C82.0567 22.3528 81.7987 22.4208 81.7097 22.7379C81.6258 23.0366 81.7631 23.2082 81.9385 23.2571C82.077 23.2965 82.2562 23.2298 82.4418 23.0163L82.6153 22.8155C82.7958 22.6045 83.076 22.3935 83.4103 22.4876C83.7871 22.5937 83.9638 22.994 83.8119 23.5348C83.7159 23.878 83.5622 24.0445 83.5018 24.108ZM83.681 21.2077C83.6384 21.2992 83.6397 21.296 83.7089 21.3666L84.0153 21.6849C84.1659 21.8406 84.1817 21.8311 84.258 21.7084L84.3209 21.6144C84.3546 21.6004 84.4086 21.6296 84.408 21.6633C84.3495 21.7733 84.2949 21.8883 84.225 22.0313C84.1709 22.1469 84.1233 22.2569 84.0724 22.3833C84.0451 22.4005 83.9968 22.3821 83.9803 22.3439L84.014 22.2315C84.0489 22.1241 84.0388 22.0719 83.9606 21.9715C83.8996 21.8915 83.7947 21.7739 83.6613 21.622L82.7773 20.6237C82.6992 20.5309 82.6394 20.4648 82.5816 20.4508C82.6172 20.318 82.5435 20.1426 82.5466 20.1356C82.5513 20.1241 82.5584 20.1138 82.5675 20.1055C82.5767 20.0971 82.5875 20.0909 82.5994 20.0873C82.7659 20.0969 82.933 20.1197 83.0995 20.1286L84.6399 20.2322C84.8859 20.2487 84.9164 20.2424 85.0276 20.0759L85.0613 20.0276C85.0962 20.0098 85.149 20.0346 85.1534 20.067C85.0797 20.2081 85.0161 20.3364 84.931 20.5188C84.8605 20.6694 84.795 20.827 84.7403 20.9516C84.7117 20.9726 84.6539 20.9497 84.6457 20.9198L84.6723 20.8385C84.7187 20.7063 84.7054 20.6872 84.5503 20.6694L84.0496 20.6364C83.9492 20.6326 83.9447 20.6434 83.899 20.7412L83.681 21.2077ZM83.7369 20.7215C83.7827 20.6237 83.7833 20.6059 83.6956 20.5995L83.2533 20.5728C83.0608 20.5557 82.9915 20.5487 82.9623 20.5563L82.9584 20.5633C82.9737 20.5875 83.0385 20.6523 83.1554 20.7838L83.4509 21.1016C83.5234 21.1823 83.5285 21.1715 83.5679 21.0876L83.7369 20.7215ZM85.0702 16.3392C85.2278 16.1473 85.3618 15.9783 85.4082 15.9103C85.4667 15.9579 85.6656 16.1213 85.7959 16.2172C85.8067 16.2464 85.7679 16.3049 85.7279 16.3214C85.5493 16.2255 85.433 16.2102 85.3129 16.303C85.2284 16.3719 85.1523 16.4503 85.086 16.5369L84.9609 16.6894C84.8579 16.8152 84.8636 16.8197 85.0123 16.941L85.4883 17.33C85.5544 17.384 85.5627 17.3852 85.6192 17.3166L85.7641 17.1399C85.9776 16.8794 86.0113 16.8273 85.9223 16.7091L85.8518 16.6112C85.848 16.5782 85.8944 16.521 85.9281 16.5242C85.9942 16.5839 86.0876 16.6697 86.1861 16.7498C86.2846 16.8305 86.385 16.9023 86.4701 16.9665C86.479 16.9989 86.432 17.0561 86.3996 17.0586L86.2763 16.9976C86.1429 16.9334 86.0984 16.9773 85.8842 17.2378L85.74 17.4145C85.6834 17.4831 85.6859 17.4907 85.7527 17.5447L86.1251 17.8491C86.4066 18.0792 86.4365 18.0589 86.5623 17.9267L86.6786 17.8117C86.7148 17.8059 86.7599 17.8479 86.751 17.8809C86.5883 18.0684 86.4752 18.2006 86.3672 18.3327C86.2592 18.4643 86.1511 18.6016 86.0437 18.7433C86.0132 18.7579 85.963 18.7223 85.9617 18.6861L86.0075 18.6136C86.1066 18.4598 86.1213 18.4262 85.8391 18.1961L84.8509 17.3884C84.5694 17.1584 84.5389 17.1787 84.4048 17.3045L84.3673 17.3388C84.3317 17.3452 84.286 17.3026 84.2949 17.2702C84.3864 17.1698 84.4995 17.037 84.6069 16.9054L85.0702 16.3392ZM86.5362 15.4661C86.2998 15.189 86.2668 15.2043 86.1124 15.304L86.0558 15.339C86.0196 15.3383 85.9846 15.2913 85.9999 15.2608C86.2667 15.0511 86.5252 14.8308 86.7745 14.6005C86.8069 14.5904 86.8476 14.633 86.8425 14.6679L86.7847 14.7315C86.6621 14.8674 86.6417 14.8986 86.8781 15.1744L87.389 15.7717C87.6966 16.1314 88.0792 16.3284 88.4891 15.9795C88.8748 15.6504 88.8138 15.2564 88.4745 14.8598L88.1961 14.5338C88.029 14.3375 87.8186 14.0979 87.7004 14.068C87.6407 14.0515 87.5778 14.0731 87.4952 14.1258L87.4297 14.1678C87.3878 14.1722 87.3503 14.1227 87.3732 14.0902C87.5953 13.9192 87.8087 13.737 88.0125 13.5444C88.0468 13.5374 88.0887 13.5742 88.0805 13.6124L88.0271 13.6804C87.98 13.7382 87.9356 13.7941 87.9508 13.8532C87.9769 13.9663 88.1726 14.1957 88.3486 14.4016L88.6136 14.7118C88.817 14.9494 88.9625 15.2036 88.9339 15.4801C88.906 15.7571 88.7274 15.9954 88.5234 16.1683C88.2457 16.404 88.0074 16.5178 87.7735 16.5191C87.5447 16.5197 87.3268 16.3901 87.1018 16.1263L86.5362 15.4661ZM91.7008 13.369C91.7498 13.4598 91.9499 13.831 91.9976 13.8939C91.9881 13.9422 91.9468 13.9803 91.9048 13.9987C91.8158 13.9651 91.6614 13.9161 91.282 13.8011L90.0486 13.4268C89.7073 13.3264 89.5364 13.2711 89.4537 13.2565C89.4436 13.2622 89.462 13.2959 89.5478 13.4548L89.8655 14.0432C89.9875 14.2688 90.1407 14.5446 90.2481 14.6044C90.3028 14.633 90.3707 14.6196 90.4629 14.5859L90.5423 14.5542C90.5843 14.5586 90.6122 14.6183 90.5824 14.6457C90.3285 14.7683 90.0803 14.9021 89.8382 15.0467C89.8026 15.0467 89.7683 14.999 89.7848 14.9628L89.8516 14.9075C89.9113 14.8636 89.9659 14.8179 89.964 14.7569C89.9577 14.6393 89.8166 14.3769 89.6876 14.1385L89.3019 13.4243C89.1748 13.1891 89.1519 13.1389 88.9886 13.1141C88.9365 13.1072 88.8278 13.1345 88.775 13.1516L88.7191 13.1701C88.6854 13.165 88.6562 13.1027 88.6854 13.0709C88.8214 13.0131 89.0076 12.9089 89.0934 12.8625C89.1646 12.8237 89.2447 12.7767 89.3235 12.7309C89.4518 12.8288 90.0289 13.0086 90.2106 13.0589L90.7279 13.2006C90.9459 13.2622 91.4365 13.4103 91.4803 13.4096C91.4854 13.3957 91.4771 13.3798 91.4511 13.3321L91.1333 12.7437C91.0119 12.5181 90.8582 12.2423 90.7476 12.1844C90.6929 12.1558 90.6281 12.1673 90.536 12.2009L90.4527 12.2346C90.4108 12.2302 90.3835 12.1704 90.4127 12.1393C90.5487 12.0732 90.6777 12.0084 90.8099 11.9366C90.9567 11.8571 91.0437 11.8063 91.1632 11.7383C91.1988 11.7383 91.2331 11.786 91.2172 11.8222L91.1467 11.8794C91.0869 11.9232 91.0355 11.9671 91.0374 12.0281C91.0405 12.1476 91.1823 12.41 91.3113 12.6483L91.7008 13.369ZM92.4736 11.7987C92.3821 11.4822 92.3674 11.4434 92.1863 11.474L92.1069 11.4892C92.0758 11.4803 92.0586 11.4212 92.0834 11.3964C92.3465 11.2998 92.6407 11.2045 93.0061 11.0997C93.3601 10.9986 93.6206 10.9529 93.9174 10.9598C94.4067 10.977 94.8236 11.2363 94.9647 11.7269C95.0702 12.0929 94.9736 12.5276 94.5713 12.8676C94.3413 13.062 94.0324 13.1936 93.6937 13.2902C93.4668 13.3556 93.2857 13.3855 93.1478 13.4255C93.0061 13.4656 92.8402 13.5177 92.6776 13.5711C92.6445 13.566 92.6235 13.5081 92.6426 13.4776L92.722 13.4446C92.8917 13.3747 92.9222 13.3544 92.8212 13.0055L92.4736 11.7987ZM93.2164 12.7532C93.3086 13.0728 93.3842 13.2368 93.7789 13.1237C94.4417 12.9337 94.6196 12.4329 94.4595 11.8756C94.2714 11.2236 93.7515 11.0291 93.13 11.207C92.9737 11.2522 92.8625 11.3125 92.8421 11.3399C92.8212 11.3672 92.8377 11.4371 92.8822 11.5922L93.2164 12.7532ZM96.3577 11.8578C96.2573 11.8667 96.2611 11.866 96.2337 11.9614L96.1092 12.3852C96.0482 12.593 96.0647 12.6026 96.209 12.6077L96.3227 12.6159C96.3513 12.6375 96.3526 12.6998 96.3227 12.7157C96.1988 12.7195 96.071 12.7297 95.9128 12.7392C95.7857 12.75 95.6662 12.7634 95.5322 12.7811C95.5036 12.7665 95.4953 12.7151 95.5195 12.682L95.6338 12.6553C95.7444 12.6324 95.7844 12.5981 95.8334 12.4806C95.8721 12.3878 95.9223 12.2391 95.9884 12.0472L96.4168 10.7851C96.4581 10.6713 96.486 10.5868 96.4695 10.529C96.6023 10.494 96.7186 10.3434 96.7262 10.3422C96.7385 10.3404 96.751 10.3415 96.7628 10.3453C96.7746 10.3492 96.7854 10.3557 96.7942 10.3644C96.8686 10.5131 96.9321 10.6694 97.0058 10.8188L97.6795 12.2073C97.7875 12.4297 97.8091 12.452 98.008 12.4659L98.0671 12.4717C98.1002 12.4926 98.1052 12.5511 98.0792 12.5702C97.9203 12.5772 97.7773 12.5848 97.5765 12.6019C97.4107 12.6153 97.241 12.6369 97.1069 12.6509C97.0745 12.6369 97.0656 12.5752 97.0866 12.553L97.1711 12.5358C97.309 12.5104 97.3185 12.4895 97.2562 12.3458L97.037 11.8953C96.9906 11.8063 96.9792 11.8069 96.8711 11.8165L96.3577 11.8578ZM96.8082 11.6659C96.9156 11.657 96.9309 11.6493 96.8934 11.5693L96.6976 11.1721C96.6176 10.9967 96.5883 10.9332 96.5674 10.9109L96.5597 10.9115C96.5464 10.937 96.5222 11.0253 96.4663 11.1912L96.3373 11.6049C96.303 11.7078 96.3144 11.7065 96.4072 11.6989L96.8082 11.6659ZM98.9498 10.8499C98.9873 10.5226 98.9879 10.482 98.8087 10.4407L98.7293 10.4248C98.7045 10.4051 98.7115 10.3434 98.7439 10.3301C99.0235 10.3415 99.333 10.3663 99.7098 10.4089C100.076 10.4502 100.335 10.5067 100.605 10.6275C101.05 10.8296 101.336 11.2274 101.279 11.7345C101.236 12.1126 100.98 12.4761 100.478 12.6369C100.191 12.7284 99.8554 12.7316 99.5046 12.6922C99.2695 12.6655 99.0909 12.6248 98.9485 12.6083C98.7855 12.59 98.6222 12.5749 98.4586 12.5632C98.4293 12.546 98.4325 12.4844 98.4624 12.4634L98.5482 12.4628C98.7312 12.4634 98.7674 12.457 98.8081 12.0961L98.9498 10.8499ZM99.2695 12.0135C99.2313 12.3439 99.2383 12.5238 99.6469 12.5695C100.333 12.6477 100.689 12.2537 100.755 11.6786C100.831 11.0043 100.425 10.6281 99.7829 10.5544C99.6215 10.5366 99.495 10.5493 99.4658 10.5671C99.4366 10.5843 99.4245 10.6561 99.4061 10.8156L99.2695 12.0135ZM102.517 12.3948C102.421 12.3636 102.425 12.3649 102.364 12.4424L102.086 12.7862C101.95 12.9553 101.962 12.9699 102.094 13.0303L102.196 13.0805C102.214 13.1116 102.191 13.1694 102.157 13.1732C102.041 13.1294 101.919 13.09 101.769 13.0379C101.647 12.999 101.524 12.9632 101.4 12.9305C101.38 12.9063 101.391 12.8561 101.427 12.8352L101.543 12.8542C101.654 12.8752 101.705 12.8587 101.795 12.7684C101.866 12.6979 101.969 12.5797 102.104 12.4278L102.982 11.4269C103.064 11.3373 103.122 11.27 103.129 11.2109C103.265 11.2293 103.431 11.1346 103.437 11.1365C103.467 11.1467 103.483 11.1619 103.492 11.1829C103.504 11.3488 103.503 11.5178 103.514 11.6837L103.608 13.2234C103.622 13.4694 103.633 13.4986 103.812 13.5876L103.865 13.6155C103.887 13.6479 103.87 13.7039 103.838 13.7115C103.68 13.6531 103.521 13.5985 103.361 13.5475C103.202 13.4967 103.037 13.4516 102.906 13.4128C102.882 13.3874 102.897 13.327 102.926 13.315L103.011 13.3308C103.148 13.3601 103.166 13.3442 103.162 13.1879L103.131 12.6884C103.122 12.588 103.111 12.5848 103.008 12.5511L102.517 12.3948ZM103.007 12.3897C103.11 12.4227 103.127 12.4208 103.124 12.3325L103.094 11.8908C103.086 11.6976 103.084 11.6284 103.073 11.5998L103.066 11.5972C103.044 11.615 102.988 11.6881 102.872 11.8203L102.594 12.1527C102.523 12.2346 102.534 12.2384 102.623 12.2664L103.007 12.3897ZM106.461 13.083C106.656 12.7767 106.632 12.7494 106.492 12.6312L106.443 12.5918C106.433 12.5568 106.47 12.5066 106.503 12.5117C106.623 12.5969 106.775 12.6979 106.919 12.79L107.543 13.1879C107.752 13.3213 107.943 13.4395 107.99 13.4611C107.971 13.5183 107.845 13.7592 107.786 13.8964C107.758 13.911 107.689 13.8755 107.673 13.8411C107.728 13.6403 107.725 13.5367 107.635 13.4471C107.561 13.3731 107.479 13.3082 107.39 13.2539L107.171 13.1141C107.031 13.0239 107.027 13.0303 106.921 13.1948L106.61 13.6835C106.562 13.7585 106.564 13.7636 106.64 13.8113L106.796 13.9117C107.08 14.0928 107.137 14.1252 107.24 14.0159L107.325 13.932C107.364 13.9282 107.426 13.9682 107.428 14C107.375 14.0763 107.302 14.176 107.233 14.2828C107.163 14.3927 107.106 14.4982 107.05 14.5929C107.02 14.6031 106.958 14.563 106.944 14.5294L106.994 14.3991C107.049 14.2631 106.997 14.2218 106.713 14.0407L106.557 13.9409C106.481 13.8932 106.473 13.8971 106.428 13.9689L106.194 14.3355C106.1 14.483 106.041 14.591 106.058 14.6717C106.071 14.7372 106.112 14.795 106.387 14.971C106.799 15.2417 106.923 15.203 107.188 15.0422C107.23 15.0409 107.28 15.0848 107.28 15.1261C107.184 15.2354 106.972 15.4089 106.876 15.4572C106.611 15.2786 106.344 15.1042 106.074 14.9342L105.702 14.6965C105.558 14.6044 105.356 14.4804 105.206 14.3921C105.188 14.3635 105.218 14.3095 105.253 14.3038L105.381 14.3699C105.544 14.4531 105.579 14.4633 105.774 14.157L106.461 13.083ZM109.484 16.9817C109.414 17.0561 109.124 17.363 109.078 17.4278C109.029 17.4342 108.98 17.4068 108.949 17.3725C108.953 17.2778 108.952 17.1164 108.941 16.7205L108.91 15.4337C108.898 15.0791 108.898 14.8992 108.885 14.8166C108.877 14.8083 108.851 14.8357 108.726 14.9679L108.266 15.454C108.09 15.6408 107.876 15.8728 107.853 15.9929C107.843 16.0545 107.876 16.1143 107.938 16.1912L107.993 16.2573C108.002 16.2986 107.955 16.3437 107.919 16.324C107.817 16.2178 107.712 16.1143 107.604 16.0139C107.507 15.9217 107.407 15.8321 107.305 15.7451C107.293 15.7114 107.328 15.6637 107.367 15.6675L107.441 15.7133C107.502 15.7559 107.561 15.794 107.619 15.773C107.728 15.7304 107.934 15.5137 108.12 15.3167L108.678 14.7257C108.862 14.5313 108.903 14.4944 108.876 14.3317C108.866 14.2796 108.806 14.1856 108.773 14.1404L108.738 14.0934C108.732 14.0597 108.782 14.0127 108.817 14.0331C108.915 14.1443 109.072 14.2872 109.143 14.354C109.203 14.4099 109.272 14.4715 109.345 14.5281C109.292 14.6806 109.302 15.2843 109.311 15.4718L109.339 16.0069C109.349 16.2325 109.362 16.744 109.376 16.786C109.391 16.7866 109.404 16.7739 109.442 16.7339L109.9 16.2477C110.077 16.0609 110.291 15.8296 110.31 15.7063C110.321 15.6446 110.289 15.5875 110.228 15.5112L110.17 15.4426C110.161 15.4013 110.209 15.3561 110.244 15.3765C110.442 15.581 110.649 15.7756 110.865 15.9598C110.877 15.9935 110.842 16.0412 110.802 16.0374L110.725 15.9891C110.665 15.9459 110.608 15.9109 110.551 15.9319C110.438 15.9719 110.233 16.1886 110.047 16.3856L109.484 16.9817ZM113.015 20.21C112.978 20.1998 112.939 20.1413 112.947 20.1058C113.101 19.9399 113.26 19.6457 113.003 19.2027C112.754 18.777 112.238 18.5024 111.63 18.8564C110.998 19.2243 110.948 19.8497 111.2 20.2824C111.446 20.705 111.803 20.7451 112.05 20.7266C112.094 20.7406 112.113 20.8016 112.095 20.834C111.883 20.9268 111.635 20.9497 111.551 20.9351C111.522 20.8982 111.487 20.8652 111.457 20.8334C111.313 20.6883 111.187 20.5266 111.081 20.3517C110.888 20.0193 110.782 19.6997 110.781 19.3769C110.781 19.014 110.933 18.6518 111.32 18.4262C111.476 18.3345 111.651 18.2832 111.832 18.2771C112.012 18.271 112.191 18.3103 112.352 18.3912C112.663 18.5425 112.946 18.8316 113.142 19.171C113.254 19.3622 113.358 19.6107 113.415 19.7893C113.429 19.8344 113.44 19.8598 113.452 19.8935C113.387 19.9399 113.215 20.0486 113.015 20.21ZM113.527 21.1899C113.871 21.0736 113.87 21.0374 113.834 20.8575L113.822 20.7914C113.836 20.7578 113.893 20.7431 113.915 20.7679C113.958 20.9173 114.011 21.0838 114.065 21.2458C114.121 21.411 114.18 21.5756 114.241 21.7351C114.238 21.7688 114.184 21.7911 114.153 21.7733L114.116 21.6957C114.034 21.5305 114.013 21.5006 113.669 21.6169L112.925 21.868C112.477 22.0192 112.152 22.3007 112.325 22.8117C112.488 23.2927 112.877 23.3823 113.37 23.2165L113.776 23.0792C114.02 22.9972 114.32 22.8917 114.393 22.7939C114.431 22.7443 114.433 22.6776 114.416 22.5816L114.401 22.5047C114.412 22.4647 114.472 22.4482 114.494 22.4825C114.53 22.6096 114.573 22.7506 114.622 22.8936C114.674 23.0481 114.711 23.1459 114.763 23.2787C114.757 23.3137 114.707 23.3385 114.675 23.3169L114.631 23.2419C114.594 23.1758 114.559 23.1148 114.498 23.1059C114.384 23.0875 114.098 23.184 113.841 23.2705L113.455 23.4007C113.16 23.5005 112.869 23.5412 112.622 23.4115C112.376 23.2819 112.221 23.0277 112.135 22.7735C112.019 22.4278 112.001 22.1635 112.088 21.9461C112.171 21.7339 112.373 21.5801 112.701 21.4689L113.527 21.1899ZM114.454 24.4855C114.78 24.4417 114.82 24.4328 114.813 24.2498L114.81 24.1487C114.83 24.1182 114.885 24.1112 114.906 24.1398C114.942 24.3108 114.997 24.5885 115.053 25.0111C115.096 25.3333 115.103 25.5944 115.038 25.7787C114.97 25.9681 114.846 26.0787 114.632 26.1073C114.431 26.134 114.255 25.9891 114.142 25.7311C114.136 25.7165 114.125 25.7101 114.118 25.7107C114.111 25.712 114.106 25.7209 114.102 25.7444C114.1 26.0418 113.977 26.3907 113.593 26.4422C113.504 26.4558 113.413 26.4471 113.329 26.4168C113.244 26.3865 113.168 26.3356 113.108 26.2687C112.951 26.106 112.859 25.8601 112.801 25.4235C112.779 25.2538 112.767 25.0918 112.747 24.9456C112.725 24.7759 112.699 24.5961 112.668 24.4283C112.678 24.3959 112.738 24.3845 112.765 24.408L112.788 24.4912C112.832 24.6685 112.847 24.7022 113.207 24.6539L114.454 24.4855ZM113.339 25.0886C113.029 25.1299 112.908 25.1852 112.953 25.5195C112.989 25.7845 113.173 25.9986 113.476 25.9573C113.827 25.9109 113.998 25.6141 113.941 25.1877C113.919 25.0187 113.896 25.0142 113.829 25.0225L113.339 25.0886ZM114.139 24.9818C114.05 24.9939 114.048 25.0053 114.069 25.1585C114.118 25.5195 114.266 25.6682 114.572 25.6269C114.871 25.5868 114.957 25.3212 114.926 25.0835C114.899 24.891 114.891 24.8808 114.756 24.8992L114.139 24.9818ZM113.796 27.7411C113.8 27.6407 113.8 27.6445 113.709 27.6058L113.304 27.4297C113.106 27.3439 113.095 27.3592 113.072 27.5009L113.05 27.6127C113.025 27.6388 112.963 27.6318 112.951 27.6019C112.964 27.478 112.969 27.3503 112.979 27.1914C112.985 27.0637 112.986 26.9429 112.985 26.8076C113.003 26.7809 113.055 26.779 113.085 26.8076L113.097 26.9245C113.106 27.0376 113.135 27.0815 113.245 27.1444C113.332 27.1946 113.473 27.2632 113.655 27.3516L114.851 27.9337C114.958 27.9883 115.039 28.0264 115.098 28.0175C115.116 28.1542 115.251 28.2876 115.251 28.2959C115.251 28.3083 115.248 28.3205 115.243 28.3317C115.237 28.3428 115.23 28.3527 115.22 28.3607C115.064 28.416 114.901 28.4592 114.744 28.5145L113.286 29.0108C113.053 29.0902 113.028 29.108 112.988 29.3044L112.976 29.3622C112.95 29.3921 112.892 29.3896 112.876 29.3667C112.89 29.2078 112.9 29.0642 112.908 28.8627C112.915 28.6962 112.916 28.5253 112.918 28.3868C112.937 28.3569 112.998 28.3556 113.018 28.3791L113.025 28.4649C113.033 28.6054 113.053 28.6174 113.202 28.5736L113.675 28.4116C113.769 28.3766 113.769 28.3652 113.774 28.2565L113.796 27.7411ZM113.93 28.212C113.925 28.32 113.931 28.3359 114.015 28.308L114.433 28.1631C114.616 28.1046 114.683 28.0843 114.709 28.0665V28.0582C114.685 28.0423 114.601 28.0074 114.443 27.9311L114.049 27.7513C113.952 27.7049 113.952 27.7163 113.948 27.8091L113.93 28.212Z" fill="white" stroke="white" stroke-width="0.198595" stroke-miterlimit="2.613"/>
<path fill-rule="evenodd" clip-rule="evenodd" d="M110.314 24.3265C110.02 22.8509 108.514 20.3077 108.027 19.6531C107.541 18.9986 106.692 17.6056 106.651 17.4067C106.609 17.2072 106.805 16.6791 106.763 16.5196C106.722 16.3594 106.08 16.7128 105.91 16.8113C105.618 16.9797 105.279 17.2745 104.878 17.6755C104.416 18.1362 103.613 19.3208 103.204 19.9321C102.692 20.6972 101.885 21.4547 101.587 21.7178C101.29 21.9809 100.922 22.4499 100.206 22.577C99.8295 22.6431 99.5493 22.7117 99.4228 22.5681C99.2525 22.3749 99.2633 21.491 99.2633 21.491C99.2633 21.491 99.2563 21.4579 99.8105 20.893C100.364 20.3274 100.438 19.6366 100.476 19.4364C100.514 19.2363 100.29 18.9281 99.8105 18.9732C99.3313 19.0177 98.5897 19.4193 98.5897 19.4193C98.5897 19.4193 97.5996 18.5582 97.2418 18.5518C96.8021 18.541 96.6108 19.2007 96.5936 19.3939C96.558 19.8095 96.7017 19.697 95.8272 20.185C95.0125 20.6413 95.1549 21.1542 95.3977 21.4319C95.6404 21.7089 96.4837 21.8862 96.56 22.0127C96.6362 22.1385 96.6616 22.5344 96.5854 22.5681C96.5097 22.6024 96.5854 22.6742 95.7516 22.5179C95.0983 22.3972 94.5753 22.2332 92.7509 19.7529C90.8857 17.2135 90.2083 16.8977 90.0075 16.8201C89.8073 16.742 89.4946 16.531 89.4946 16.531C89.4946 16.531 89.4126 17.2656 89.3955 17.5255C89.3777 17.7855 89.3968 17.666 88.706 18.5518C88.0159 19.439 87.8551 19.3602 86.5612 21.8926C85.2629 24.432 85.4116 26.3543 85.3627 27.455C85.3252 28.3027 85.5978 31.1751 86.553 33.1248C87.4109 34.8749 88.2986 35.9273 88.5408 36.1453C88.7822 36.3626 89.3065 37.0184 89.405 36.8977C89.5035 36.7769 88.8096 35.8529 88.6297 35.5841C88.4721 35.3477 88.2643 34.9112 87.6085 33.339C86.9527 31.7668 86.9876 30.7119 87.4852 30.4869C87.9828 30.2619 88.3012 30.9286 88.5852 31.3855C88.8693 31.8424 89.323 32.3978 89.3828 32.3171C89.4412 32.237 88.8331 31.3346 88.4391 29.9595C88.0451 28.5843 88.3304 27.6317 88.7873 27.3266C89.2442 27.0222 89.515 27.2663 90.1676 28.0841C90.8158 28.8969 91.5155 30.206 91.5155 30.206C91.5155 30.206 91.3585 29.4403 91.3922 28.7806C91.4252 28.1204 91.5695 27.8446 91.9082 27.781C92.2475 27.7175 92.4992 27.5846 93.1093 28.1636C93.7352 28.7571 93.8089 29.4975 93.8509 29.657C93.8922 29.8165 93.9418 30.3566 93.7054 30.6782C93.5617 30.8695 93.3311 30.9489 93.1099 31.0709C92.9611 31.1655 92.8439 31.3022 92.7731 31.4636C92.6371 31.8049 92.9809 32.0254 92.9809 32.0254C92.9809 32.0254 93.4384 32.0985 94.4571 32.0477C95.4764 31.9975 96.321 32.3006 96.9946 33.6529C97.7318 35.1348 97.9618 37.408 98.0279 37.9869C98.094 38.5658 98.1194 39.5782 98.202 39.5782C98.2942 39.5782 98.3203 39.0857 98.3959 38.4921C98.7664 35.5619 99.2017 34.7326 99.6897 33.6078C100.178 32.483 100.909 32.293 101.509 32.2269C102.107 32.1608 102.697 32.2669 102.912 32.2491C103.181 32.2269 103.226 31.8831 103.283 31.6429C103.34 31.402 103.249 31.1701 102.867 31.0144C102.486 30.8587 102.258 30.0986 102.216 29.9588C102.175 29.819 102.245 29.2496 102.441 28.8474C102.637 28.4457 102.957 27.8204 103.777 27.8369C104.937 27.8598 104.568 29.5063 104.53 29.6671C104.491 29.8273 104.567 30.1647 104.687 30.1831C104.807 30.2016 105.133 29.1924 105.506 28.5887C105.88 27.9856 106.365 27.2529 107.045 27.286C107.725 27.3196 108.006 28.0949 107.663 29.6779C107.319 31.2609 106.83 31.9803 106.742 32.1481C106.629 32.3616 106.854 32.3279 106.854 32.3279C106.854 32.3279 107.011 32.2262 107.708 31.0925C108.067 30.5091 108.299 30.3477 108.64 30.464C108.981 30.581 108.971 31.6587 108.584 33.0015C108.198 34.3449 107.292 36.0347 107.035 36.2577C106.778 36.4802 106.811 36.7769 106.911 36.7966C107.012 36.8163 107.699 36.1084 108.979 34.1956C110.258 32.2834 110.609 29.4015 110.677 28.142C110.741 26.8812 110.61 25.8034 110.314 24.3265Z" fill="#003E27"/>
<path fill-rule="evenodd" clip-rule="evenodd" d="M95.6928 21.1117C95.4144 21.1028 95.4913 20.6993 95.6928 20.6993C95.8949 20.6986 95.9705 21.1206 95.6928 21.1117ZM99.1791 19.3603C99.6423 19.3686 99.1702 20.1261 99.1702 20.1261C99.1702 20.1261 98.745 19.352 99.1791 19.3603ZM96.9059 19.0654C96.9059 19.0654 97.0654 19.6208 96.897 19.6208C96.6028 19.6208 96.9059 19.0654 96.9059 19.0654ZM97.3501 19.9983C97.6634 19.9837 97.7899 20.1852 97.7931 20.3332C97.7969 20.5054 97.6056 20.5811 97.3266 20.5976C97.0445 20.6147 96.7038 20.522 96.7204 20.3536C96.7369 20.1852 97.0279 20.0136 97.3501 19.9983Z" fill="white" stroke="white" stroke-width="0.198595" stroke-miterlimit="2.613"/>
<path fill-rule="evenodd" clip-rule="evenodd" d="M108.85 28.8585C108.615 29.3522 108.311 30.015 108.2 29.9254C108.087 29.8352 108.806 28.3647 108.783 25.8158C108.762 23.2954 107.862 21.4036 107.579 20.8177C107.244 20.125 106.997 20.0672 106.997 20.0672C106.997 20.0672 107.073 22.9186 106.829 24.3338C106.357 27.074 105.661 28.2357 105.527 28.1855C105.393 28.1346 106.47 25.2216 106.414 22.9535C106.372 21.2549 106.465 20.3398 106.156 19.3834C105.846 18.427 105.684 18.2376 105.684 18.2376C105.684 18.2376 105.628 18.0736 105.022 19.4393C104.416 20.805 103.916 23.6774 103.664 24.3796C103.411 25.0811 103.126 25.5374 102.647 25.6423C102.168 25.7471 101.784 25.5724 101.541 25.2553C101.298 24.9375 100.885 24.0091 100.789 24.0428C100.693 24.0764 100.863 25.6944 100.71 26.3559C100.557 27.0168 100.194 28.1518 100.194 28.1518C100.194 28.1518 100.873 28.1296 101.014 28.2084C101.155 28.2865 101.741 28.6183 101.833 29.8365C101.926 31.0553 101.979 31.0604 101.979 31.0604C101.979 31.0604 102.248 31.1678 102.579 31.3184C102.881 31.4557 102.958 31.7232 102.908 31.7645C102.857 31.8065 101.103 31.8014 100.958 31.6775C100.911 31.6381 100.859 31.3858 100.896 31.1837C100.995 30.6366 100.857 30.1472 100.239 30.1396C99.3995 30.1288 99.0938 31.1837 98.7837 32.5023C98.8631 32.1643 98.1984 36.0566 98.1285 36.0452C98.0579 36.0337 97.8317 35.1707 97.4314 33.2357C97.0316 31.3013 96.6014 30.1479 95.9615 30.1479C95.4003 30.1479 95.0496 30.6798 95.0407 30.9479C95.0349 31.1202 95.1309 31.1519 95.2205 31.2765C95.3126 31.4036 95.4258 31.5593 95.3717 31.6057C95.2656 31.6953 93.1908 31.6139 93.1908 31.6139C93.1908 31.6139 93.1132 31.4779 93.4913 31.2746C93.8695 31.0712 94.0525 31.1551 94.109 30.8139C94.1656 30.4739 94.2323 29.2531 94.4566 28.7708C94.632 28.3933 94.6816 28.1982 95.007 28.1645C95.3215 28.1315 95.6132 28.1416 95.6132 28.1416C95.6132 28.1416 95.3323 27.4655 95.0858 26.8287C94.7935 26.0738 94.9288 25.6162 94.9288 25.6162C94.9288 25.6162 93.9171 25.8806 93.5365 25.7846C93.1552 25.6887 92.5368 25.7122 91.9916 23.2389C91.447 20.7649 91.4069 20.0792 90.8979 19.2048C90.3889 18.331 90.3362 18.2954 90.3362 18.2954C90.3362 18.2954 89.9708 18.5242 89.7636 19.7659C89.5564 21.007 89.4852 21.4265 89.7077 23.5833C89.9301 25.7401 90.6679 28.1702 90.5611 28.1868C90.4544 28.2033 89.0912 25.1485 89.0677 22.9097C89.0448 20.6709 89.3035 20.0354 89.1014 20.0576C88.9 20.0805 88.2943 20.885 87.5546 23.2637C86.7221 25.9308 87.4174 28.4225 87.3386 28.0292C87.2598 27.6364 87.9111 30.0335 87.8101 30.0614C87.7091 30.0894 87.0513 28.453 86.8334 27.1986C86.6656 26.2104 86.6275 25.1008 86.7241 24.1915C86.9789 21.7868 88.1596 19.9591 88.7907 19.0936C89.4211 18.2274 89.416 18.202 89.4935 17.9809C89.5717 17.7603 89.5984 17.4559 89.8977 17.386C90.197 17.3161 91.1902 18.3761 91.8848 20.0239C92.5813 21.6749 93.0166 22.89 93.443 23.2268C93.9591 23.6348 94.097 23.6748 94.2768 23.6729C94.4566 23.671 94.681 23.6443 95.1182 23.4206C95.4391 23.2548 95.8318 22.9758 96.1508 22.9319C96.4699 22.8881 96.5188 22.9415 96.8359 22.7184C97.1536 22.4947 96.8778 21.9463 97.0043 21.8961C97.1308 21.8452 97.336 22.5481 97.2178 22.7298C97.0996 22.911 96.9064 23.0775 96.5105 23.3806C96.114 23.685 95.8255 24.5708 95.9043 25.4129C96.0447 26.9139 96.4006 27.5894 96.5442 27.9281C96.6878 28.2662 96.7965 28.7816 96.6897 28.8375C96.583 28.8934 95.9844 28.7028 95.7238 28.725C95.4645 28.7479 95.0616 28.8261 94.9047 29.466C94.7788 29.9756 94.9161 30.207 94.9161 30.207C94.9161 30.207 95.4931 29.6001 96.2125 29.5925C96.9319 29.5848 97.3182 30.4262 97.5877 31.3635C97.8139 32.1496 98.0255 34.1082 98.1043 34.1031C98.1831 34.098 98.2696 31.4481 98.6203 30.6455C98.9718 29.8422 98.968 29.5334 99.5297 27.7483C100.091 25.9632 100.001 25.3341 99.8437 24.5486C99.6842 23.7479 99.639 23.2268 99.639 23.2268C99.639 23.2268 100.01 22.9554 100.54 23.1677C101.021 23.3602 101.383 23.6824 101.912 23.5973C102.691 23.4695 102.706 23.0158 102.982 22.5525C103.257 22.0899 103.815 20.5076 104.278 19.6083C105.219 17.7794 105.682 17.2729 106.064 17.2844C106.368 17.2933 106.467 17.6599 106.67 17.958C106.873 18.256 107.909 20.1358 108.257 20.9518C108.606 21.7671 109.415 23.7161 109.41 25.1549C109.405 26.5936 109.059 28.4225 108.85 28.8585Z" fill="white" stroke="white" stroke-width="0.198595" stroke-miterlimit="2.613"/>
<path fill-rule="evenodd" clip-rule="evenodd" d="M39.7229 63.1054C39.7229 62.149 38.994 61.4239 36.9286 61.4239V60.9371H44.6873C49.7667 60.9371 52.3938 63.1791 52.3938 66.5109C52.3938 68.8298 51.0663 70.3289 49.1827 71.1417V71.2078C52.0189 71.7353 54.7477 74.3344 54.7477 76.9215C54.7477 80.8793 52.0475 82.7705 47.3176 82.7705H36.9286V82.2729C39.6002 82.2729 39.7229 80.6181 39.7229 79.6617V63.1054ZM42.9778 79.635C42.9778 80.7897 43.6076 81.8033 46.0154 81.8033C49.4452 81.8033 51.4291 80.1879 50.896 76.3661C50.3819 72.6841 46.9998 71.8516 44.6269 71.8516H42.9778V79.635ZM44.9014 70.9174C46.1336 70.9174 48.8402 69.9445 48.8402 66.8274C48.8402 63.5223 46.785 61.8096 44.9872 61.8096C43.3172 61.8096 43.0198 61.6813 43.0198 62.8359V70.9168L44.9014 70.9174ZM73.3286 78.6347C73.9228 79.9871 74.4414 82.4159 76.2887 82.3167V82.7718H68.2822V82.36C71.086 82.2278 70.3323 80.3906 69.6047 78.4524L67.9353 74.0993H60.7765C59.9167 76.9011 58.5644 79.5403 58.5644 80.7604C58.5644 81.849 58.816 82.2742 60.3577 82.2742V82.7718H54.8252V82.2742C57.6169 82.2742 57.7452 79.4056 58.9438 76.2377L64.4509 60.5323H66.5651L73.3286 78.6347ZM61.072 73.1181H67.5489L64.2094 64.3363L61.072 73.1181ZM115.162 78.6347C115.756 79.9871 116.274 82.4159 118.122 82.3167V82.7718H110.114V82.36C112.918 82.2278 112.164 80.3906 111.437 78.4524L109.767 74.0993H102.608C101.748 76.9011 100.396 79.5403 100.396 80.7604C100.396 81.849 100.648 82.2742 102.19 82.2742V82.7718H96.6579V82.2742C99.4496 82.2742 99.578 79.4056 100.776 76.2377L106.282 60.5323H108.397L115.162 78.6347ZM102.905 73.1181H109.382L106.042 64.3363L102.905 73.1181ZM96.2353 66.2656H95.8051C94.8633 63.0514 92.0793 60.9968 88.3197 60.9968C82.4021 60.9968 80.5357 66.2154 80.5357 72.1522C80.5357 75.7287 82.0195 79.3408 85.1023 80.9047C86.0002 81.3603 87.228 81.8783 88.3528 81.8783C91.4813 81.8783 93.9215 81.5891 96.0707 78.4517L96.4298 78.9099C94.6924 82.1026 91.2226 83.3621 88.056 83.3621C81.6242 83.3621 76.71 79.1114 76.71 71.8878C76.71 65.3245 81.9769 60.0118 87.9899 60.0118C93.5364 60.0118 95.244 63.0514 95.7625 60.5094H96.3319L96.2353 66.2656ZM122.043 63.561C122.043 62.9179 121.877 61.3762 119.568 61.3762V60.9212H128.275C131.552 60.9212 135.32 62.8347 135.32 66.6933C135.32 70.1898 132.773 71.7581 131.173 71.8357V71.9882C131.571 72.2132 132.176 72.2049 133.052 73.5458C133.582 74.3579 136.166 78.6506 137.162 79.9991C138.158 81.3476 138.479 82.0861 139.988 82.2786V82.7552H135.01C135.01 82.7552 134.03 81.7931 133.148 80.2241C129.936 74.5085 128.325 72.93 126.886 72.4858C126.41 72.339 125.349 72.4063 125.349 72.4063V79.86C125.349 81.7003 126.23 82.2144 127.787 82.2144V82.7552H119.567L119.641 82.2024C121.95 82.2024 122.042 80.5552 122.042 79.1647V63.561H122.043ZM125.327 71.3413C130.098 71.3413 131.768 70.1872 131.768 66.6253C131.768 63.0672 128.989 61.762 127.101 61.762C125.367 61.762 125.327 61.7829 125.327 63.6239V71.3413ZM141.139 82.7476V82.2392C143.547 82.2392 143.505 80.1987 143.505 79.2423V62.6853C143.505 61.7289 142.985 61.3896 141.139 61.3896V60.9142H149.064C157.508 60.9142 162.892 65.4999 162.892 71.8967C162.892 76.8281 160.543 80.6664 155.828 82.1966C154.141 82.7438 152.243 82.7476 149.913 82.7476H141.139ZM146.756 79.2423C146.756 81.2116 148.895 81.7785 149.621 81.8109C156.341 82.1108 158.825 78.0641 158.825 71.9291C158.825 65.4649 154.737 61.8172 148.636 61.8172C146.709 61.8172 146.756 61.903 146.756 63.8165V79.2423ZM170.677 80.064C170.677 81.0197 171.171 82.5945 173.909 82.5945V83.0927H164.08V82.5945C166.818 82.5945 167.312 81.0191 167.312 80.064V64.5181C167.312 63.5617 167.203 61.7575 164.466 61.7575V61.2593H173.524V61.7575C170.786 61.7575 170.677 63.5617 170.677 64.5181L170.677 80.064ZM172.452 87.4083C172.452 85.9644 173.6 84.8167 175.051 84.8167C176.502 84.8167 177.649 85.9644 177.649 87.4083C177.649 88.8527 176.502 90.0004 175.051 90.0004C173.6 90.0004 172.452 88.8534 172.452 87.4083ZM172.875 87.4083C172.875 87.6938 172.931 87.9766 173.04 88.2403C173.15 88.5041 173.31 88.7436 173.512 88.9452C173.715 89.1468 173.955 89.3064 174.219 89.415C174.483 89.5236 174.766 89.5789 175.051 89.5778C175.337 89.5788 175.62 89.5234 175.884 89.4148C176.148 89.3062 176.388 89.1466 176.59 88.945C176.792 88.7435 176.953 88.5039 177.062 88.2402C177.172 87.9765 177.228 87.6938 177.228 87.4083C177.229 87.1226 177.173 86.8396 177.063 86.5757C176.954 86.3117 176.794 86.072 176.591 85.8704C176.389 85.6687 176.149 85.5091 175.885 85.4006C175.62 85.2922 175.337 85.2372 175.051 85.2387C174.766 85.237 174.483 85.2919 174.218 85.4003C173.954 85.5086 173.713 85.6683 173.511 85.87C173.309 86.0717 173.148 86.3115 173.039 86.5755C172.93 86.8395 172.874 87.1225 172.875 87.4083ZM176.238 88.8851H175.757L175.011 87.5404H174.471V88.8851H174.049V85.9702H175.275C175.803 85.9702 176.277 86.129 176.277 86.7423C176.277 87.3155 175.888 87.5271 175.499 87.5404L176.238 88.8851ZM174.471 86.3928V87.1178H174.919C175.315 87.1178 175.855 87.1839 175.855 86.788C175.855 86.4188 175.546 86.3928 175.196 86.3928H174.471ZM29.4674 74.3325C30.2799 75.0171 31.1266 75.6599 32.0043 76.2587C32.5184 76.6126 32.8069 76.7404 33.2886 76.7079C33.7703 76.6762 34.2196 76.3235 34.252 75.8742C34.2837 75.4243 34.1471 74.6668 33.7703 73.9798C33.2244 72.9846 32.165 71.9564 32.165 71.9564C32.165 71.9564 33.5453 72.149 33.9952 71.4747C34.4452 70.8005 33.6425 69.3878 32.7751 68.5845C31.9083 67.7819 31.1699 67.461 31.1699 67.461C31.1699 67.461 31.33 66.9151 30.7524 66.1119C30.1741 65.3092 29.0505 64.1215 28.858 63.8324C28.6654 63.5432 28.3127 62.6122 29.2119 63.2547C30.1105 63.8972 32.519 65.5984 33.0001 65.8875C33.4818 66.1767 33.7067 66.3692 33.8351 66.4334C33.9635 66.4976 34.2526 66.4334 34.2526 66.2726V65.5018C34.2526 65.5018 32.4866 64.3141 31.6522 63.6398C30.8172 62.9649 30.0648 62.5487 29.5004 61.713C28.6336 60.4287 28.6038 59.5905 29.5004 60.2997C30.2713 60.9104 31.6198 62.163 32.1657 62.4197C32.7116 62.6764 33.4176 63.0622 33.9641 62.515C34.51 61.9698 34.0283 61.3273 33.675 60.7496C33.3216 60.172 32.1657 58.9194 31.7164 58.5026C31.2665 58.0844 30.2395 57.4102 30.2395 57.4102L30.1753 57.6669C30.1753 57.6669 31.3313 58.5019 32.1663 59.4323C33.0007 60.3639 33.4182 61.0699 33.579 61.3915C33.7398 61.7124 33.7074 62.1947 32.9689 61.5516C32.2305 60.9098 30.5604 59.5289 30.0787 59.2721C29.597 59.0154 28.185 59.1114 28.2168 60.0106C28.2485 60.9098 29.3403 62.2907 29.3403 62.2907C29.3403 62.2907 28.6654 62.1623 28.3127 62.5468C27.9594 62.9325 28.3445 63.7993 28.7296 64.281C29.1147 64.7621 30.0285 65.7058 30.3037 66.0788C30.753 66.6889 30.753 67.203 30.753 67.203C30.753 67.203 29.2437 66.368 28.4729 67.1706C27.7027 67.9738 28.6012 69.3217 28.9546 69.675C29.3079 70.0284 30.5922 71.0559 31.3631 71.7613C32.1333 72.468 33.4176 73.9455 33.5784 74.459C33.7391 74.9724 34.1242 76.6107 32.615 75.4541C31.1057 74.2982 30.6043 73.7962 29.9173 73.4632C28.858 72.9491 27.9905 73.3672 27.9905 73.3672C27.9905 73.3672 26.9312 68.8394 23.5593 68.8394C22.5298 68.8394 21.7685 69.269 21.2048 69.9089C20.9861 69.5387 20.7929 69.1539 20.6265 68.7574L20.3857 68.9455C20.6062 69.3789 20.7689 69.8047 20.9595 70.2171C19.8906 71.701 19.6739 73.9862 19.6739 75.0048C19.6739 75.123 19.6771 75.2425 19.6841 75.3639C18.7379 75.7935 17.6836 76.7493 17.6836 78.6017C17.6836 81.3629 19.707 82.9681 19.707 82.9681L19.8671 82.8397C19.8671 82.8397 18.0687 81.3305 18.0687 78.5693C18.0687 76.8357 18.9291 76.1023 19.7203 75.796C20.1258 79.4596 23.1939 84.4132 26.9305 84.4132C28.6 84.4132 28.6648 82.9363 28.6648 82.4871C28.6648 82.0371 28.2797 79.3084 25.8394 77.2208C23.3992 75.1345 21.6973 75.0697 20.8623 75.0697C20.6209 75.0767 20.3816 75.1169 20.1512 75.1891C20.1203 74.0976 20.2518 73.0074 20.5414 71.9545C20.692 71.4029 20.9049 70.9632 21.161 70.6219C21.2576 70.7986 21.365 70.9721 21.4914 71.1417L21.6331 71.3438C23.6845 74.4552 27.0678 76.7429 30.1016 78.8553C32.4942 80.5228 34.252 82.1966 33.6419 85.118C33.5294 85.6556 33.3521 86.0172 32.5177 86.0172C31.6827 86.0172 31.7469 85.6638 31.8111 85.3423C31.8753 85.0214 31.8111 84.5721 31.3294 84.5721C30.8153 84.5721 30.8795 84.9896 30.8795 85.3105C30.8795 85.6314 31.426 86.3375 32.4847 86.3375C33.612 86.3375 34.2189 85.3906 34.2189 83.8336C34.2189 82.421 33.0852 79.6916 30.7511 77.862C29.8068 77.1147 28.8059 76.4728 27.8075 75.8469C28.0852 75.7236 28.2708 75.3957 28.246 74.8758C28.2142 74.201 28.0534 73.9766 28.0534 73.9766C28.0534 73.9766 28.408 73.4333 29.4674 74.3325ZM30.474 69.6445C29.7038 69.002 28.4189 68.0603 28.8046 67.5042C29.0823 67.1026 29.618 67.0333 31.63 68.5312C33.6425 70.0296 33.8986 70.5437 33.5993 71.0146C33.2994 71.4849 31.2442 70.287 30.474 69.6445ZM20.8623 75.585C21.4724 75.585 23.4957 76.0667 25.4537 77.9929C27.4129 79.9197 28.2797 81.1074 28.2797 82.7457C28.2797 83.8692 27.4129 83.9982 26.9954 83.9982C26.5778 83.9982 24.395 84.0624 22.2756 81.2364C21.0535 79.6193 20.3248 77.6835 20.1772 75.6619C20.4638 75.5984 20.7117 75.585 20.8623 75.585ZM27.1282 75.4236C25.1791 74.201 23.2879 72.9605 21.8899 71.0254L21.771 70.8202C21.6602 70.6493 21.5509 70.4775 21.4431 70.3048C22.6347 69.1647 24.5011 69.7163 25.8388 71.218C27.4122 72.984 27.5082 73.7873 27.5082 73.7873C27.5082 73.7873 27.2832 74.1399 27.1549 74.6858C27.0975 74.9276 27.0884 75.1783 27.1282 75.4236ZM27.7262 75.2959C27.62 75.3417 27.4809 75.3315 27.4459 75.1555C27.3754 74.8021 27.4885 74.5422 27.7058 74.0764L27.8425 74.5581C27.9257 74.9775 27.9155 75.2126 27.7262 75.2959Z" fill="white"/>
</svg>
