<svg width="195" height="100" viewBox="0 0 195 100" fill="none" xmlns="http://www.w3.org/2000/svg">
<g clip-path="url(#clip0_596_64545)">
<path d="M173.654 57.8864C173.844 58.2734 174.159 58.3078 174.307 58.7135C174.668 59.6702 174.447 60.3723 174.864 61.3027C175.277 62.2249 175.632 62.6913 176.214 63.4975C176.475 63.8628 176.95 64.0866 176.789 64.5087L177.046 64.5237C177.28 64.5185 177.417 64.4436 177.617 64.3321C177.676 64.3014 177.852 64.2804 177.876 64.3478C177.904 64.9047 177.755 65.1098 177.625 65.4759C178.08 66.1787 178.334 66.5044 178.896 67.0104C179.103 66.836 179.321 66.8502 179.528 66.6645C179.756 66.4579 179.699 66.1256 179.972 65.9751C180.201 65.8434 180.424 65.9534 180.668 65.8561V64.4144C180.616 64.4219 180.561 64.4242 180.503 64.4219C180.344 64.4114 180.221 64.4331 180.099 64.4534C179.977 64.4728 179.856 64.4945 179.701 64.4848C179.403 64.4743 179.344 64.0881 179.049 64.0738C178.681 64.0581 178.606 64.4698 178.277 64.6397C178.252 64.5858 178.245 64.3882 178.293 64.3126C178.44 64.0469 178.622 63.9024 178.63 63.5888C178.641 63.3642 178.509 63.1217 178.293 63.1112C177.835 63.0888 177.653 63.5252 177.191 63.5476C177.425 63.2108 177.546 62.7983 177.942 62.8193C178.093 62.829 178.169 62.8859 178.301 62.9435C178.394 61.9517 177.635 61.6538 177.362 60.8229C177.15 60.1799 177.481 59.1948 176.845 59.1627C176.209 59.1327 176.009 59.9576 175.977 60.6231C175.953 61.3117 175.993 61.7369 176.263 62.3589C176.324 62.5027 176.582 62.7519 176.429 62.7459C175.953 62.722 175.851 62.216 175.621 61.7796C175.151 60.9023 174.798 60.4082 174.536 59.4344C174.341 58.6716 174.309 57.9732 173.64 57.6409C173.617 57.722 173.622 57.8084 173.654 57.8864ZM164.482 55.7538C163.703 56.7209 162.969 57.212 162.278 58.3153C161.923 58.8767 162.031 59.3535 161.875 60.0122C161.689 60.7765 161.263 61.1485 161.264 61.9353C161.264 62.1613 161.479 62.2466 161.476 62.4809C161.149 62.3739 161.107 62.4869 161.063 62.5925C161.165 62.7467 161.511 63.5252 161.431 63.737C161.008 63.737 160.908 63.4615 160.757 63.1973C160.697 63.9406 159.989 64.1839 159.992 64.9272C159.992 65.1922 160.211 65.2895 160.408 65.4474C160.672 65.6495 160.832 65.8823 161.161 65.8763C161.656 65.7678 161.583 66.2491 161.808 66.4774C162.129 66.7985 162.464 66.7619 162.9 66.7985C163.453 66.8449 163.824 67.0036 164.346 66.7881C164.436 66.7514 164.604 66.812 164.604 66.705C164.599 66.059 163.89 66.0223 163.407 65.6473C162.928 65.264 163.001 64.627 162.469 64.3366C162.61 64.0626 162.726 63.8822 162.726 63.5686C162.717 62.7197 163.122 62.2796 163.587 61.5909C164.562 60.1582 165.135 59.3535 166.205 58.0129L166.203 57.6828C166.088 57.7831 165.948 57.8729 165.948 58.0294C165.951 58.4673 165.516 58.5099 165.124 58.6222C164.899 58.6851 164.92 59.0653 164.687 59.0653C164.409 59.0653 164.266 58.9029 163.985 58.9052C162.952 58.9104 162.661 60.0631 162.344 61.1044C162.138 60.632 162.134 60.2974 162.129 59.7652C162.125 58.8572 162.816 58.5017 163.361 57.813C163.955 57.0645 164.225 56.6715 164.561 55.753C164.751 55.4753 164.803 55.4454 164.759 55.3548C164.567 55.5277 164.513 55.7508 164.482 55.7538ZM176.397 43.5997C176.387 43.8797 176.41 44.2517 176.732 44.0967C175.329 45.4524 170.171 54.0598 168.49 57.0735C168.479 57.2367 176.617 45.0751 176.636 44.9456C176.757 44.12 177.651 44.617 177.676 43.95C177.699 43.4792 177.48 43.0473 177.041 43.0293L177.012 43.0286C176.724 43.0278 176.408 43.2561 176.397 43.5997ZM172.417 36.7086C172.624 37.3651 172.788 37.8966 173.381 38.178C173.393 37.8966 173.174 37.4579 173.437 37.4751C173.699 37.4849 173.747 37.7798 173.958 37.9355L174 36.9572C173.624 36.8254 173.544 36.9624 173.433 37.0859C173.184 36.8814 172.914 36.7049 172.627 36.5597C172.392 36.5926 172.399 36.6547 172.417 36.7086ZM170.295 35.7003C170.129 35.9945 169.413 36.2715 169.573 36.7026C169.667 36.9586 170.522 37.3943 170.602 38.1496C170.602 38.1496 170.002 36.8539 168.64 36.9923C168.106 37.0492 167.617 37.7536 167.617 37.7536C167.883 37.6907 167.543 38.2289 167.493 38.4243C167.308 39.1047 167.443 39.6729 167.58 40.0441C167.926 41.0083 169.001 42.1767 168.868 42.1258C169.232 42.8317 169.204 44.0473 168.749 44.0473C166.935 44.0601 166.704 44.8183 166.699 45.4059C166.641 46.165 166.907 46.3671 166.829 47.1126C166.779 47.6329 166.174 47.6418 165.695 47.7167C165.102 47.8043 164.726 47.9031 164.254 48.2961C164.038 48.478 163.791 48.57 163.776 48.8724C163.757 49.3066 164.149 49.4324 164.444 49.719C164.428 48.9338 164.716 48.585 165.165 48.2302L164.92 48.0573C165.055 47.9944 165.135 47.9038 165.281 47.9166C166.233 47.9592 166.609 48.7953 167.563 48.8365C168.326 48.8762 168.693 48.0767 169.063 47.2766C169.431 46.4779 169.8 45.6792 170.565 45.7151C171.735 45.7682 172.963 46.7503 172.963 46.7503C172.762 45.7263 173.567 45.2068 173.296 45.0481C172.827 44.7637 172.669 44.462 172.738 44.5287C173.062 44.8198 174.392 45.1522 174.211 44.8618C173.79 44.1746 174.669 44.3812 174.982 43.6663C175.084 43.432 175.234 43.1528 174.872 42.8968C174.475 42.6109 174.149 42.6431 174.179 42.4013C174.432 42.5353 174.496 42.5136 174.496 42.5136C174.96 42.31 174.923 41.7403 175.202 41.777C175.742 41.8002 175.655 42.1034 176.182 42.2246C176.304 42.2516 176.35 42.2104 176.406 42.1707C176.439 42.1456 176.476 42.1272 176.515 42.1165C176.555 42.1059 176.596 42.1032 176.637 42.1086C176.87 42.1198 176.983 42.2718 177.221 42.2965C177.748 42.3601 178.006 42.0734 177.956 41.4559C177.941 41.2381 177.662 40.7725 177.393 40.5419C176.636 39.8884 176.178 39.7604 175.976 39.4371C176.352 39.4191 176.817 38.7851 176.566 38.4857C176.247 38.1077 175.953 37.8367 176.221 37.6735C176.221 37.6735 176.045 37.395 175.822 37.3741C175.18 37.3097 175.72 38.1795 175.861 38.3584C175.878 38.4303 175.783 38.4176 175.618 38.4048C175.407 38.3828 175.194 38.3947 174.987 38.44C174.535 38.5478 174.759 38.9123 174.759 38.9123C174.944 39.2761 175.425 39.601 175.397 40.2043C175.384 40.4528 175.352 40.7103 175.145 40.8144C174.762 40.7029 173.338 38.9453 172.714 38.2065C171.804 37.1271 170.726 36.1435 170.657 34.6696C170.592 35.3171 170.356 35.5918 170.295 35.7003ZM172.343 29.5488C171.696 29.5511 170.829 29.6259 170.836 30.3161C170.836 30.5668 171.008 30.6821 171.198 30.8288C171.218 30.6739 171.642 29.9014 172.14 29.9014C172.568 29.9014 172.875 30.1132 173.114 30.4718C172.942 30.3617 172.333 30.4546 172.193 30.8191C171.934 31.5175 172.579 32.3948 172.888 32.656C172.844 32.683 172.471 32.5527 172.298 32.4389C171.801 32.1153 171.219 31.9449 170.626 31.9487C170.003 31.9487 169.434 32.0243 169.441 32.68C169.445 33.0402 169.59 33.3845 169.846 33.638C170.102 33.8916 170.448 34.0339 170.808 34.0341C170.97 34.0341 171.038 33.8694 171.198 33.8694C171.334 33.8694 171.392 33.966 171.503 34.0281C171.308 33.6875 171.144 33.4817 171.14 33.076C171.14 32.8881 171.204 32.7765 171.293 32.6156C171.293 32.6156 171.633 32.5961 171.91 32.6066C173.192 32.6478 173.477 34.1217 174.7 34.1157C175.12 34.1134 175.379 33.8754 175.622 33.5071C175.348 33.329 175.18 33.4008 174.898 33.4008C174.609 33.4083 174.424 33.3394 174.179 33.189C174.403 32.1964 175.464 32.3461 175.322 31.7675C175.234 31.3925 175.015 30.9958 174.803 30.6971C174.175 29.8827 173.363 29.5488 172.371 29.5488H172.343ZM16.3499 56.5413V56.6318L17.5925 57.4268L17.6778 66.2326C17.6838 66.5642 17.6778 66.8696 17.6673 67.1421C17.6531 67.4116 17.6299 67.6586 17.5895 67.8854C17.5526 68.1026 17.4854 68.3135 17.3896 68.5119C17.2989 68.7177 17.1775 68.9085 17.0296 69.0778C16.8332 69.309 16.593 69.499 16.323 69.637C16.0454 69.7783 15.7359 69.8451 15.4247 69.8309C15.4626 69.7928 15.4924 69.7475 15.5123 69.6976C15.5769 69.5813 15.6107 69.4504 15.6103 69.3174C15.6064 69.228 15.5851 69.1403 15.5475 69.0591C15.5003 68.9722 15.442 68.8919 15.3738 68.8203C15.3015 68.747 15.2159 68.6881 15.1215 68.6467C15.0291 68.5991 14.9268 68.574 14.8229 68.5733C14.7171 68.5723 14.6122 68.5923 14.5142 68.6323C14.4163 68.6723 14.3273 68.7314 14.2525 68.8061C14.1757 68.8835 14.1147 68.975 14.0728 69.0756C14.0222 69.1784 13.9973 69.2919 14.0002 69.4065C14.0002 69.5891 14.0436 69.7493 14.1282 69.878C14.2128 70.0128 14.3236 70.1206 14.4523 70.2014C14.5863 70.2867 14.7353 70.3474 14.897 70.393C15.0647 70.4327 15.2181 70.4514 15.3641 70.4514C15.6912 70.4514 16.0003 70.3983 16.2975 70.2995C16.5894 70.1984 16.8574 70.0584 17.1097 69.872C17.3604 69.6916 17.591 69.4716 17.8036 69.2186C18.0192 68.9633 18.2048 68.6811 18.3642 68.3735C18.5012 68.11 18.63 67.8525 18.7505 67.6032C19.0046 67.0693 19.1695 66.4973 19.2385 65.91C19.2782 65.5822 19.2969 65.2049 19.2947 64.7715C19.2782 64.3298 19.2737 63.8687 19.2647 63.3919C19.2542 62.9099 19.2438 62.3746 19.2385 61.787C19.2258 61.1994 19.2228 60.543 19.2093 59.8146C19.2025 58.9835 19.1987 58.1524 19.1981 57.3212L20.2423 56.6318V56.5413H16.3499ZM26.301 66.3696C25.9338 66.1924 25.6086 65.9387 25.3474 65.6256C25.0764 65.2962 24.8586 64.898 24.6939 64.4197C24.5297 63.8933 24.4491 63.3444 24.4551 62.7931C24.4551 62.2414 24.524 61.7324 24.658 61.2683C24.792 60.8065 24.9821 60.4075 25.2306 60.0714C25.4751 59.7465 25.7872 59.4786 26.1453 59.2862C26.5229 59.0904 26.9432 58.9917 27.3684 58.9987C27.8243 58.9987 28.236 59.0915 28.6005 59.2824C28.9628 59.4688 29.275 59.7323 29.5242 60.0661C29.769 60.4045 29.9651 60.8027 30.1036 61.2646C30.2391 61.7249 30.3057 62.2362 30.3057 62.7849C30.3057 63.4204 30.2219 63.9758 30.061 64.4534C29.9 64.9279 29.6844 65.3269 29.4127 65.654C29.1477 65.9774 28.8438 66.2177 28.4987 66.3831C28.1689 66.5425 27.8074 66.6256 27.4411 66.6264C27.0467 66.6268 26.6571 66.5391 26.301 66.3696ZM25.697 58.7038C25.1584 58.9225 24.6669 59.2427 24.2493 59.647C23.8349 60.045 23.5047 60.5223 23.2784 61.0505C23.0464 61.5991 22.929 62.1893 22.9333 62.7849C22.9333 63.3987 23.0561 63.9728 23.2896 64.5117C23.519 65.0402 23.8505 65.5182 24.265 65.9182C24.6801 66.3232 25.1693 66.6445 25.7059 66.8644C26.2615 67.0997 26.8594 67.2189 27.4628 67.2147C28.0915 67.2147 28.6799 67.0957 29.2241 66.8614C29.751 66.6365 30.2301 66.3131 30.6358 65.9085C31.0334 65.5017 31.3506 65.0235 31.5708 64.499C31.7841 63.9863 31.9001 63.4436 31.9091 62.8649V62.7092C31.9036 62.3234 31.8441 61.9401 31.7324 61.5707C31.6248 61.1944 31.4648 60.8351 31.2571 60.5033C31.0584 60.1778 30.8173 59.8803 30.54 59.6185C30.2644 59.3575 29.9589 59.1301 29.6298 58.9411C29.308 58.7554 28.9639 58.6115 28.6058 58.5129C28.2494 58.4148 27.8818 58.3637 27.5122 58.361C26.8906 58.3567 26.2741 58.4732 25.697 58.7038ZM40.3063 58.709V58.8026L41.2389 59.4718V62.2309C39.7748 62.2466 38.3286 62.2466 36.9004 62.2309V59.4718L37.8263 58.8026V58.709H34.5559V58.8026L35.4856 59.4718V66.1204L34.5559 66.7813V66.8749H37.8263V66.7813L36.9004 66.1204L36.9056 62.9099C38.3286 62.8867 39.7748 62.8867 41.2389 62.9099V66.1204L40.3063 66.7813V66.8711L43.5736 66.8749V66.7806L42.6507 66.1204C42.623 63.9043 42.623 61.6879 42.6507 59.4718L43.5736 58.8026V58.709H40.3063ZM52.2582 58.709V58.8026L53.3414 59.6095C53.3593 60.3858 53.3788 61.2204 53.3878 62.1231C53.3998 63.0244 53.405 63.9885 53.3998 65.02C52.8055 64.226 52.1993 63.4409 51.5815 62.6651C51.0284 61.9802 50.5426 61.3746 50.1204 60.8566C49.7653 60.422 49.413 59.9851 49.0634 59.5459C48.776 59.1948 48.5739 58.9164 48.4526 58.7113L46.0191 58.709V58.8026L47.1577 59.5863C47.2475 62.219 47.2475 64.3688 47.1577 66.029L46.207 66.8105V66.8973H49.0043V66.8105L47.9466 66.029H47.9579C47.8899 64.1335 47.8562 62.2369 47.8568 60.3401L52.7081 66.4243C52.7777 66.5231 52.8503 66.6166 52.9222 66.7117C53.003 66.8105 53.0419 66.8929 53.0382 66.964H54.164C54.0885 65.8312 54.0483 64.6964 54.0435 63.5611C54.0345 62.3492 54.0562 61.031 54.0996 59.6095L55.0593 58.8026V58.709H52.2582ZM63.5874 58.709V58.8026L64.6765 59.6095C64.6952 60.3858 64.7132 61.2204 64.7192 62.1231C64.7357 63.0244 64.7357 63.9885 64.7402 65.02C64.1431 64.227 63.5354 63.4419 62.9175 62.6651C62.3643 61.9802 61.88 61.3746 61.4563 60.8566C61.0334 60.3356 60.6756 59.9 60.3964 59.5459C60.176 59.2811 59.973 59.0023 59.7886 58.7113H57.3536V58.8026L58.4966 59.5863C58.5857 62.219 58.5857 64.3688 58.4966 66.029L57.5399 66.8105V66.8973H60.3402V66.8105L59.2825 66.029L59.293 66.0313C59.2264 64.103 59.1867 62.2062 59.192 60.3401L64.0448 66.4243C64.1189 66.5231 64.1877 66.6166 64.2626 66.7117C64.3389 66.8105 64.3749 66.8951 64.3719 66.964H65.4962C65.4258 65.831 65.3867 64.6962 65.3787 63.5611C65.3689 62.3492 65.3936 61.031 65.4296 59.6095L66.3892 58.8026V58.709H63.5874ZM68.923 58.709V58.8026L69.8699 59.4636C69.8871 61.6321 69.8871 63.8538 69.8699 66.1204L68.8833 66.7813V66.8749H72.2675V66.7806L71.2832 66.1204C71.2345 63.9017 71.2345 61.6822 71.2832 59.4636L72.2233 58.8026V58.709H68.923ZM74.8769 58.709V58.8026L75.8148 59.4718C75.8366 61.3491 75.8366 63.5671 75.8178 66.1204L74.8859 66.7813V66.8749H81.4641V65.0874H81.3743L80.5763 66.1945C79.4614 66.2476 78.3445 66.2476 77.2296 66.1945C77.2079 65.1166 77.2079 64.0312 77.2296 62.954C77.8419 62.9353 78.7012 62.9271 79.8023 62.9271L80.4363 63.8687L80.5239 63.871V61.3282H80.4363L79.8023 62.2818C78.3457 62.2818 77.4886 62.2736 77.2131 62.2549C77.1982 61.784 77.1922 61.3155 77.1862 60.8491C77.1862 60.3813 77.1862 59.9037 77.1989 59.4246C77.7313 59.3943 78.2645 59.3806 78.7978 59.3835C79.3502 59.3835 79.9236 59.388 80.5344 59.3992L81.2051 60.3102H81.2949V58.7105H74.8769V58.709ZM101.674 56.5413V56.6318C101.823 56.7351 101.982 56.8467 102.15 56.9604C102.312 57.0705 102.466 57.1873 102.609 57.3033C102.298 58.3714 102.019 59.3393 101.776 60.2031C101.521 61.0692 101.312 61.8192 101.127 62.4637C100.947 63.1015 100.799 63.6277 100.688 64.0342C100.572 64.4429 100.5 64.7318 100.462 64.8875L98.1888 57.3946C98.3475 57.2344 98.4964 57.0892 98.6446 56.9604C98.7936 56.8272 98.9373 56.7224 99.0698 56.6318V56.5413H95.4454V56.6505L96.3496 57.3534C96.1101 58.1431 95.881 58.8842 95.6699 59.5863C95.4499 60.2817 95.2575 60.9419 95.0786 61.5587C94.8929 62.177 94.7283 62.7587 94.5681 63.2984C94.4234 63.8079 94.2852 64.3191 94.1534 64.8321L91.9931 57.3654L92.8779 56.6318V56.5413H89.4031V56.6318C89.5521 56.7591 89.6741 56.8631 89.7811 56.9432C89.8807 57.0226 89.966 57.0922 90.0304 57.1551C90.0985 57.2135 90.1494 57.2688 90.1884 57.3227C90.2286 57.3723 90.2563 57.4309 90.2692 57.4934C90.383 57.852 90.5454 58.3565 90.7528 59.0002L91.4751 61.2294C91.7468 62.0663 92.0447 62.9832 92.3584 63.9743C92.6833 64.9948 92.9994 66.0181 93.3068 67.0441H94.458C94.4386 67.0141 94.4318 66.9714 94.4386 66.9146C94.4433 66.8497 94.4523 66.7851 94.4655 66.7214C94.4812 66.6526 94.5 66.5837 94.5164 66.5148L94.5681 66.3195C94.6676 65.9721 94.7642 65.5874 94.8765 65.1592C94.9932 64.7393 95.116 64.2947 95.2425 63.8253C95.3698 63.3575 95.5067 62.8792 95.6467 62.3964C95.786 61.9106 95.9184 61.4292 96.0584 60.9584C96.1917 60.4883 96.3272 60.034 96.4596 59.5961C96.5929 59.1552 96.7089 58.751 96.8287 58.3707L99.5309 67.0441L100.648 67.0403C100.687 66.8599 100.776 66.5178 100.925 66.0051C101.072 65.4961 101.263 64.8374 101.505 64.0244C101.747 63.2145 102.028 62.2571 102.358 61.153C102.693 60.0444 103.06 58.7981 103.479 57.4185C103.713 57.2007 103.91 57.0241 104.048 56.8908C104.191 56.7576 104.292 56.67 104.355 56.6258V56.5413H101.674ZM109.385 59.7375L110.736 63.2138H108.115L109.385 59.7375ZM109.163 58.5286L106.313 66.0133L105.394 66.7806V66.8741H108.135V66.7806L107.09 66.0133L107.885 63.8268C108.915 63.8216 109.944 63.8216 110.973 63.8268L111.819 66.0133L110.767 66.7806V66.8741H114.341V66.7798L113.404 65.9706L110.332 58.5286H109.163ZM116.304 58.7203V58.8138L117.242 59.4718C117.271 61.6426 117.271 63.8553 117.242 66.1204L116.304 66.7813V66.8749H122.571V65.0664L122.466 65.0687L121.697 66.163C121.111 66.16 120.566 66.16 120.069 66.16C119.567 66.16 119.109 66.1525 118.685 66.1398C118.653 63.9175 118.653 61.6949 118.685 59.4726L119.715 58.8108V58.718L116.304 58.7203ZM124.689 58.709V58.8026L125.637 59.4636C125.657 61.6463 125.657 63.8613 125.639 66.1204L124.658 66.7813V66.8749H128.032V66.7813L127.054 66.1204C127.026 63.9015 127.024 61.6824 127.05 59.4636L127.99 58.8026V58.709H124.689ZM129.998 58.709V58.8026L130.411 59.4329C130.12 59.7188 129.827 60.0063 129.531 60.2907C129.236 60.5722 128.947 60.8484 128.649 61.1171C128.362 61.3821 128.085 61.6396 127.815 61.8814C127.544 62.1231 127.288 62.3492 127.05 62.5513C127.987 63.5049 129.085 64.7049 130.344 66.1466L129.998 66.7813V66.8749H132.982V66.7806L132.337 66.1466C130.567 64.3291 129.302 62.9899 128.547 62.1284C129.27 61.4465 129.877 60.8783 130.373 60.4292C130.742 60.0937 131.119 59.7665 131.503 59.4478L132.759 58.8026V58.709H129.998ZM135.105 58.709V58.8026L136.043 59.4718C136.067 61.3491 136.067 63.5641 136.043 66.1204L135.105 66.7813V66.8749H141.69V65.0874H141.605L140.805 66.1945C139.69 66.2476 138.574 66.2476 137.46 66.1945C137.436 65.1166 137.436 64.0312 137.46 62.954C138.073 62.9353 138.927 62.9271 140.027 62.9271L140.664 63.8687H140.755V61.3274H140.66L140.032 62.2811C138.569 62.2811 137.716 62.2728 137.445 62.2541C137.428 61.7857 137.419 61.3171 137.418 60.8484C137.409 60.3805 137.418 59.903 137.43 59.4239C137.939 59.3917 138.475 59.379 139.028 59.3827C139.573 59.3827 140.156 59.3872 140.755 59.3984L141.437 60.3094H141.526V58.7098L135.105 58.709ZM147.568 62.731C147.49 62.731 147.413 62.731 147.318 62.7295C147.229 62.7272 147.146 62.7272 147.063 62.7235C146.979 62.7182 146.897 62.7167 146.834 62.7078L146.849 59.3655C146.973 59.3543 147.095 59.3446 147.228 59.3393C147.358 59.3341 147.48 59.3303 147.599 59.3273C147.718 59.3221 147.828 59.3221 147.925 59.3221H148.131C148.417 59.3176 148.667 59.3603 148.891 59.4419C149.114 59.5272 149.304 59.6462 149.453 59.7952C149.609 59.9416 149.731 60.1195 149.811 60.3169C149.896 60.5158 149.939 60.7301 149.938 60.9464C149.938 61.5206 149.749 61.96 149.375 62.2721C149.008 62.5775 148.466 62.7302 147.759 62.7302C147.726 62.7302 147.687 62.7339 147.641 62.7339C147.617 62.7348 147.592 62.7338 147.568 62.731ZM144.495 58.8026L145.431 59.4868V66.1196L144.448 66.7806V66.8741H147.79V66.7806L146.866 66.1458L146.827 63.3216C147.023 63.3111 147.202 63.3088 147.369 63.3058C147.531 63.3058 147.646 63.3058 147.73 63.3088C147.897 63.3088 148.03 63.332 148.136 63.3799C148.253 63.4442 148.35 63.5385 148.418 63.6532L150.348 66.8741H152.214V66.7806C152.149 66.7399 152.089 66.6914 152.035 66.6361C151.95 66.5579 151.869 66.4763 151.79 66.3913C151.709 66.2993 151.617 66.2057 151.541 66.1091C151.468 66.0295 151.401 65.9445 151.341 65.8546L150.05 63.8351C149.906 63.5978 149.749 63.4151 149.566 63.2886C149.38 63.1546 149.151 63.0753 148.869 63.0491C149.258 63.0311 149.615 62.969 149.944 62.859C150.253 62.7613 150.543 62.6095 150.799 62.4106C151.029 62.2318 151.219 62.0075 151.358 61.7519C151.496 61.4936 151.561 61.2152 151.561 60.9075C151.561 60.5826 151.483 60.2907 151.328 60.025C151.177 59.7562 150.954 59.5257 150.669 59.3273C150.352 59.1183 150.003 58.9642 149.635 58.8715C149.199 58.7581 148.751 58.7035 148.301 58.709H147.053L144.496 58.7068L144.495 58.8026ZM152.656 57.2718H152.945C153.144 57.2718 153.289 57.3392 153.289 57.5001C153.289 57.7067 153.137 57.7382 152.923 57.7382H152.656V57.2718H152.656ZM152.433 57.0682V58.614H152.656V57.9425H152.888L153.314 58.614H153.57L153.138 57.9403C153.332 57.9081 153.514 57.7883 153.514 57.5001C153.514 57.212 153.346 57.0682 153.005 57.0682H152.433ZM151.82 57.8407C151.82 57.2374 152.316 56.7306 152.909 56.7306C153.503 56.7306 153.999 57.2382 153.999 57.8407C153.999 58.4456 153.503 58.9493 152.909 58.9493C152.316 58.9493 151.82 58.4456 151.82 57.8407ZM151.596 57.8407C151.596 58.5676 152.182 59.1537 152.909 59.1537C153.622 59.1537 154.201 58.59 154.222 57.8826V57.7988C154.212 57.4579 154.069 57.1346 153.823 56.8975C153.578 56.6603 153.251 56.528 152.909 56.5285C152.737 56.528 152.566 56.5616 152.406 56.6274C152.247 56.6931 152.102 56.7897 151.98 56.9117C151.858 57.0336 151.761 57.1784 151.695 57.3379C151.629 57.4973 151.595 57.6682 151.596 57.8407Z" fill="white"/>
</g>
<defs>
<clipPath id="clip0_596_64545">
<rect width="166.667" height="40.9333" fill="white" transform="translate(14 29.5332)"/>
</clipPath>
</defs>
</svg>
