<svg width="195" height="100" viewBox="0 0 195 100" fill="none" xmlns="http://www.w3.org/2000/svg">
<g clip-path="url(#clip0_596_64614)">
<path d="M68.772 80.6093C69.6954 80.6093 70.5869 81.0927 71.0769 81.7717C71.0886 81.7893 71.1018 81.8054 71.1137 81.823C71.1324 81.8506 71.1562 81.8771 71.1732 81.9059L71.1742 81.9046C71.5024 82.309 72.0038 82.568 72.5676 82.568C73.5572 82.568 74.358 81.7707 74.358 80.7855C74.358 80.3242 74.1792 79.9059 73.8917 79.5889C72.66 78.0779 71.1932 77.2109 68.772 77.2109C64.9244 77.2109 62.0312 79.86 62.0312 83.5753C62.0312 87.3501 64.9244 90.0003 68.772 90.0003C71.2312 90.0003 72.677 89.1373 73.8917 87.7827L73.8896 87.782C74.1628 87.4732 74.3287 87.0698 74.3287 86.6275C74.3287 85.6624 73.5457 84.8811 72.5771 84.8811C72.0462 84.8811 71.573 85.1162 71.2516 85.4863C70.6752 86.0596 70.0101 86.6306 68.772 86.6306C67.0075 86.6306 66.0237 85.3622 66.0237 83.5753C66.0236 81.8481 67.0075 80.6093 68.772 80.6093Z" fill="white"/>
<path d="M132.574 78.1851C132.524 78.0841 132.448 78.0075 132.348 77.953C132.247 77.8986 132.127 77.8718 131.988 77.8718C131.869 77.8718 131.76 77.8967 131.662 77.9466C131.563 77.9967 131.471 78.0731 131.385 78.1757C131.325 78.0738 131.25 77.9984 131.158 77.9476C131.066 77.8975 130.956 77.8719 130.829 77.8719C130.706 77.8719 130.594 77.8968 130.493 77.9456C130.393 77.995 130.298 78.0718 130.21 78.1758V78.1285C130.21 78.0471 130.186 77.9837 130.14 77.9372C130.093 77.8916 130.034 77.8682 129.964 77.8682C129.892 77.8682 129.833 77.893 129.788 77.9427C129.744 77.9922 129.723 78.0649 129.723 78.1601V79.612C129.723 79.7176 129.746 79.7973 129.796 79.8509C129.845 79.905 129.909 79.9318 129.987 79.9318C130.066 79.9318 130.129 79.905 130.177 79.8507C130.225 79.7969 130.249 79.7174 130.249 79.6113V78.924C130.249 78.7105 130.276 78.5467 130.328 78.4321C130.381 78.3183 130.49 78.2607 130.655 78.2607C130.738 78.2607 130.798 78.2835 130.836 78.3292C130.875 78.3743 130.898 78.4321 130.907 78.5031C130.915 78.5738 130.919 78.6734 130.919 78.8015V79.6114C130.919 79.7181 130.944 79.7983 130.992 79.852C131.04 79.9055 131.103 79.9319 131.18 79.9319C131.261 79.9319 131.325 79.9055 131.374 79.852C131.423 79.7983 131.447 79.7181 131.447 79.6114V78.9352C131.447 78.7184 131.466 78.566 131.503 78.4807C131.537 78.4138 131.584 78.3604 131.644 78.3203C131.704 78.2809 131.768 78.2608 131.835 78.2608C131.919 78.2608 131.981 78.2833 132.022 78.3282C132.063 78.3729 132.088 78.4284 132.097 78.4937C132.107 78.5599 132.111 78.647 132.111 78.7567V79.6114C132.111 79.7175 132.136 79.7969 132.185 79.8507C132.235 79.9051 132.297 79.9319 132.374 79.9319C132.454 79.9319 132.517 79.9055 132.567 79.852C132.615 79.7983 132.64 79.7181 132.64 79.6119V78.6194C132.64 78.4218 132.618 78.2769 132.574 78.1851Z" fill="white"/>
<path d="M123.426 82.078C121.749 81.7021 120.967 81.6165 120.967 80.9249C120.967 80.4362 121.401 80.2057 122.297 80.2057C123.224 80.2057 124.091 80.6374 124.671 81.126L124.673 81.1238C124.945 81.3788 125.31 81.5372 125.711 81.5372C126.556 81.5372 127.239 80.8559 127.239 80.015C127.239 79.5674 127.039 79.166 126.729 78.8879C125.718 77.8648 124.279 77.2109 122.269 77.2109C119.637 77.2109 117.495 78.3345 117.495 81.0979C117.495 83.6628 119.376 84.5837 121.054 85.0171C123.05 85.535 123.83 85.535 123.83 86.1978C123.83 86.7168 123.426 86.9472 122.154 86.9472C121.158 86.9472 120.228 86.5831 119.453 85.9683L119.489 86.0019C119.488 86 119.487 86 119.485 85.9982C118.863 85.4338 117.902 85.459 117.316 86.0676C116.838 86.5644 116.764 87.2904 117.071 87.8665C117.081 87.8852 117.093 87.9053 117.105 87.9267C117.133 87.9743 117.161 88.0194 117.195 88.0651C117.218 88.098 117.247 88.1271 117.273 88.1572C117.302 88.19 117.327 88.2285 117.36 88.2591C117.385 88.2825 117.414 88.2992 117.44 88.3219C118.513 89.2814 120.062 90.0002 122.414 90.0002C126.289 90.0002 127.474 88.1585 127.474 85.9104C127.474 83.3171 125.219 82.4807 123.426 82.078Z" fill="white"/>
<path d="M129.364 79.5118C129.336 79.5118 129.295 79.5168 129.245 79.5277C129.193 79.5377 129.153 79.5431 129.123 79.5431C129.068 79.5431 129.029 79.5299 129.005 79.503C128.98 79.4765 128.965 79.4417 128.96 79.399C128.954 79.3565 128.951 79.2953 128.951 79.2154V78.2818H129.047C129.148 78.2818 129.225 78.2682 129.279 78.2406C129.332 78.2135 129.36 78.1656 129.36 78.097C129.36 78.0436 129.341 77.9994 129.303 77.9651C129.265 77.9311 129.21 77.9142 129.138 77.9142H128.951V77.5671C128.951 77.4821 128.947 77.4158 128.937 77.3693C128.929 77.3228 128.906 77.2836 128.871 77.2511C128.82 77.2027 128.762 77.1787 128.698 77.1787C128.651 77.1787 128.61 77.1889 128.573 77.2113C128.535 77.2328 128.507 77.2608 128.487 77.2963C128.468 77.3295 128.456 77.3697 128.451 77.4158C128.447 77.4627 128.445 77.5269 128.445 77.6085V77.9141H128.389C128.312 77.9141 128.253 77.931 128.212 77.965C128.172 77.9994 128.152 78.0436 128.152 78.0969C128.152 78.1505 128.171 78.1947 128.21 78.2298C128.248 78.2648 128.304 78.2817 128.378 78.2817H128.445V79.2545C128.445 79.4118 128.457 79.5368 128.483 79.6313C128.507 79.7252 128.562 79.7984 128.643 79.8518C128.725 79.9053 128.845 79.9317 129.003 79.9317C129.172 79.9317 129.3 79.9108 129.389 79.8669C129.479 79.8243 129.524 79.7624 129.524 79.6806C129.524 79.633 129.507 79.5928 129.474 79.5606C129.442 79.5282 129.405 79.5118 129.364 79.5118Z" fill="white"/>
<path d="M85.4255 77.9997C84.8259 77.6837 84.3964 77.619 83.5036 77.6931C81.8927 77.8281 80.644 78.9537 80.415 79.2364V79.3193C80.4143 79.2925 80.4105 79.2687 80.4085 79.2436H80.4072V79.2348C80.3287 78.205 79.4709 77.3945 78.4163 77.3945C77.3284 77.3945 76.4455 78.2587 76.418 79.336V88.0299C76.4533 89.0998 77.3336 89.9549 78.4153 89.9549C79.5093 89.9549 80.3974 89.0828 80.415 87.9961V85.6308C80.415 82.4067 82.2863 81.5934 83.3354 81.5721C83.6128 81.5652 84.3245 81.8368 84.8814 81.7355C85.9694 81.5364 86.6892 80.4978 86.4896 79.4166C86.3726 78.7801 85.9631 78.2724 85.4255 77.9997Z" fill="white"/>
<path d="M109.74 80.6094C110.663 80.6094 111.557 81.0928 112.045 81.7717C112.058 81.7901 112.071 81.8064 112.083 81.8248C112.102 81.8519 112.125 81.8784 112.142 81.9059L112.143 81.9046C112.472 82.309 112.973 82.568 113.537 82.568C114.525 82.568 115.326 81.7707 115.326 80.7855C115.326 80.3229 115.149 79.9032 114.858 79.5871C113.627 78.0775 112.161 77.2109 109.74 77.2109C105.893 77.2109 103 79.86 103 83.5753C103 87.3502 105.893 90.0004 109.74 90.0004C112.2 90.0004 113.646 89.1374 114.861 87.7828L114.858 87.7821C115.131 87.4733 115.297 87.0699 115.297 86.6276C115.297 85.6625 114.513 84.8811 113.545 84.8811C113.015 84.8811 112.542 85.1163 112.22 85.4864C111.644 86.0596 110.978 86.6306 109.74 86.6306C107.977 86.6306 106.992 85.3623 106.992 83.5753C106.992 81.8481 107.976 80.6094 109.74 80.6094Z" fill="white"/>
<path d="M94.1589 86.7167C92.4235 86.7167 91.352 85.4487 91.352 83.6338C91.352 81.7898 92.4235 80.5511 94.1589 80.5511C95.8935 80.5511 96.9352 81.7898 96.9352 83.6338C96.9352 85.4487 95.8935 86.7167 94.1589 86.7167ZM94.1589 77.2109C90.3392 77.2109 87.3594 79.8896 87.3594 83.6338C87.3594 87.3502 90.3392 90.0001 94.1589 90.0001C97.9761 90.0001 100.927 87.3502 100.927 83.6338C100.927 79.8896 97.9762 77.2109 94.1589 77.2109Z" fill="white"/>
<path d="M94.722 70.4039C78.6326 70.4039 65.5413 57.3651 65.5413 41.3382C65.5413 25.3143 78.6326 12.277 94.722 12.277C110.813 12.277 123.903 25.3143 123.903 41.3382C123.903 57.3651 110.813 70.4039 94.722 70.4039ZM94.7512 10C77.3802 10 63.2969 24.0277 63.2969 41.3274C63.2969 58.6334 77.3802 72.6578 94.7512 72.6578C112.124 72.6578 126.207 58.6334 126.207 41.3274C126.207 24.0277 112.124 10 94.7512 10Z" fill="white"/>
<path d="M94.6583 23.9102C94.6426 23.9815 94.494 24.3521 94.3019 24.3303C94.1221 24.2141 94.2799 24.0963 94.3158 23.8404C94.3511 23.4577 94.2829 23.1647 94.1467 22.9538C94.1031 22.9105 94.0288 22.8376 93.9853 22.8051C93.9607 22.7851 93.9298 22.7664 93.8675 22.771C93.812 22.7741 93.7855 22.8268 93.7839 22.8873C93.7948 23.1352 93.7358 23.3896 93.7265 23.4469C93.7034 23.5724 93.6691 23.7428 93.5139 23.8312C93.4135 23.8885 93.4755 23.5522 93.4724 23.3553C93.4678 23.1585 93.4027 22.9168 93.3515 22.8051C93.2444 22.5757 92.9391 22.7339 92.9391 22.7339L92.685 22.8532C92.4044 23.1043 92.2184 23.4888 92.2184 23.9321C92.2184 24.5117 92.5159 24.8186 92.7361 24.9318C92.727 24.9318 92.8028 25.0186 92.7793 25.1006C92.77 25.1984 92.6834 25.2061 92.6722 25.2061C91.6758 25.2061 91.1148 24.2589 91.1148 23.092C91.1148 21.9233 91.9237 20.9777 92.9221 20.9777C93.9201 20.9777 94.7294 21.9233 94.7294 23.092C94.7296 23.3024 94.7093 23.718 94.6583 23.9102ZM94.1779 20.9186C93.68 20.5592 93.0059 20.4676 92.5131 20.5003C92.4167 20.5219 91.8091 20.818 91.6355 20.948C90.4547 21.8424 90.4577 24.183 91.093 24.8821C91.4899 25.3192 91.758 25.558 92.3209 25.6587C92.9562 25.7734 93.6943 25.6153 94.097 25.4944C94.514 25.3671 94.8409 24.9068 95.0796 24.4155C95.3618 23.828 95.373 22.7384 95.0426 21.9618C94.7122 21.4426 94.7357 21.3248 94.1779 20.9186Z" fill="white"/>
<path d="M114.603 39.4815C114.649 39.5281 114.681 39.5824 114.694 39.6505C114.708 39.7141 114.714 39.8085 114.714 39.9279V40.4225H114.978C115.08 40.4225 115.157 40.4441 115.21 40.4921C115.266 40.5402 115.291 40.6007 115.291 40.6766C115.291 40.7696 115.254 40.8364 115.179 40.8751C115.102 40.9123 114.99 40.9325 114.847 40.9325H114.714V42.2564C114.714 42.3646 114.717 42.4528 114.727 42.5136C114.736 42.5721 114.756 42.6221 114.789 42.6591C114.823 42.698 114.879 42.7165 114.956 42.7165C114.998 42.7165 115.055 42.7103 115.13 42.6945C115.199 42.6807 115.257 42.6714 115.295 42.6714C115.356 42.6714 115.409 42.6961 115.455 42.7415C115.502 42.7862 115.523 42.8451 115.523 42.9102C115.523 43.0264 115.462 43.115 115.334 43.175C115.207 43.2328 115.026 43.2651 114.789 43.2651C114.564 43.2651 114.392 43.2281 114.277 43.1534C114.159 43.0745 114.083 42.9721 114.048 42.8388C114.012 42.7056 113.995 42.5289 113.995 42.3071V40.9324H113.899C113.797 40.9324 113.716 40.9075 113.661 40.8594C113.609 40.8115 113.58 40.7494 113.58 40.6765C113.58 40.6007 113.609 40.5402 113.667 40.4921C113.722 40.444 113.806 40.4224 113.915 40.4224H113.995V39.9867C113.995 39.8722 113.998 39.7821 114.001 39.714C114.01 39.6504 114.026 39.5916 114.054 39.5449C114.083 39.4954 114.122 39.4567 114.178 39.4257C114.228 39.3947 114.287 39.3791 114.353 39.3791C114.444 39.3792 114.528 39.4133 114.603 39.4815ZM115.804 40.7633C115.804 40.6301 115.837 40.5278 115.895 40.4565C115.961 40.385 116.041 40.3527 116.145 40.3527C116.242 40.3527 116.323 40.3836 116.39 40.4488C116.456 40.5123 116.487 40.6038 116.487 40.7185V40.7866C116.613 40.6379 116.746 40.5325 116.887 40.4626C117.033 40.3915 117.19 40.3574 117.365 40.3574C117.543 40.3574 117.699 40.3929 117.83 40.4642C117.96 40.5356 118.065 40.6424 118.149 40.7866C118.27 40.6393 118.402 40.5325 118.54 40.4642C118.679 40.3914 118.834 40.3574 119.002 40.3574C119.2 40.3574 119.369 40.3929 119.512 40.4721C119.653 40.5479 119.76 40.6565 119.829 40.7989C119.893 40.9293 119.923 41.1339 119.923 41.4114V42.8122C119.923 42.9612 119.885 43.0744 119.82 43.1533C119.749 43.228 119.657 43.265 119.547 43.265C119.439 43.265 119.349 43.228 119.278 43.1503C119.21 43.0745 119.175 42.9596 119.175 42.8107V41.6048C119.175 41.4484 119.168 41.3276 119.154 41.2346C119.141 41.14 119.107 41.0624 119.047 40.999C118.989 40.9354 118.902 40.9044 118.784 40.9044C118.689 40.9044 118.6 40.9324 118.516 40.9912C118.431 41.0437 118.363 41.1183 118.317 41.2159C118.262 41.3383 118.239 41.5508 118.239 41.8578V42.8107C118.239 42.9612 118.203 43.0744 118.135 43.1503C118.065 43.228 117.977 43.265 117.864 43.265C117.756 43.265 117.669 43.228 117.599 43.1503C117.532 43.0745 117.498 42.9613 117.498 42.8107V41.6671C117.498 41.4869 117.492 41.3475 117.479 41.2453C117.469 41.1462 117.433 41.064 117.38 41.002C117.326 40.9369 117.241 40.9044 117.121 40.9044C116.884 40.9044 116.731 40.9849 116.656 41.1462C116.58 41.3073 116.543 41.5385 116.543 41.8404V42.8107C116.543 42.9596 116.509 43.0744 116.444 43.1503C116.376 43.228 116.286 43.265 116.174 43.265C116.068 43.265 115.979 43.228 115.911 43.1503C115.84 43.0745 115.804 42.9613 115.804 42.8122V40.7633H115.804ZM86.0944 21.3355C87.0231 21.3355 87.7746 22.2159 87.7746 23.2978C87.7746 23.4948 87.7562 23.8823 87.7096 24.0621C87.6926 24.1241 87.5564 24.4729 87.3793 24.4511C87.2107 24.3425 87.3576 24.2357 87.3873 23.9954C87.4227 23.6404 87.3592 23.3676 87.2338 23.1738C87.1922 23.132 87.1221 23.0638 87.0836 23.0328C87.0617 23.0188 87.0323 22.9986 86.975 23.0034C86.9238 23.0065 86.8972 23.056 86.8957 23.1088C86.9068 23.3397 86.8511 23.5785 86.8434 23.6312C86.8199 23.7475 86.7906 23.9056 86.6448 23.986C86.5535 24.0403 86.6123 23.7273 86.6062 23.5459C86.6032 23.3646 86.5443 23.1397 86.4945 23.0329C86.3937 22.8219 86.1118 22.9679 86.1118 22.9679L85.8778 23.0809C85.614 23.3104 85.4435 23.6716 85.4435 24.0776C85.4435 24.62 85.7195 24.9038 85.924 25.0075C85.9147 25.0075 85.9848 25.0897 85.9645 25.1671C85.9551 25.2557 85.8747 25.2633 85.8635 25.2633C84.9383 25.2633 84.4174 24.3812 84.4174 23.2978C84.4173 22.2159 85.1708 21.3355 86.0944 21.3355ZM71.7058 53.9183C71.9987 52.5218 72.2359 52.1884 72.5706 51.5868C72.8763 51.0371 74.7021 48.901 77.1989 48.7955C79.0497 48.7136 81.1126 49.1212 82.5977 49.3288C83.864 49.4016 84.2405 49.1086 84.5012 48.9927C85.1739 48.6839 85.8154 47.5712 86.1472 47.9631C86.476 48.3489 86.011 49.1071 85.5058 49.6433C85.2604 49.9022 84.9074 50.1736 84.5725 51.1141C84.3492 51.7344 83.7662 52.4101 82.8518 52.2508C82.4426 52.1791 82.4488 52.0382 82.173 51.9685C81.7576 51.8615 81.525 51.9127 81.1685 52.0351C80.8913 52.1313 80.5174 52.7898 80.4185 52.9326C80.248 53.1727 79.9288 53.8824 79.8278 54.2594C79.6885 54.7849 79.6819 55.476 79.1179 56.7936C78.9692 57.1378 78.1583 57.7157 77.6844 57.2476C77.3278 56.8911 77.557 55.6235 77.7521 54.8874C77.9417 54.1509 78.1583 53.7538 78.3616 53.4116C78.5211 53.1401 78.8386 52.7267 78.9426 52.449C78.9426 52.449 79.0512 51.815 78.6388 51.9235C78.2204 52.032 78.2234 52.1422 77.8238 52.4691C77.5508 52.694 77.3556 53.0879 77.0533 53.8425C76.8813 54.2734 76.6533 54.7928 76.3699 55.3756C76.0565 56.0248 75.7 56.7255 75.3531 56.9843C74.8136 57.3859 74.0509 56.8495 74.0694 56.324C74.0868 55.7505 74.2369 55.0192 74.3732 54.5816C74.5033 54.1555 74.7143 53.9044 74.9361 53.5136C75.2383 52.9777 75.4643 52.5931 75.7062 52.2134C76.0351 51.7018 75.5792 51.5716 75.2943 51.711C75.0786 51.8103 75.0556 51.7764 74.5657 52.2616C74.2493 52.5777 73.614 53.7616 73.3876 54.4254C73.1396 55.1616 72.6407 55.4218 72.1847 55.222C71.8452 55.0744 71.5926 54.4668 71.7058 53.9183ZM87.3563 49.7751C87.5268 49.7458 88.4212 50.0231 88.4212 50.0231C88.4212 50.0231 91.2126 51.2027 99.2946 50.7595C99.2946 50.7595 100.739 50.2991 100.965 50.8601C101.192 51.4214 100.612 52.3296 99.3566 52.5387C99.0525 52.5883 98.4777 52.6489 98.4777 52.6489C98.4777 52.6489 91.5522 52.945 88.6134 51.9419C88.6134 51.9419 88.0755 51.8537 87.8773 51.8537C87.679 51.8537 86.2805 51.798 86.3118 50.7954C86.3393 49.7905 87.1876 49.8032 87.3563 49.7751ZM89.0073 46.7064C89.0073 46.7064 92.9644 47.7183 99.2389 47.4253C99.2389 47.4253 100.575 47.2192 100.631 47.9862C100.69 48.7554 100.569 49.3426 99.7208 49.4342C98.8715 49.5224 98.8418 49.3504 98.2793 49.3739C95.5172 49.4871 91.5291 49.2078 89.3311 48.8017C89.3311 48.8017 88.8598 48.6126 88.3561 48.5071C87.9391 48.419 87.4509 48.2111 87.5069 47.5896C87.5641 46.9729 87.9887 46.4396 89.0073 46.7064ZM91.1602 44.702C91.5368 44.1472 92.5363 44.3023 92.5363 44.3023C92.5363 44.3023 93.5316 44.533 95.6241 44.5626C97.7133 44.5919 98.5041 44.327 99.6912 44.3532C100.879 44.3843 100.683 45.3296 100.513 45.8582C100.342 46.3945 99.1548 46.2163 98.7301 46.1835C98.3085 46.1542 94.0679 46.2162 92.4839 46.1265C90.9027 46.038 90.8283 45.1841 91.1602 44.702ZM94.356 42.5971C94.533 42.1817 95.2553 42.0253 95.2553 42.0253C95.2553 42.0253 96.1293 41.9044 96.7246 41.7867C97.3167 41.6704 97.7522 41.6175 98.2045 41.4982C98.6559 41.3805 99.034 41.8159 99.1178 42.2001C99.203 42.5863 99.4525 43.0822 98.9689 43.2205C98.7767 43.2743 97.9336 43.3444 97.2886 43.4403C96.9228 43.4946 95.2492 43.7195 94.5454 43.6867C93.8385 43.6605 94.1826 42.9956 94.356 42.5971ZM94.7202 13.8428C79.4978 13.8428 67.1133 26.1792 67.1133 41.3399C67.1133 56.5022 79.4978 68.8386 94.7202 68.8386C106.751 68.8386 117.002 61.1305 120.776 50.4184C119.87 51.6894 118.264 52.5652 116.732 52.8659C114.091 53.3911 112.265 52.6831 111.63 52.5494C110.997 52.4194 110.755 52.6797 110.542 53.0985C110.323 53.5119 110.258 53.8239 110.107 54.2281C110.008 54.4981 109.881 55.3069 109.798 55.6143C109.599 56.3612 109.523 57.5532 108.333 57.9067C107.705 58.0938 107.37 57.685 107.448 56.8944C107.516 56.2218 107.756 55.1041 107.891 54.6359C108.142 53.7569 108.196 53.6437 108.196 53.3911C108.196 53.3911 108.21 52.4802 107.776 52.5931C107.34 52.7077 107.125 53.0407 106.899 53.683C106.751 54.0981 106.798 54.1697 106.542 55.0514C106.303 55.8777 106.268 56.3782 106.117 56.6603C105.831 57.1998 105.225 57.9994 104.777 58.0677C104.276 58.1409 104.036 57.6276 103.981 57.1159C103.923 56.5207 103.994 56.3505 104.062 55.9893C104.124 55.6882 104.171 55.4823 104.315 54.9045C104.495 54.2845 104.596 54.013 104.8 53.6054C105.152 52.8953 105.194 52.3856 104.732 52.5932C104.508 52.6971 104.18 53.0209 103.672 53.5263C103.34 53.8578 102.732 54.7681 102.497 55.4623C102.238 56.2281 101.353 56.8156 100.874 56.6077C100.52 56.4546 100.399 56.0606 100.52 55.3616C100.754 53.9912 101.071 53.342 101.53 52.711C101.914 52.1825 103.87 49.6933 106.477 49.577C109.088 49.4653 110.655 50.4002 110.82 49.8715C110.963 49.4141 110.11 48.5216 106.879 48.4393C106.215 48.4222 104.54 48.6748 103.706 49.2265C103.044 49.6651 103.095 50.1302 102.331 49.789C101.57 49.4468 101.362 49.0764 101.472 47.5991C101.581 46.1252 101.687 44.7627 101.472 44.1955C101.255 43.6264 99.2944 41.8114 99.7329 40.79C100.168 39.7686 100.869 39.4073 101.447 38.3967C102.698 36.2051 102.993 32.7314 102.341 32.0495C101.687 31.3706 101.472 31.8246 101.472 32.3905C101.472 32.9578 101.489 36.9273 99.5327 38.5159C97.5737 40.1047 95.7742 39.8025 95.4489 39.5747C95.1231 39.3484 94.8521 39.5484 94.9602 40.004C95.0719 40.4566 94.8644 41.0936 94.2103 41.6612C93.5592 42.2268 91.4188 43.7642 88.2024 45.2928C87.6987 45.5269 86.8987 45.6924 86.355 45.9203C85.8091 46.1452 85.5765 45.9419 84.8854 47.0269C84.56 47.5401 82.9168 48.2951 82.2645 48.202C80.6847 47.9788 80.3082 47.2861 80.4183 46.7174C80.4788 46.4024 80.4168 45.9004 82.0736 45.319C83.0534 44.9779 84.1242 44.0045 84.2762 43.5803C84.5241 42.898 84.8495 41.7122 85.4449 41.7915C85.89 41.8515 86.7424 42.5989 87.3966 42.1465C88.0476 41.6921 88.0892 41.207 88.3063 40.5249C88.525 39.8444 89.064 39.3856 89.5014 38.8198C89.9368 38.2511 89.6967 37.741 89.6967 37.2886C89.6967 36.8342 89.8518 35.227 90.5025 35.227C91.1535 35.227 91.8262 35.7726 93.0634 35.8563C93.3641 35.878 94.3004 35.8004 94.3281 35.2006C94.3528 34.6969 94.2661 32.5887 94.7 31.5706C95.1374 30.5476 96.2532 30.1211 96.6871 29.4391C97.1242 28.7587 96.6656 27.0785 96.309 27.4862C96.033 27.7992 95.4812 29.0207 94.9249 29.2966C94.2134 29.6484 93.9747 29.5663 93.5407 29.4531C93.1037 29.3399 92.8246 28.6642 92.4061 29.157C92.2171 29.3804 92.6355 29.7275 92.8573 29.8096C93.3641 29.9971 93.5003 30.3938 93.429 31.1441C93.3204 32.2772 93.9732 34.4334 92.1242 34.4334C90.2765 34.4334 89.9492 33.866 89.5169 34.0937C89.0798 34.3202 88.9713 34.4334 88.9713 35.0022C88.9713 35.5708 88.9963 37.1194 88.6706 37.9129C88.3418 38.7082 87.4985 41.6484 85.9284 41.0177C84.6078 40.486 84.6672 40.421 84.5724 40.2908C84.4792 40.1636 84.0796 40.1589 84.115 40.359C84.1851 40.7588 84.3028 40.5868 84.3245 41.0641C84.3553 41.8579 83.971 42.7211 83.4286 42.7211C82.8844 42.7211 82.5557 42.4885 82.1234 42.4885C81.6894 42.4885 81.5485 42.8916 81.4415 43.2297C81.4415 43.2297 80.8201 45.2149 78.8622 45.6707C76.9074 46.1251 76.1806 45.4663 75.9729 45.119C75.3716 44.0899 74.079 43.5162 73.428 43.175C72.7739 42.8312 70.734 41.9352 71.3631 40.3372C71.6514 39.6024 71.3912 39.7807 71.7974 39.1452C72.4419 38.1501 74.9531 36.8141 75.4955 36.3646C76.035 35.915 76.559 34.9958 77.0145 33.5264C77.4734 32.054 78.7537 30.9163 79.4047 30.3475C80.0589 29.7801 81.6895 28.9866 82.232 28.1929C82.7776 27.3963 83.4193 25.6261 83.5558 24.9318C83.5558 24.9348 83.5993 24.6635 83.7402 24.4838C83.8734 24.3178 83.9927 24.4249 84.0548 24.6154C84.1356 24.8603 84.2765 25.0125 84.3401 25.0836C84.5354 25.3098 84.6223 25.3533 84.8484 25.4648C85.2825 25.6973 86.3365 25.8927 87.3162 25.3082C88.218 24.5657 88.2226 23.8714 88.2958 23.1616C88.3654 22.4981 88.0044 21.7292 87.3087 21.2628C86.9598 21.0318 86.4946 20.8783 85.8902 20.8783C84.5941 20.8783 84.1275 22.5601 83.8842 21.6595C83.6859 20.9218 84.0035 20.1607 84.2966 19.5175C85.2765 17.3724 86.0824 16.2454 87.2758 16.4764C88.4725 16.7026 89.1918 19.223 90.1681 19.223C90.6252 19.223 91.4729 19.0385 92.2064 18.5642C92.3567 18.4697 92.4995 18.3875 92.6389 18.3147C93.0543 17.9799 93.6015 17.3473 93.8679 17.1025C95.5655 15.5603 96.5884 17.0514 97.3477 17.6188C98.1073 18.1859 99.7332 20.5854 100.491 20.7017C101.255 20.8134 101.804 19.9965 102.553 19.8492C103.561 19.6492 104.407 19.5655 104.19 21.1543C103.969 22.7446 103.864 23.0857 104.298 23.0857C104.732 23.0857 105.711 22.6298 106.036 23.4234C106.363 24.2187 105.276 25.0139 105.276 25.5826C105.276 26.1485 105.822 26.3267 106.363 26.3764C107.214 26.4522 107.448 26.9437 107.234 27.5108C107.015 28.0766 106.471 28.3061 106.688 28.7587C106.905 29.2128 107.234 29.439 107.776 29.439C108.321 29.439 109.081 29.2128 109.299 29.8949C109.515 30.5737 108.973 31.9378 108.321 32.3905C107.668 32.8446 107.448 33.5265 107.995 33.7528C108.537 33.9808 109.732 33.9808 109.843 34.7759C109.95 35.5709 109.624 36.1367 109.299 36.4761C108.973 36.8173 109.19 37.4991 109.733 37.7255C110.278 37.9534 111.906 38.2944 111.472 39.4275C111.039 40.565 111.856 42.7647 110.557 42.1818C109.798 41.8376 108.142 42.0146 106.741 42.3804C106.102 42.546 105.25 43.0981 105.181 43.4527C105.093 43.9163 105.549 43.8154 105.668 43.7704C106.49 43.4685 108.558 43.0777 109.113 43.0981C110.263 43.1335 111.647 43.4732 112.34 43.8466C113.425 44.4341 113.782 45.2804 113.782 45.2804C113.782 45.2804 116.252 44.7345 118.177 45.3486C119.848 45.8818 121.366 46.4428 121.502 48.016C122.04 45.8787 122.331 43.6433 122.331 41.3401C122.331 26.1793 109.946 13.8428 94.7202 13.8428Z" fill="white"/>
</g>
<defs>
<clipPath id="clip0_596_64614">
<rect width="70.6071" height="80" fill="white" transform="translate(62.0312 10)"/>
</clipPath>
</defs>
</svg>
