<svg width="71" height="48" viewBox="0 0 71 48" fill="none" xmlns="http://www.w3.org/2000/svg">
<rect x="0.5" width="70" height="48" rx="4" fill="#EBF3FA"/>
<path d="M30.4501 32.1666H26.4922L28.9678 16.8594H32.9255L30.4501 32.1666Z" fill="#00579F"/>
<path d="M44.7947 17.2337C44.014 16.924 42.7758 16.582 41.2447 16.582C37.3361 16.582 34.5837 18.6663 34.5668 21.6462C34.5343 23.8447 36.5374 25.0659 38.0356 25.7989C39.5669 26.548 40.0874 27.037 40.0874 27.7047C40.0718 28.7301 38.85 29.2028 37.7105 29.2028C36.1303 29.2028 35.2836 28.9591 33.9969 28.3886L33.4757 28.144L32.9219 31.5802C33.8502 32.0031 35.5604 32.3784 37.3361 32.3948C41.489 32.3948 44.1928 30.3428 44.2248 27.1673C44.2406 25.4247 43.1829 24.0895 40.9025 22.9985C39.5182 22.2981 38.6704 21.8258 38.6704 21.1092C38.6866 20.4577 39.3875 19.7905 40.9501 19.7905C42.2368 19.7578 43.1822 20.0671 43.8984 20.3766L44.2564 20.5391L44.7947 17.2337Z" fill="#00579F"/>
<path d="M50.0611 26.7438C50.3871 25.8644 51.6413 22.4609 51.6413 22.4609C51.6249 22.4936 51.9666 21.5653 52.1621 20.9955L52.4387 22.3144C52.4387 22.3144 53.1882 25.9785 53.3509 26.7438C52.7324 26.7438 50.8429 26.7438 50.0611 26.7438ZM54.9467 16.8594H51.8852C50.9411 16.8594 50.2239 17.136 49.8165 18.1294L43.9375 32.1664H48.0905C48.0905 32.1664 48.7742 30.2771 48.9211 29.8702C49.3767 29.8702 53.4167 29.8702 54.0028 29.8702C54.1165 30.4076 54.4751 32.1664 54.4751 32.1664H58.1398L54.9467 16.8594Z" fill="#00579F"/>
<path d="M23.1859 16.8594L19.3098 27.2974L18.8862 25.1805C18.1696 22.7378 15.9221 20.0838 13.4141 18.7642L16.9645 32.1503H21.1499L27.3711 16.8594H23.1859Z" fill="#00579F"/>
<path d="M15.7066 16.8594H9.33858L9.27344 17.1687C14.2409 18.4389 17.5307 21.5008 18.8823 25.1811L17.498 18.1461C17.2701 17.1684 16.5697 16.8916 15.7066 16.8594Z" fill="#FAA61A"/>
</svg>
