<svg width="71" height="48" viewBox="0 0 71 48" fill="none" xmlns="http://www.w3.org/2000/svg">
<rect x="0.5" width="70" height="48" rx="4" fill="#F3FBFF"/>
<path d="M30.9649 35.5382L31.3939 32.8132L30.4383 32.791H25.875L29.0463 12.6827C29.056 12.622 29.0881 12.5654 29.1348 12.5252C29.1816 12.485 29.2416 12.4629 29.3039 12.4629H36.9983C39.5528 12.4629 41.3156 12.9945 42.236 14.0436C42.6674 14.5358 42.9423 15.0501 43.0752 15.6162C43.2146 16.2101 43.2172 16.9196 43.0809 17.7851L43.071 17.8482V18.4027L43.5026 18.6472C43.8661 18.84 44.1546 19.0606 44.3761 19.3133C44.7454 19.7341 44.9842 20.269 45.085 20.9031C45.1891 21.5552 45.1546 22.3312 44.9842 23.2098C44.7872 24.2204 44.4689 25.1006 44.0391 25.8208C43.6436 26.4845 43.1399 27.0348 42.5421 27.4615C41.9711 27.8667 41.2927 28.1744 40.5257 28.3713C39.7824 28.5647 38.9351 28.6624 38.0057 28.6624H37.4068C36.9787 28.6624 36.5627 28.8166 36.2363 29.0932C35.909 29.3753 35.6923 29.7607 35.6259 30.1824L35.5808 30.4278L34.8228 35.2305L34.7884 35.4069C34.7794 35.4629 34.7638 35.4907 34.7409 35.5096C34.7203 35.5266 34.6908 35.5382 34.662 35.5382H30.9649Z" fill="#253B80"/>
<path d="M43.9161 17.9121C43.8932 18.0589 43.867 18.209 43.8375 18.3633C42.8226 23.5731 39.3512 25.3728 34.9173 25.3728H32.6598C32.1177 25.3728 31.6608 25.7666 31.5762 26.3014L30.4203 33.6318L30.0931 35.7095C30.038 36.0607 30.3089 36.3773 30.6631 36.3773H34.6672C35.1414 36.3773 35.544 36.0328 35.6186 35.5653L35.658 35.3617L36.412 30.5776L36.4604 30.3153C36.5341 29.8461 36.9376 29.5016 37.4118 29.5016H38.0106C41.8898 29.5016 44.9268 27.9266 45.8144 23.3688C46.1851 21.4649 45.9932 19.8751 45.012 18.757C44.7152 18.4199 44.3468 18.1401 43.9161 17.9121Z" fill="#179BD7"/>
<path d="M42.8488 17.4892C42.6939 17.4441 42.5338 17.4031 42.3697 17.3662C42.2048 17.3301 42.0358 17.2981 41.862 17.2702C41.2532 17.1718 40.5864 17.125 39.8718 17.125H33.841C33.6924 17.125 33.5515 17.1586 33.4251 17.2193C33.147 17.353 32.9404 17.6164 32.8903 17.9387L31.6071 26.0648L31.5703 26.3018C31.6548 25.767 32.1118 25.3732 32.6539 25.3732H34.9114C39.3453 25.3732 42.8169 23.5726 43.8316 18.3637C43.8618 18.2094 43.8873 18.0593 43.9102 17.9125C43.6535 17.7763 43.3754 17.6598 43.0759 17.5606C43.0023 17.536 42.926 17.5122 42.8488 17.4892Z" fill="#222D65"/>
<path d="M32.8942 17.9386C32.9442 17.6162 33.1511 17.3529 33.429 17.22C33.5563 17.1593 33.6966 17.1257 33.8449 17.1257H39.8759C40.5905 17.1257 41.2573 17.1724 41.8659 17.2709C42.0399 17.2988 42.209 17.3308 42.3738 17.3668C42.5379 17.4038 42.6978 17.4448 42.8529 17.4899C42.9299 17.5129 43.0061 17.5366 43.0808 17.5605C43.3802 17.6597 43.6583 17.777 43.915 17.9124C44.217 15.9871 43.9127 14.6762 42.8718 13.4892C41.7242 12.1825 39.6528 11.623 37.0024 11.623H29.3078C28.7663 11.623 28.3047 12.0168 28.2208 12.5524L25.016 32.8674C24.9528 33.2693 25.2628 33.632 25.668 33.632H30.4185L31.6113 26.0646L32.8942 17.9386Z" fill="#253B80"/>
</svg>
