<svg width="71" height="48" viewBox="0 0 71 48" fill="none" xmlns="http://www.w3.org/2000/svg">
<rect x="0.5" width="70" height="48" rx="4" fill="#F5F4FF"/>
<path fill-rule="evenodd" clip-rule="evenodd" d="M38.1109 16.2848L34.555 17.048V14.165L38.1109 13.416V16.2848ZM23.6607 15.0553L20.204 15.7902L20.1899 27.11C20.1899 29.2015 21.7624 30.7419 23.859 30.7419C25.0207 30.7419 25.8707 30.5299 26.3382 30.2756V27.4067C25.8849 27.5905 23.6465 28.2405 23.6465 26.149V21.1321H26.3382V18.122H23.6465L23.6607 15.0553ZM61.5 24.3542C61.5 20.7364 59.7433 17.8817 56.3858 17.8817C53.0142 17.8817 50.9742 20.7364 50.9742 24.326C50.9742 28.5797 53.3825 30.7278 56.8392 30.7278C58.525 30.7278 59.8 30.3462 60.7633 29.8092V26.9828C59.8 27.4633 58.695 27.7601 57.2925 27.7601C55.9183 27.7601 54.7 27.2796 54.5442 25.612H61.4717C61.4717 25.5341 61.4768 25.3572 61.4826 25.1534V25.1533V25.1533V25.1533C61.4906 24.8763 61.5 24.5496 61.5 24.3542ZM54.5016 23.0117C54.5016 21.4148 55.4791 20.7506 56.3716 20.7506C57.2358 20.7506 58.1566 21.4148 58.1566 23.0117H54.5016ZM15.2884 20.9484C14.5375 20.9484 14.0842 21.1604 14.0842 21.7116C14.0842 22.3133 14.8644 22.578 15.8323 22.9064C17.4102 23.4418 19.4871 24.1465 19.4959 26.7567C19.4959 29.2864 17.47 30.742 14.5234 30.742C13.305 30.742 11.9733 30.5017 10.6558 29.9364V26.573C11.8458 27.2231 13.3475 27.7036 14.5234 27.7036C15.3167 27.7036 15.8834 27.4916 15.8834 26.8415C15.8834 26.1749 15.0376 25.8703 14.0166 25.5024C12.4616 24.9422 10.5 24.2356 10.5 21.8811C10.5 19.3798 12.4125 17.8818 15.2884 17.8818C16.4642 17.8818 17.6259 18.0655 18.8017 18.5318V21.8529C17.725 21.2735 16.365 20.9484 15.2884 20.9484ZM30.7443 19.1678L30.5176 18.122H27.4576V30.4876H30.9993V22.1072C31.8351 21.0191 33.2518 21.2169 33.6909 21.3724V18.122C33.2376 17.9524 31.5801 17.6415 30.7443 19.1678ZM34.5548 18.122H38.1107V30.4876H34.5548V18.122ZM42.729 18.984C43.2248 18.5318 44.1173 17.8817 45.5057 17.8817C47.9848 17.8817 50.3223 20.1146 50.3365 24.2129C50.3365 28.6928 48.0273 30.7278 45.4915 30.7278C44.2448 30.7278 43.494 30.2049 42.984 29.8375L42.9698 33.8369L39.4281 34.5859V18.1079H42.5448L42.729 18.984ZM42.9839 26.9545C43.3239 27.3219 43.8198 27.6187 44.6556 27.6187C45.9589 27.6187 46.8373 26.2055 46.8373 24.3118C46.8373 22.4605 45.9448 21.0191 44.6556 21.0191C43.8481 21.0191 43.3381 21.3017 42.9698 21.7115L42.9839 26.9545Z" fill="#6461FC"/>
</svg>
