<svg width="71" height="48" viewBox="0 0 71 48" fill="none" xmlns="http://www.w3.org/2000/svg">
<rect x="0.5" width="70" height="48" rx="4" fill="#F1F6FF"/>
<path fill-rule="evenodd" clip-rule="evenodd" d="M33.5593 31.5169V25.475H36.6776C37.9555 25.475 39.034 25.0468 39.9132 24.2024L40.1242 23.9883C41.7303 22.24 41.6248 19.5163 39.9132 17.8988C39.0574 17.0425 37.8851 16.5786 36.6776 16.6024H31.6719V31.5169H33.5593ZM33.5595 23.6434V18.434H36.7253C37.4053 18.434 38.0502 18.6957 38.5309 19.1714C39.551 20.1705 39.5744 21.8356 38.5895 22.8703C38.1088 23.3817 37.4288 23.6672 36.7253 23.6434H33.5595ZM48.9283 22.1091C48.1194 21.3599 47.0175 20.9793 45.6224 20.9793C43.8288 20.9793 42.4806 21.6453 41.5897 22.9655L43.2544 24.024C43.864 23.1201 44.6963 22.6681 45.7514 22.6681C46.4196 22.6681 47.0644 22.9179 47.5685 23.3699C48.0608 23.798 48.3422 24.4165 48.3422 25.0706V25.5107C47.6154 25.1063 46.701 24.8922 45.5755 24.8922C44.2625 24.8922 43.2075 25.2015 42.422 25.8318C41.6366 26.4622 41.238 27.2947 41.238 28.3532C41.2145 29.3166 41.6248 30.2324 42.3517 30.8509C43.0902 31.5169 44.0281 31.8499 45.1301 31.8499C46.4313 31.8499 47.463 31.2672 48.2484 30.1016H48.3305V31.5169H50.1358V25.2252C50.1358 23.9051 49.7372 22.8584 48.9283 22.1091ZM43.8057 29.6377C43.4187 29.3523 43.1842 28.8884 43.1842 28.3889C43.1842 27.8299 43.4422 27.3661 43.9464 26.9974C44.4623 26.6287 45.1071 26.4384 45.8693 26.4384C46.9245 26.4265 47.7453 26.6644 48.3315 27.1401C48.3315 27.9489 48.0149 28.6506 47.3935 29.2453C46.8307 29.8161 46.0686 30.1373 45.2713 30.1373C44.7437 30.1492 44.2278 29.9708 43.8057 29.6377ZM54.1921 36.0008L60.4991 21.3123H58.4476L55.5285 28.6387H55.4933L52.5039 21.3123H50.4524L54.5906 30.8628L52.246 36.0008H54.1921Z" fill="#3C4043"/>
<path d="M27.046 24.1661C27.046 23.5834 26.9991 23.0006 26.9053 22.4297H18.9453V25.7242H23.5056C23.318 26.7827 22.7084 27.7342 21.8175 28.3289V30.4697H24.5372C26.1316 28.983 27.046 26.7827 27.046 24.1661Z" fill="#4285F4"/>
<path d="M18.9442 32.5392C21.2185 32.5392 23.1411 31.778 24.5361 30.4697L21.8164 28.3289C21.0544 28.8522 20.0814 29.1496 18.9442 29.1496C16.7403 29.1496 14.8763 27.6391 14.2081 25.6172H11.4062V27.8294C12.8365 30.7195 15.7555 32.5392 18.9442 32.5392Z" fill="#34A853"/>
<path d="M14.208 25.6177C13.8563 24.5592 13.8563 23.4055 14.208 22.3351V20.1348H11.4058C10.1981 22.5492 10.1981 25.4036 11.4058 27.818L14.208 25.6177Z" fill="#FBBC04"/>
<path d="M18.9442 18.8023C20.1517 18.7785 21.3123 19.2423 22.1798 20.0868L24.5948 17.6367C23.059 16.1857 21.0427 15.3888 18.9442 15.4126C15.7555 15.4126 12.8365 17.2442 11.4062 20.1344L14.2081 22.3466C14.8763 20.3128 16.7403 18.8023 18.9442 18.8023Z" fill="#EA4335"/>
</svg>
