<svg width="70" height="70" viewBox="0 0 70 70" fill="none" xmlns="http://www.w3.org/2000/svg">
<path d="M35 46.2V23.7985M29.26 41.9971C30.3902 43.4262 31.8062 43.96 33.7779 43.96H36.505C39.044 43.96 41.1017 41.9548 41.1017 39.48C41.1017 37.0052 39.0454 35 36.505 35H33.4921C30.9546 35 28.8954 32.9948 28.8954 30.52C28.8954 28.0452 30.9517 26.04 33.4921 26.04H36.2192C38.1923 26.04 39.6083 26.5723 40.7385 28.0029M35.089 49.8196V60.8912M63.439 16.835V44.9371L36.4073 60.5456C36.006 60.7773 35.5508 60.8993 35.0875 60.8993C34.6242 60.8993 34.169 60.7773 33.7677 60.5456L6.5625 44.8364V16.7329M6.5625 16.7329L19.775 9.10291L29.2031 14.5469C32.4071 16.396 37.5827 16.4048 40.7663 14.5673L50.1375 9.15686L63.4375 16.8364L45.1325 27.405M6.5625 16.7329L24.8675 27.3014" stroke="#003E27" stroke-width="5" stroke-linecap="round" stroke-linejoin="round"/>
</svg>
