<svg width="70" height="70" viewBox="0 0 70 70" fill="none" xmlns="http://www.w3.org/2000/svg">
<path d="M18.2305 5.83334C16.49 5.83334 14.8208 6.52475 13.5901 7.75546C12.3594 8.98616 11.668 10.6554 11.668 12.3958V57.6042C11.668 59.3447 12.3594 61.0139 13.5901 62.2446C14.8208 63.4753 16.49 64.1667 18.2305 64.1667H40.1055C41.8354 64.1668 43.4954 63.4838 44.7243 62.2663C45.9533 61.0488 46.6518 59.3953 46.668 57.6654V53.2321C46.668 52.6519 46.4375 52.0955 46.0273 51.6853C45.617 51.2751 45.0606 51.0446 44.4805 51.0446C43.1592 51.0446 42.3251 50.6858 41.7505 50.2221C41.1438 49.735 40.6421 48.9825 40.2601 47.9208C39.4638 45.7188 39.3792 42.8167 39.3792 40.1042C39.3792 39.5497 39.1686 39.016 38.79 38.6108L38.3088 38.0946C38.1504 37.9198 37.985 37.7515 37.813 37.59C37.5971 37.3858 36.938 36.7588 34.3626 34.1833C32.9946 32.8154 32.2392 31.6604 31.9913 30.7767C31.8887 30.471 31.8726 30.143 31.9446 29.8288C32.0526 29.4653 32.2596 29.1391 32.5425 28.8867C32.7945 28.6053 33.1196 28.3993 33.4817 28.2917C33.795 28.2202 34.122 28.2363 34.4267 28.3383C35.3076 28.5863 36.4626 29.3475 37.8305 30.7154C39.4055 32.2904 40.9017 33.7692 42.2405 35.0904C44.4571 37.2838 46.245 39.0571 47.2571 40.1363C47.6537 40.557 48.2007 40.8037 48.7785 40.8223C49.3564 40.841 49.9181 40.6301 50.341 40.2358C50.7638 39.8415 51.0134 39.2958 51.0351 38.718C51.0567 38.1403 50.8488 37.5774 50.4567 37.1525C49.2153 35.8539 47.9523 34.5762 46.668 33.32V23.5083L54.9571 31.7975C56.185 33.0283 56.8792 34.6967 56.8792 36.435V61.9792C56.8792 62.5593 57.1097 63.1157 57.5199 63.526C57.9302 63.9362 58.4866 64.1667 59.0667 64.1667C59.6469 64.1667 60.2033 63.9362 60.6135 63.526C61.0237 63.1157 61.2542 62.5593 61.2542 61.9792V36.4379C61.2541 35.0013 60.971 33.5788 60.421 32.2516C59.871 30.9244 59.0649 29.7185 58.0488 28.7029L46.668 17.3221V12.3929C46.6672 10.6529 45.9754 8.9845 44.7448 7.75442C43.5142 6.52435 41.8454 5.83334 40.1055 5.83334H18.2305ZM36.1446 49.4083C36.4276 50.19 36.7921 50.9658 37.2646 51.6892C36.1501 52.2244 35.2094 53.0636 34.551 54.1101C33.8925 55.1566 33.5431 56.3678 33.543 57.6042V59.7917H24.793V57.6042C24.793 55.8637 24.1016 54.1945 22.8709 52.9638C21.6401 51.7331 19.971 51.0417 18.2305 51.0417H16.043V18.9583H18.2305C19.971 18.9583 21.6401 18.2669 22.8709 17.0362C24.1016 15.8055 24.793 14.1363 24.793 12.3958V10.2083H33.543V12.3958C33.543 14.1363 34.2344 15.8055 35.4651 17.0362C36.6958 18.2669 38.365 18.9583 40.1055 18.9583H42.293V28.9858L40.9251 27.6208C39.3763 26.0721 37.5767 24.6808 35.6138 24.1267C34.5662 23.8155 33.4544 23.7904 32.3938 24.0538C31.7357 24.2214 31.1118 24.5027 30.5505 24.885C28.9015 24.6601 27.2225 24.8417 25.6597 25.4142C24.097 25.9866 22.6979 26.9324 21.5843 28.1693C20.4707 29.4061 19.6764 30.8965 19.2706 32.5105C18.8648 34.1246 18.8598 35.8134 19.2559 37.4298C19.6521 39.0462 20.4375 40.5413 21.5437 41.7848C22.6499 43.0282 24.0433 43.9824 25.6026 44.5641C27.1619 45.1458 28.8398 45.3375 30.4902 45.1224C32.1405 44.9073 33.7132 44.292 35.0713 43.33C35.1792 45.325 35.4505 47.4921 36.1446 49.4083ZM23.3346 35C23.3344 33.7293 23.749 32.4933 24.5156 31.4799C25.2821 30.4665 26.3585 29.731 27.5813 29.3854C27.4722 30.2485 27.5396 31.1247 27.7796 31.9608C28.3309 33.9238 29.7192 35.7263 31.2709 37.2779L33.2105 39.2088C32.3856 40.0017 31.3457 40.5345 30.2203 40.7409C29.0949 40.9473 27.9336 40.8182 26.881 40.3696C25.8284 39.9211 24.931 39.1728 24.3004 38.2181C23.6699 37.2633 23.334 36.1442 23.3346 35ZM16.043 12.3958C16.043 11.8157 16.2734 11.2593 16.6837 10.849C17.0939 10.4388 17.6503 10.2083 18.2305 10.2083H20.418V12.3958C20.418 12.976 20.1875 13.5324 19.7773 13.9426C19.367 14.3529 18.8106 14.5833 18.2305 14.5833H16.043V12.3958ZM37.918 10.2083H40.1055C40.6856 10.2083 41.242 10.4388 41.6523 10.849C42.0625 11.2593 42.293 11.8157 42.293 12.3958V14.5833H40.1055C39.5253 14.5833 38.9689 14.3529 38.5587 13.9426C38.1484 13.5324 37.918 12.976 37.918 12.3958V10.2083ZM42.293 55.4167V57.6042C42.293 58.1843 42.0625 58.7407 41.6523 59.151C41.242 59.5612 40.6856 59.7917 40.1055 59.7917H37.918V57.6042C37.918 57.024 38.1484 56.4676 38.5587 56.0574C38.9689 55.6471 39.5253 55.4167 40.1055 55.4167H42.293ZM20.418 59.7917H18.2305C17.6503 59.7917 17.0939 59.5612 16.6837 59.151C16.2734 58.7407 16.043 58.1843 16.043 57.6042V55.4167H18.2305C18.8106 55.4167 19.367 55.6471 19.7773 56.0574C20.1875 56.4676 20.418 57.024 20.418 57.6042V59.7917Z" fill="#003E27"/>
</svg>
