<svg width="21" height="20" viewBox="0 0 21 20" fill="none" xmlns="http://www.w3.org/2000/svg">
<path fill-rule="evenodd" clip-rule="evenodd" d="M13.3341 1.66663C13.5008 2.58329 13.0841 3.49996 12.5841 4.16663C12.0841 4.83329 11.1674 5.41663 10.2508 5.33329C10.0841 4.41663 10.5008 3.58329 11.0008 2.91663C11.5841 2.24996 12.5008 1.74996 13.3341 1.66663ZM16.0008 16.1666C16.4174 15.5 16.6674 15.0833 17.0008 14.3333C14.4174 13.3333 14.0008 9.66663 16.5841 8.33329C15.8341 7.33329 14.7508 6.83329 13.6674 6.83329C12.9174 6.83329 12.4174 6.99996 11.9174 7.16663C11.5008 7.33329 11.1674 7.41663 10.7508 7.41663C10.2508 7.41663 9.91744 7.24996 9.41744 7.08329C8.91744 6.91663 8.41744 6.74996 7.8341 6.74996C6.66744 6.74996 5.41744 7.41663 4.66744 8.66663C3.5841 10.3333 3.75077 13.5833 5.50077 16.25C6.25077 17.25 7.0841 18.3333 8.16744 18.3333C8.66744 18.3333 8.91744 18.1666 9.25077 18.0833C9.66744 17.9166 10.0841 17.75 10.7508 17.75C11.5008 17.75 11.8341 17.9166 12.2508 18.0833C12.5841 18.25 12.8341 18.3333 13.3341 18.3333C14.5008 18.3333 15.3341 17.0833 16.0008 16.1666Z" stroke="white" stroke-width="1.5" stroke-miterlimit="10" stroke-linecap="round" stroke-linejoin="round"/>
</svg>
