<svg width="21" height="20" viewBox="0 0 21 20" fill="none" xmlns="http://www.w3.org/2000/svg">
<path d="M18.4987 8.49996H10.6654V11.5833H15.2487C15.1654 12.3333 14.6654 13.5 13.582 14.25C12.9154 14.75 11.9154 15.0833 10.6654 15.0833C8.4987 15.0833 6.58203 13.6666 5.91536 11.5833C5.7487 11.0833 5.66536 10.5 5.66536 9.91663C5.66536 9.33329 5.7487 8.74996 5.91536 8.24996C5.9987 8.08329 5.9987 7.91663 6.08203 7.83329C6.83203 6.08329 8.58203 4.83329 10.6654 4.83329C12.2487 4.83329 13.2487 5.49996 13.9154 6.08329L16.2487 3.74996C14.832 2.49996 12.9154 1.66663 10.6654 1.66663C7.41536 1.66663 4.58203 3.49996 3.2487 6.24996C2.66536 7.41663 2.33203 8.66663 2.33203 9.99996C2.33203 11.3333 2.66536 12.5833 3.2487 13.75C4.58203 16.5 7.41536 18.3333 10.6654 18.3333C12.9154 18.3333 14.832 17.5833 16.1654 16.3333C17.7487 14.9166 18.6654 12.75 18.6654 10.1666C18.6654 9.49996 18.582 8.99996 18.4987 8.49996Z" stroke="white" stroke-width="1.5" stroke-miterlimit="10" stroke-linecap="round" stroke-linejoin="round"/>
</svg>
