<svg width="150" height="150" viewBox="0 0 150 150" fill="none" xmlns="http://www.w3.org/2000/svg">
<path d="M93.7504 119.55C99.0818 121.096 104.606 121.879 110.157 121.875C119.085 121.896 127.898 119.86 135.913 115.925C135.93 115.567 135.938 115.206 135.938 114.844C135.938 109.331 134.172 103.962 130.897 99.5272C127.622 95.0921 123.011 91.8236 117.742 90.2014C112.473 88.5793 106.823 88.689 101.62 90.5144C96.4182 92.3398 91.9382 95.7848 88.8379 100.344M93.7504 119.55V119.531C93.7504 112.575 91.9691 106.031 88.8379 100.344M93.7504 119.55V120.212C81.7244 127.462 67.9425 131.279 53.9004 131.25C39.3316 131.25 25.7004 127.219 14.0629 120.212L14.0566 119.531C14.0519 110.684 16.9917 102.087 22.4128 95.0954C27.8338 88.1037 35.4277 83.1152 43.9972 80.9162C52.5667 78.7173 61.6243 79.433 69.742 82.9506C77.8598 86.4681 84.5822 92.5874 88.8379 100.344M75.0004 39.8438C75.0004 45.4382 72.778 50.8034 68.8222 54.7593C64.8663 58.7151 59.5011 60.9375 53.9066 60.9375C48.3122 60.9375 42.947 58.7151 38.9911 54.7593C35.0353 50.8034 32.8129 45.4382 32.8129 39.8438C32.8129 34.2493 35.0353 28.8841 38.9911 24.9282C42.947 20.9724 48.3122 18.75 53.9066 18.75C59.5011 18.75 64.8663 20.9724 68.8222 24.9282C72.778 28.8841 75.0004 34.2493 75.0004 39.8438ZM126.563 53.9062C126.563 58.2575 124.834 62.4305 121.758 65.5072C118.681 68.584 114.508 70.3125 110.157 70.3125C105.805 70.3125 101.632 68.584 98.5557 65.5072C95.4789 62.4305 93.7504 58.2575 93.7504 53.9062C93.7504 49.555 95.4789 45.382 98.5557 42.3053C101.632 39.2285 105.805 37.5 110.157 37.5C114.508 37.5 118.681 39.2285 121.758 42.3053C124.834 45.382 126.563 49.555 126.563 53.9062Z" stroke="black" stroke-width="9.375" stroke-linecap="round" stroke-linejoin="round"/>
</svg>
