<svg width="250" height="250" viewBox="0 0 250 250" fill="none" xmlns="http://www.w3.org/2000/svg">
<rect width="250" height="250" rx="125" fill="#F3CE64"/>
<path d="M185 42.7883L168.819 64.1161L165.036 55.1199L117.88 74.9483L111.298 59.2983L67.8127 77.5839L65 70.8947L115.174 49.7964L121.756 65.4472L162.223 48.4307L158.441 39.4359L185 42.7883Z" fill="#2B5E4B"/>
<path d="M185 42.7884L168.819 64.1161L165.036 55.12L117.879 74.9484L111.298 59.2984L67.8125 77.5839L66.3652 74.1419L112.936 54.558L119.43 70.0035L185 42.7884Z" fill="#003E27"/>
<path d="M89.2076 106.854C92.0224 100.422 86.4449 93.5115 80.733 94.4007C80.733 94.4007 68.9998 95.9207 73.7456 124.01H90.7608C90.7608 124.01 91.0621 114.975 89.2076 106.854Z" fill="#662948"/>
<path d="M113.398 131.373C113.398 131.373 115.404 131.091 116.667 131.165L115.24 134.018C115.24 134.018 112.417 132.666 112.283 132.354C112.15 132.042 113.398 131.373 113.398 131.373Z" fill="#E57D61"/>
<path d="M76.3368 209.715C76.2273 210.185 75.8079 210.556 75.2907 210.564H70.1448C69.4096 210.563 68.8924 209.822 69.1047 209.144C69.5021 207.808 70.4204 206.476 70.2375 205.046C70.2 202.241 70.248 196.587 70.2395 194.751H76.0399C75.9279 196.323 75.3964 202.569 75.219 205.251C74.9971 206.893 76.3783 208.161 76.3368 209.715Z" fill="#F99370"/>
<path d="M83.8472 121.595C82.4725 125.014 81.5607 130.507 85.6436 132.417C91.8088 134.867 98.9707 134.48 105.277 132.645C105.629 132.536 105.986 132.413 106.33 132.288C106.349 132.281 106.374 132.271 106.379 132.271L107.066 132.247C108.729 132.131 109.391 134.539 107.935 135.3C107.759 135.389 107.456 135.581 107.282 135.666C99.9733 139.524 87.0945 142.385 79.784 137.424C73.8397 133.35 73.2761 125.118 75.0241 118.726C76.8958 112.72 85.8564 115.629 83.8472 121.595Z" fill="#F99370"/>
<path d="M104.119 209.715C104.078 210.163 103.704 210.564 103.191 210.564H90.3314C90.1945 209.256 90.6358 208.06 90.5646 206.627C90.5656 206.626 90.5656 206.626 90.5646 206.625C90.6232 202.818 89.8454 198.196 89.5684 194.751H96.9589C96.8768 196.22 95.8077 202.359 95.7892 204.989C96.5732 207.947 100.85 207.028 102.813 208.189C103.404 208.513 104.153 208.989 104.119 209.715Z" fill="#F99370"/>
<path d="M104.185 209.715C104.176 210.163 103.802 210.564 103.309 210.564H90.3324C90.1787 209.255 90.5207 207.945 90.5656 206.627C90.5666 206.626 90.5666 206.626 90.5656 206.625C90.5826 206.29 90.5845 205.956 90.5627 205.623C94.7463 210.678 102.272 205.949 104.095 209.329H104.096C104.159 209.454 104.187 209.588 104.185 209.715Z" fill="#1D3F70"/>
<path d="M76.3574 209.715C76.2509 210.193 75.8144 210.565 75.2914 210.564H70.1456C68.6532 210.46 69.0055 208.822 69.5957 207.882C69.5957 207.882 72.4659 205.551 75.8403 207.878C76.1278 208.431 76.4514 209.082 76.3574 209.715Z" fill="#1D3F70"/>
<path d="M85.4501 113.893C91.9297 115.259 95.8165 121.643 97.4796 127.584C98.5444 131.304 98.7302 135.195 99.6064 138.952C100.609 143.683 102.413 149.984 104.221 153.648C105.183 155.6 103.096 157.43 101.581 155.758C98.5282 151.935 95.4058 146.757 93.4128 142.302C91.8037 138.809 90.7048 135.07 89.4917 131.432C88.3744 128.502 86.8913 125.448 84.3469 123.772C84.097 123.615 83.8757 123.507 83.651 123.423C83.736 123.448 83.8469 123.46 83.9338 123.477C77.6694 122.457 79.1805 112.929 85.4501 113.893Z" fill="#F99370"/>
<path d="M103.303 151.659C103.303 151.659 102.031 153.207 100.025 153.927C97.7977 151.019 94.8934 147.268 93.1382 143.935C90.3747 136.181 87.3613 120.532 85.8027 113.779C93.5045 115.065 96.7649 123.511 98.8935 132.585C99.5241 135.277 100.057 138.025 100.576 140.656C101.401 144.845 102.194 148.741 103.303 151.659Z" fill="#3A72AA"/>
<path d="M69 204.678C69 204.678 73.1812 206.227 76.0872 204.959C77.8553 195.515 82.9792 176.457 84.7224 158.051C84.7232 157.307 90.4923 183.94 89.0169 204.36C90.8612 205.013 94.8703 206.01 96.7333 204.465C98.0783 194.851 101.681 167.604 96.0985 138.723C96.0985 138.723 84.2437 140.217 73.7453 137.482C73.7453 137.482 69.164 145.382 70.3191 162.28C71.2816 178.681 70.5609 195.005 69 204.678Z" fill="#EB5648"/>
<path d="M152.32 115.686C150.741 118.036 148.079 121.56 146.398 123.891C142.494 129.18 139.731 134.101 132.967 136.075C128.919 137.306 124.746 137.21 120.768 136.311C118.871 135.876 117.049 135.269 115.324 134.475C114.454 134.073 114.073 133.043 114.474 132.172C114.771 131.527 115.415 131.151 116.082 131.163C122.516 131.25 130.379 130.77 134.141 124.835C134.537 124.164 134.9 123.473 135.297 122.802C138.051 118.102 141.219 113.57 145.126 109.744C149.204 105.425 155.736 110.905 152.32 115.686Z" fill="#E57D61"/>
<path d="M97.077 144.158C90.9669 147.993 76.2917 145.965 71.3679 144.543C70.4171 141.981 72.4165 138.693 72.6707 135.418C72.7181 134.835 72.7081 134.252 72.6162 133.673C72.4453 132.59 72.3605 131.505 72.3562 130.437C72.3102 122.683 76.3665 115.632 81.0374 113.959C81.0374 113.933 85.8031 113.779 85.8031 113.779C88.2191 115.5 90.3392 117.423 92.6704 120.734C96.1966 125.731 93.5451 128.18 94.5721 132.924C94.7774 135.223 98.5291 143.072 97.077 144.158Z" fill="#3A72AA"/>
<path d="M81.0414 113.957C81.0414 113.957 81.0365 113.959 81.0254 113.963C81.0255 113.926 81.0305 113.923 81.0414 113.957Z" fill="#D8B09A"/>
<path d="M144.687 127.027C144.583 127.504 144.462 127.964 144.323 128.404C142.241 135.059 136.408 137.456 130.434 137.762C124.814 138.051 119.07 136.488 116.205 134.878C117.29 133.454 116.668 131.165 116.668 131.165C137.905 130.507 135.366 112.072 146.557 108.289C146.557 108.289 147.207 118.839 144.687 127.027Z" fill="#CE4ABF"/>
<path d="M157.732 209.757L157.935 209.658C157.935 209.79 158.11 210.251 158.252 210.251L164.241 210.367C164.383 210.367 164.47 210.117 164.47 209.984L164.981 209.847C164.981 209.007 164.907 208.703 164.511 208.053C163.055 206.262 164.792 198.139 164.743 196.019C165.03 195.43 158.457 195.901 158.343 195.758C158.193 195.758 158.075 195.877 158.087 196.017C158.021 198.124 159.66 206.274 158.265 208.049C157.869 208.7 157.731 208.916 157.732 209.757Z" fill="#F99370"/>
<path d="M131.77 210.564H143.701C144.725 210.526 144.742 209.558 144.542 208.759C143.885 205.978 145.047 199.595 145.261 196.737C145.319 196.213 144.88 195.758 144.318 195.758C135.629 195.725 138.323 194.822 139.069 203.906C139.439 207.27 135.651 207.499 133.377 207.947C132.442 208.167 131.445 208.513 130.987 209.173C130.558 209.764 131.007 210.564 131.77 210.564Z" fill="#F99370"/>
<path d="M144.995 209.405C144.96 209.976 144.662 210.576 143.996 210.564H131.621C128.53 209.672 133.513 205.653 139.054 205.967C139.494 206.066 141.123 206.367 143.593 206.046C144.95 205.897 145.055 208.237 144.995 209.405Z" fill="#103663"/>
<path d="M164.032 210.564H158.743C156.193 210.295 157.995 205.59 161.387 205.938C164.8 205.525 166.572 210.315 164.032 210.564Z" fill="#103663"/>
<path d="M134.57 209.004C134.472 209.004 134.378 208.946 134.337 208.85C133.862 207.753 132.974 207.406 132.965 207.403C132.657 207.292 132.835 206.807 133.143 206.926C133.187 206.942 134.238 207.343 134.804 208.648C134.879 208.811 134.749 209.007 134.57 209.004Z" fill="#E8C0A6"/>
<path d="M136.615 208.773C136.508 208.773 136.408 208.705 136.373 208.598C135.956 207.336 134.769 206.741 134.757 206.735C134.46 206.595 134.686 206.129 134.98 206.278C135.037 206.305 136.37 206.968 136.856 208.439C136.913 208.599 136.784 208.775 136.615 208.773Z" fill="#E8C0A6"/>
<path d="M138.94 208.505C138.837 208.505 138.74 208.442 138.702 208.339C138.209 207.014 137.078 206.302 137.067 206.295C136.784 206.126 137.056 205.684 137.335 205.862C137.387 205.895 138.626 206.675 139.179 208.162C139.242 208.324 139.113 208.508 138.94 208.505Z" fill="#E8C0A6"/>
<path d="M144.687 127.027C144.573 127.493 144.452 127.953 144.322 128.404C142.241 135.059 136.407 137.456 130.434 137.762C131.02 137.487 134.708 135.53 135.764 129.382C136.912 122.695 141.278 115.746 141.278 115.746L144.687 127.027Z" fill="#A523A2"/>
<path d="M163.284 207.419C161.297 206.352 159.458 207.762 159.21 207.264C159.155 207.134 159.215 206.985 159.344 206.93C159.437 206.891 161.642 205.974 163.406 206.941C163.637 207.057 163.537 207.428 163.284 207.419Z" fill="#E8C0A6"/>
<path d="M130.755 209.405H144.995C144.943 209.812 144.823 210.207 144.605 210.564H131.621C130.981 210.564 130.528 209.965 130.755 209.405Z" fill="#0F2E54"/>
<path d="M164.033 210.564H158.743C158.071 210.564 157.529 210.035 157.571 209.405H165.206C165.246 210.035 164.705 210.564 164.033 210.564Z" fill="#0F2E54"/>
<path d="M146.513 94.8227C146.513 94.8227 145.838 91.0148 149.18 89.7823L151.29 91.3683L146.513 94.8227Z" fill="#8C4225"/>
<path d="M165.577 204.244C165.577 204.244 159.936 205.527 157.03 204.148C155.518 195.268 151.318 170.536 149.856 153.589C149.8 154.577 146.728 194.43 146.143 204.148C144.134 204.778 140.101 205.535 137.844 204.013C136.83 193.784 133.573 160.1 138.479 132.592C138.479 132.592 151.922 133.992 162.42 131.022C165.308 139.731 166.076 193.762 165.577 204.244Z" fill="#1D3F70"/>
<path d="M140.015 203.133C137.975 183.664 139.11 158.974 141.345 146.922C142.017 147.181 140.567 153.36 140.148 163.695C139.282 172.784 139.813 188.038 140.015 203.133Z" fill="#163860"/>
<path d="M161.14 203.133C159.349 172.77 154.618 144.697 155.076 144.257C155.714 144.351 160.472 172.891 161.14 203.133Z" fill="#163860"/>
<path d="M148.776 107.582C148.483 105.024 148.883 101.334 149.24 99.8144C149.427 98.9937 150.015 98.3728 150.675 98.1668C152.364 97.5804 154.363 99.0191 153.843 100.923C153.69 100.826 153.2 106.253 153.538 107.76C157.995 109.097 144.59 113.494 148.776 107.582Z" fill="#F99370"/>
<path d="M153.889 100.675C153.878 100.758 153.863 100.842 153.844 100.922C153.733 100.849 153.424 103.844 153.421 106.017C151.379 106.946 149.102 106.537 148.686 106.452C148.792 103.513 148.489 98.9077 150.675 98.1668C152.27 97.4849 154.17 98.9379 153.889 100.675Z" fill="#E57D61"/>
<path d="M157.096 98.6741C156.753 100.802 156.035 103.2 154.355 104.608H154.352C153.668 105.175 152.848 105.53 151.969 105.703C147.004 107.092 141.181 101.32 145.061 97.116C146.504 95.7652 146.714 93.6039 147.894 92.2092C149.528 89.8375 153.115 89.9603 155.051 91.8947C156.802 93.6436 157.4 96.0539 157.096 98.6741Z" fill="#F99370"/>
<path d="M148.977 97.3617C148.782 96.992 149.367 96.6947 149.551 97.07C149.746 97.4397 149.16 97.7371 148.977 97.3617Z" fill="#C16256"/>
<path d="M146.27 96.9065C146.075 96.5368 146.66 96.2395 146.844 96.6148C147.039 96.9845 146.453 97.2819 146.27 96.9065Z" fill="#C16256"/>
<path d="M157.097 98.6741C156.754 100.802 156.036 103.2 154.356 104.608H154.353C154.213 104.724 154.067 104.831 153.915 104.929C155.194 103.66 155.936 100.937 155.936 100.937L155.635 98.6312C153.57 96.5392 154.459 94.1865 154.459 94.1865C151.006 95.1552 149.843 93.0247 149.843 93.0247C148.752 93.1655 147.604 92.6148 147.604 92.6148C149.122 89.9195 152.967 89.7944 155.052 91.8947C156.803 93.6435 157.401 96.0539 157.097 98.6741Z" fill="#E57D61"/>
<path d="M163.324 147.391C163.324 147.391 163.396 148.389 163.33 149.242L165.659 150.095L166.896 149.575C166.896 149.575 166.78 148.619 167.198 147.51C167.617 146.401 163.324 147.391 163.324 147.391Z" fill="#F99370"/>
<path d="M147.294 99.7077C146.705 99.7007 145.788 99.3032 146.533 98.7792C147.142 98.4497 147.589 97.1883 147.594 97.1756C147.644 97.0265 147.878 97.1071 147.824 97.2561C147.804 97.3116 147.341 98.6193 146.65 98.9936C146.172 99.2859 147.167 99.5693 147.578 99.4245C147.642 99.404 147.71 99.4393 147.731 99.5033C147.766 99.7223 147.447 99.6913 147.294 99.7077Z" fill="#C16256"/>
<path d="M164.289 146.279C163.563 146.899 162.474 147.384 161.14 147.749V147.75C153.494 149.843 137.817 148.022 136.523 145.327C135.49 143.174 135.42 136.451 136.881 129.314C138.815 119.403 141.854 112.422 148.774 107.584C148.739 107.725 147.857 111.393 153.538 107.76L155.285 108.071C155.873 117.57 168.679 141.886 164.289 146.279Z" fill="#CE4ABF"/>
<path d="M155.502 89.7823L155.467 89.8533C154.318 88.49 152.225 87.8235 151.746 86.4359C151.746 86.4359 151.036 87.766 151.119 89.2519C150.562 88.6279 150.052 87.944 149.652 87.2109C149.088 87.7803 148.786 88.4327 148.695 89.1024C146.904 88.7123 145.334 89.4305 145.334 89.4305C146.254 92.0315 148.401 92.6043 150.086 92.6139C151.438 93.9077 153.57 94.5176 155.662 93.3567C154.511 94.3247 154.374 97.3312 157.524 99.448C157.524 99.448 158.071 97.6204 157.953 95.9199C160.906 90.7999 155.502 89.7823 155.502 89.7823Z" fill="#8C4225"/>
<path d="M158.449 99.7491C157.897 102.175 154.995 101.561 155.473 99.12C156.024 96.6945 158.926 97.3081 158.449 99.7491Z" fill="#F99370"/>
<path d="M157.682 100.249C157.602 100.25 157.541 100.168 157.565 100.091C158.015 98.7841 157.481 98.2736 156.588 98.6215C156.442 98.6812 156.351 98.4496 156.499 98.3944C157.515 97.9795 158.349 98.6223 157.798 100.163C157.782 100.215 157.734 100.249 157.682 100.249Z" fill="#C16256"/>
<path d="M156.544 100.078C156.166 100.048 156.887 98.8803 157.812 98.8177C157.88 98.8132 157.937 98.8641 157.941 98.9313C157.946 98.9985 157.895 99.0565 157.828 99.0609C156.886 99.1584 156.767 100.047 156.544 100.078Z" fill="#C16256"/>
<path d="M146.144 204.148C146.097 203.294 149.857 153.589 149.857 153.589C149.857 153.589 148.081 154.477 147.659 159.755C147.292 164.344 145.102 194.838 144.536 202.723C140.675 203.531 137.656 202.231 137.656 202.231C137.774 203.386 137.845 204.013 137.845 204.013C139.695 205.26 142.736 204.977 144.879 204.488C145.423 204.369 145.842 204.242 146.032 204.183C146.07 204.171 146.108 204.16 146.144 204.148Z" fill="#163860"/>
<path d="M165.578 204.244C165.578 204.244 159.937 205.527 157.031 204.148C157.031 204.148 156.911 203.461 156.701 202.231C156.701 202.231 160.546 203.274 165.517 202.231C165.54 203.43 165.56 204.144 165.578 204.244Z" fill="#163860"/>
<path d="M89.0176 204.36C89.0176 204.36 94.4088 206.368 96.734 204.465C96.734 204.465 96.8389 203.832 97.0058 202.658C97.0058 202.658 92.9613 204.054 89.1334 201.987L89.1321 201.988C89.103 202.783 89.0644 203.574 89.0176 204.36Z" fill="#CE3932"/>
<path d="M79.2331 144.065C77.5695 148.311 73.6973 150.021 73.4931 150.385C73.4771 150.441 71.8947 156.059 72.2593 167.176C72.9185 177.77 71.258 194.277 70.3227 202.639C70.0184 202.548 69.7051 202.444 69.3808 202.324C69.2552 203.265 69.1269 204.057 69 204.678C69 204.678 73.1812 206.227 76.0872 204.959C76.0872 204.959 76.2569 204.131 76.5495 202.658C76.5495 202.658 74.3659 203.796 70.508 202.694C73.9928 191.741 71.5767 159.713 73.9701 150.636C74.6457 150.264 78.2664 148.124 79.7249 144.25C79.852 143.924 79.3456 143.756 79.2331 144.065Z" fill="#CE3932"/>
<path d="M89.1317 201.988C89.1028 202.783 89.0641 203.574 89.0172 204.36C89.0172 204.36 89.616 204.584 90.502 204.81C90.4823 190.621 90.4983 167.721 84.7227 158.051C84.7227 158.051 89.9625 179.73 89.1317 201.988Z" fill="#CE3932"/>
<path d="M106.297 132.324C108.539 131.156 110.888 131.416 114.391 132.674C115.609 132.823 116.427 135.104 114.469 135.474C111.61 136.015 107.931 135.266 107.931 135.266L106.297 132.324Z" fill="#F99370"/>
<path d="M109.937 132.836C111.005 131.816 112.506 131.312 113.974 131.361C114.902 131.336 115.542 132.727 114.611 132.725C113.453 132.528 111.598 132.758 110.606 133.425C110.182 133.861 109.511 133.29 109.937 132.836Z" fill="#E57D61"/>
<path d="M110.985 135.495C110.536 136.292 109.583 135.742 110.049 134.954C110.498 134.157 111.451 134.708 110.985 135.495Z" fill="#E57D61"/>
<path d="M111.934 135.592C111.485 136.389 110.532 135.838 110.998 135.051C111.447 134.254 112.4 134.804 111.934 135.592Z" fill="#E57D61"/>
<path d="M112.903 135.688C112.454 136.485 111.501 135.935 111.967 135.147C112.416 134.35 113.369 134.901 112.903 135.688Z" fill="#E57D61"/>
<path d="M113.888 135.688C113.439 136.485 112.485 135.935 112.951 135.147C113.4 134.35 114.354 134.901 113.888 135.688Z" fill="#E57D61"/>
<path d="M100.575 140.656V140.659C100.575 140.659 98.3876 141.527 97.2214 141.721C96.0551 141.916 93.0703 136.077 93.0703 136.077L95.0036 132.585C95.0036 132.585 96.351 132.742 98.8918 132.585H98.8932C99.5238 135.277 100.057 138.025 100.575 140.656Z" fill="#23659B"/>
<path d="M78.2085 135.119C78.2085 135.119 77.1327 140.057 75.3689 138.737C73.6051 137.416 72.6715 135.418 72.6715 135.418H72.67C72.7173 134.835 72.7073 134.251 72.6155 133.673C72.4445 132.59 72.3597 131.505 72.3555 130.436L78.2085 135.119Z" fill="#23659B"/>
<path d="M155.285 108.071C155.316 110.239 149.756 112.152 149.441 112.155L148.775 110.183C147.919 110.394 147.166 111.592 147.166 111.592C144.713 109.156 146.956 107.252 148.775 107.582C148.775 107.582 148.775 107.583 148.774 107.584C148.739 107.724 148.352 110.94 153.517 107.648C154.182 107.34 155.285 108.071 155.285 108.071Z" fill="#A523A2"/>
<path d="M177.722 155.57L151.395 159.368L154.163 178.56L180.491 174.762L177.722 155.57Z" fill="#8C4225"/>
<path d="M154.148 178.557L152.629 177.687L149.857 158.497L151.376 159.366L154.148 178.557Z" fill="#7F341C"/>
<path d="M149.857 158.497L176.192 154.704L177.705 155.568L151.376 159.366L149.857 158.497Z" fill="#7F341C"/>
<path d="M169.556 155.659C166.977 150.364 160.304 151.859 158.808 157.207C158.782 157.644 159.074 158.037 159.453 157.979C159.906 157.904 159.961 157.35 160.153 157.014C161.229 154.575 164.166 152.988 166.608 154.399C167.357 154.802 168.035 155.474 168.511 156.236C168.914 156.879 169.673 156.295 169.556 155.659Z" fill="#8C4225"/>
<path d="M151.375 159.366L165.925 167.062L177.704 155.568L151.375 159.366Z" fill="#99452B"/>
<path d="M166.308 168.702C165.704 168.878 165.009 168.591 164.919 167.919C164.829 167.12 164.312 165.599 165.542 165.422C166.147 165.246 166.842 165.534 166.932 166.205C167.022 167.004 167.539 168.525 166.308 168.702Z" fill="#F4D4BE"/>
<path d="M163.329 149.242C163.329 149.242 162.117 151.846 162.117 154.663L166.121 154.891C167.422 153.009 166.895 149.575 166.895 149.575L163.329 149.242Z" fill="#F99370"/>
<path d="M164.289 146.279C163.563 146.899 162.473 147.384 161.139 147.749C161.451 143.916 160.827 137.851 158.132 131.021C155.438 124.191 155.559 117.169 155.559 117.169L157.547 117.319C161.038 127.102 167.486 143.552 164.289 146.279Z" fill="#A523A2"/>
<path d="M155.285 108.071C169.877 111.297 173.942 134.261 166.896 149.575C166.896 149.575 165.333 150.095 163.33 149.242C163.33 149.242 163.261 138.297 158.835 129.471C154.408 120.645 155.285 108.071 155.285 108.071Z" fill="#CE4ABF"/>
<path d="M76.3579 209.715C76.2514 210.193 75.8148 210.565 75.2919 210.564H70.146C69.6243 210.566 69.1888 210.193 69.082 209.715H76.3579Z" fill="#0F2E54"/>
<path d="M104.183 209.715C104.174 210.163 103.801 210.564 103.308 210.564H90.3308C90.2862 210.273 90.2721 210.02 90.2869 209.715H104.183Z" fill="#0F2E54"/>
<path d="M103.383 151.756C103.383 151.756 102.196 153.365 100.191 154.084C100.191 154.084 99.6312 153.779 99.2793 152.965C99.2793 152.965 102.063 151.955 102.799 150.285C103.027 150.523 103.383 151.222 103.383 151.756Z" fill="#23659B"/>
<path d="M100.358 161.834C98.9243 148.78 97.7846 143.41 97.204 141.312C96.5812 138.657 94.4916 134.812 95.004 128.971C95.4315 124.095 93.8263 122.075 93.277 121.535H93.2771C91.3342 117.95 87.0586 114.063 87.0586 114.063C86.5418 113.574 85.8027 113.779 85.8027 113.779C89.4367 118.111 90.567 121.245 90.567 121.245L90.5672 121.245C87.6143 121.165 85.0084 121.353 82.9299 121.611C82.0731 117.667 81.0364 113.959 81.0364 113.959C80.4543 113.776 79.9232 114.209 79.9232 114.209C79.9866 119.221 80.4778 121.981 80.4778 121.981C78.7322 122.294 77.7356 122.585 77.7356 122.585C76.7498 129.414 74.9856 141.331 74.9856 141.331L74.9858 141.331C72.8035 141.073 71.4206 140.827 71.4206 140.827C70.5487 141.742 71.1232 142.67 71.1232 142.67C72.0568 143.521 74.1568 144.257 74.1568 144.257C73.95 146.437 73.6154 174.992 75.2355 183.078C75.4724 184.259 75.7498 185.003 76.0772 185.165C78.6396 186.438 100.265 186.189 100.468 184.492C100.508 184.157 100.591 183.657 100.689 182.956C101.082 180.098 101.683 173.892 100.358 161.834Z" fill="#1D3F70"/>
<path d="M105.508 136.582C96.3425 144.053 78.3341 145.344 72.6585 134.233C67.4398 123.915 74.2834 115.419 79.9226 114.209C79.9226 114.209 79.7843 124.117 82.5833 129.129C85.5886 134.511 99.4079 133.844 104.584 132.821C106.464 134.694 105.508 136.582 105.508 136.582Z" fill="#3A72AA"/>
<path d="M105.855 136.405C105.386 136.948 104.82 137.083 104.47 137.32C104.895 134.194 103.303 133.035 103.303 133.035C103.995 132.708 104.775 132.821 104.775 132.821C106.297 134.285 105.855 136.405 105.855 136.405Z" fill="#23659B"/>
<path d="M114.299 133.6C113.136 133.561 111.41 133.591 111.958 133.287C111.979 133.289 114.067 133.49 115.417 133.354C115.933 133.653 114.488 133.586 114.299 133.6Z" fill="#E57D61"/>
<path d="M113.88 134.44C113.852 134.435 111.399 134.432 112.035 134.1C114.08 134.414 115.607 134.104 115.622 134.101C116.113 134.343 114.995 134.421 113.88 134.44Z" fill="#E57D61"/>
<path d="M163.167 154.892C162.741 155.701 161.772 155.179 162.215 154.378C162.641 153.568 163.61 154.091 163.167 154.892Z" fill="#F99370"/>
<path d="M164.118 154.961C163.692 155.771 162.723 155.248 163.166 154.447C163.592 153.637 164.561 154.16 164.118 154.961Z" fill="#F99370"/>
<path d="M165.088 155.029C164.663 155.839 163.694 155.316 164.137 154.516C164.563 153.706 165.532 154.229 165.088 155.029Z" fill="#F99370"/>
<path d="M166.073 155.001C165.647 155.811 164.678 155.288 165.121 154.487C165.547 153.678 166.516 154.2 166.073 155.001Z" fill="#F99370"/>
<path d="M85.8026 113.779C86.0959 111.221 85.6958 107.532 85.339 106.012C84.6604 103.013 79.975 104.155 80.7356 107.12C80.8886 107.024 81.0364 113.959 81.0364 113.959C81.8001 115.172 85.803 115.734 85.8026 113.779Z" fill="#F99370"/>
<path d="M80.998 112.288C83.0403 113.216 85.4762 112.735 85.8928 112.649C86.5719 102.244 81.2642 101.179 80.998 112.288Z" fill="#E57D61"/>
<path d="M77.4817 104.872C77.8247 106.999 78.5429 109.398 80.2236 110.805H80.2264C80.9053 111.369 81.7328 111.728 82.6095 111.901C87.5745 113.289 93.3973 107.517 89.5172 103.313C88.1072 102.011 87.8081 99.7025 86.6843 98.4067C85.05 96.0349 81.4633 96.1577 79.5267 98.0921C77.7765 99.8411 77.1781 102.251 77.4817 104.872Z" fill="#F99370"/>
<path d="M87.7172 107.336L84.9271 105.91C84.6724 107.604 86.4382 108.686 87.7172 107.336Z" fill="#F9F8F3"/>
<path d="M85.6017 103.559C85.7964 103.189 85.2112 102.892 85.0275 103.268C84.8327 103.637 85.418 103.935 85.6017 103.559Z" fill="#C16256"/>
<path d="M88.3088 103.104C88.5034 102.734 87.9182 102.437 87.7345 102.812C87.5397 103.182 88.125 103.479 88.3088 103.104Z" fill="#C16256"/>
<path d="M87.7167 107.458C87.6472 107.466 84.9335 106.036 84.8711 106.019C84.8112 105.988 84.7875 105.915 84.818 105.855C84.7975 105.544 87.7107 107.265 87.7721 107.227C87.8855 107.28 87.84 107.462 87.7167 107.458Z" fill="#C16256"/>
<path d="M87.2853 105.905C87.1328 105.89 86.8143 105.919 86.8489 105.701C86.8695 105.637 86.9384 105.602 87.0023 105.622C87.4127 105.767 88.4073 105.483 87.9303 105.191C87.2393 104.817 86.7754 103.509 86.7561 103.454C86.702 103.306 86.9361 103.223 86.9863 103.373C86.9907 103.386 87.4382 104.647 88.0464 104.977C88.7921 105.501 87.8748 105.898 87.2853 105.905Z" fill="#C16256"/>
<path d="M77.4802 104.872C77.8231 106.999 78.5414 109.398 80.222 110.805H80.2248C79.2933 109.649 78.7124 107.061 78.7124 107.061L79.1527 105.911C86.5407 103.526 85.9074 97.5925 85.9074 97.5925C84.8051 96.6295 83.3171 96.4347 81.9015 96.7867C78.433 97.6836 77.0438 101.43 77.4802 104.872Z" fill="#E57D61"/>
<path d="M85.1233 97.0648C84.7509 96.8209 84.3865 96.6145 84.0301 96.4397C85.8801 87.924 73.9795 88.3016 78.0576 96.8129C76.1403 98.4397 75.4744 101.538 76.733 104.008L79.106 105.318C85.7178 102.916 85.1233 97.0648 85.1233 97.0648Z" fill="#662948"/>
<path d="M76.1289 105.947C76.6805 108.372 79.5823 107.759 79.1051 105.317C78.5535 102.892 75.6518 103.506 76.1289 105.947Z" fill="#F99370"/>
<path d="M76.8971 106.446C76.8448 106.446 76.7965 106.413 76.7805 106.36C76.2296 104.82 77.0659 104.176 78.0793 104.592C78.2268 104.648 78.1369 104.878 77.9904 104.819C77.0961 104.471 76.5648 104.982 77.0137 106.289C77.0385 106.365 76.9772 106.448 76.8971 106.446Z" fill="#C16256"/>
<path d="M78.0342 106.276C77.8131 106.247 77.6911 105.354 76.7506 105.259C76.6834 105.254 76.6326 105.196 76.637 105.129C76.6414 105.062 76.7005 105.011 76.7666 105.015C77.6911 105.078 78.4122 106.244 78.0342 106.276Z" fill="#C16256"/>
<path d="M77.4629 107.062C77.4577 107.417 78.0155 107.417 78.0101 107.062C78.0153 106.707 77.4577 106.707 77.4629 107.062Z" fill="#F4D4BE"/>
<path d="M163.081 155.121C162.841 155.097 163.142 153.897 163.328 153.039C163.343 152.986 163.398 152.955 163.451 152.97C163.504 152.985 163.535 153.04 163.52 153.093C163.225 153.982 163.294 155.068 163.081 155.121Z" fill="#E57D61"/>
<path d="M164.038 155.121C163.793 155.097 164.136 153.973 164.327 153.124C164.343 153.071 164.399 153.04 164.451 153.056C164.504 153.072 164.534 153.127 164.518 153.18C164.222 154.04 164.247 155.06 164.038 155.121Z" fill="#E57D61"/>
<path d="M165.088 155.129C164.822 155.072 165.306 154.116 165.271 153.15C165.272 153.095 165.318 153.051 165.373 153.052C165.428 153.053 165.472 153.099 165.471 153.154C165.453 154.017 165.195 155.013 165.184 155.055C165.172 155.099 165.132 155.129 165.088 155.129Z" fill="#E57D61"/>
<path d="M84.0938 103.215C84.077 103.215 84.0598 103.212 84.0435 103.204C83.9827 103.177 83.9558 103.105 83.9837 103.044C84.0038 103 84.4903 101.967 85.7902 101.95C85.8579 101.952 85.9122 102.003 85.913 102.07C85.9138 102.137 85.8602 102.192 85.7933 102.193C84.6453 102.207 84.2085 103.135 84.2042 103.145C84.1838 103.189 84.1398 103.215 84.0938 103.215Z" fill="#C16256"/>
<path d="M88.5007 102.193C88.4691 102.193 88.4375 102.181 88.4136 102.156C87.962 101.691 87.1823 101.922 87.1744 101.925C87.11 101.944 87.0427 101.908 87.0229 101.844C87.0033 101.78 87.0391 101.713 87.103 101.693C87.1407 101.681 88.0315 101.414 88.5876 101.987C88.6342 102.035 88.6331 102.112 88.585 102.159C88.5616 102.181 88.5311 102.193 88.5007 102.193Z" fill="#C16256"/>
<path d="M150.485 96.9468C150.45 96.9468 150.414 96.9313 150.39 96.9015C149.83 96.2044 149.077 96.0956 149.07 96.0945C149.003 96.0855 148.957 96.0245 148.966 95.9581C148.975 95.8917 149.036 95.846 149.102 95.8541C149.137 95.8588 149.959 95.9779 150.58 96.7495C150.622 96.8016 150.613 96.8779 150.561 96.9199C150.538 96.938 150.512 96.9468 150.485 96.9468Z" fill="#C16256"/>
<path d="M147.678 95.8945C147.66 95.8945 147.642 95.8907 147.625 95.8823C147.038 95.596 146.289 95.7657 146.282 95.7676C146.217 95.7829 146.151 95.7424 146.136 95.6772C146.121 95.612 146.161 95.5469 146.226 95.5316C146.26 95.5236 147.066 95.3397 147.731 95.6644C147.791 95.6937 147.816 95.7663 147.787 95.8265C147.766 95.8695 147.723 95.8945 147.678 95.8945Z" fill="#C16256"/>
<path d="M147.175 100.753C147.037 100.753 146.954 100.738 146.942 100.736C146.877 100.724 146.833 100.66 146.846 100.594C146.858 100.529 146.921 100.485 146.987 100.498C146.996 100.499 147.925 100.657 149.007 99.7355C149.058 99.6919 149.134 99.6983 149.178 99.7491C149.221 99.8001 149.215 99.8765 149.164 99.92C148.309 100.648 147.545 100.753 147.175 100.753Z" fill="#C16256"/>
<path d="M148.232 113.828C148.232 114.175 147.95 114.456 147.603 114.456C147.256 114.456 146.975 114.175 146.975 113.828C146.975 113.481 147.256 113.199 147.603 113.199C147.95 113.199 148.232 113.481 148.232 113.828Z" fill="#A523A2"/>
<path d="M147.343 116.541C147.343 116.888 147.062 117.169 146.714 117.169C146.367 117.169 146.086 116.888 146.086 116.541C146.086 116.194 146.367 115.912 146.714 115.912C147.062 115.912 147.343 116.194 147.343 116.541Z" fill="#A523A2"/>
<path d="M107.746 155.61C107.321 156.11 106.372 155.195 105.767 155.221C106.044 156.111 106.603 156.909 106.6 156.915C107.445 157.717 108.332 158.466 109.26 159.174C109.778 160.822 106.407 158.071 105.948 157.839C105.943 157.843 105.938 157.846 105.933 157.851C106.594 158.86 107.318 159.831 108.126 160.729C108.323 162.591 105.328 158.727 104.983 158.365C104.98 158.366 104.977 158.367 104.974 158.368C105.416 159.43 106.001 160.431 106.695 161.349C106.658 163.221 104.048 159.11 103.811 158.62C103.806 158.621 103.801 158.621 103.796 158.622C104.009 159.512 104.346 160.37 104.728 161.201C104.441 162.972 102.735 159.057 102.579 158.586C102.342 158.355 101.344 156.696 101.079 154.632C100.992 153.955 103.239 152.818 103.689 153.307C104.028 153.674 105.285 154.051 105.552 154.214C106.129 154.45 107.866 154.883 107.746 155.61Z" fill="#F99370"/>
<path d="M100.688 182.957C100.59 183.657 100.507 184.157 100.467 184.492C100.264 186.19 78.6385 186.438 76.0761 185.166C75.7486 185.003 75.4714 184.259 75.2344 183.079C75.2344 183.079 86.0572 185.026 100.688 182.957Z" fill="#163860"/>
<path d="M92.1935 123.462C92.6779 123.462 93.0705 123.069 93.0705 122.585C93.0705 122.101 92.6779 121.708 92.1935 121.708C91.7091 121.708 91.3164 122.101 91.3164 122.585C91.3164 123.069 91.7091 123.462 92.1935 123.462Z" fill="#163860"/>
<path d="M82.9397 123.27C82.9397 123.754 82.547 124.147 82.0626 124.147C81.5782 124.147 81.1855 123.754 81.1855 123.27C81.1855 122.785 81.5782 122.393 82.0626 122.393C82.547 122.393 82.9397 122.785 82.9397 123.27Z" fill="#163860"/>
</svg>
