<svg width="100" height="100" viewBox="0 0 100 100" fill="none" xmlns="http://www.w3.org/2000/svg">
<path d="M74.9174 44.9584V61.625C74.9174 62.7084 74.8757 63.75 74.7507 64.75C73.7923 76 67.1673 81.5833 54.959 81.5833H53.2924C52.2507 81.5833 51.2506 82.0833 50.6256 82.9166L45.6257 89.5833C43.4174 92.5417 39.834 92.5417 37.6256 89.5833L32.6256 82.9166C32.0839 82.2083 30.8757 81.5833 29.959 81.5833H28.2924C15.0007 81.5833 8.33398 78.2917 8.33398 61.625V44.9584C8.33398 32.75 13.959 26.125 25.1674 25.1667C26.1674 25.0417 27.209 25 28.2924 25H54.959C68.2507 25 74.9174 31.6667 74.9174 44.9584Z" stroke="#0A0A0A" stroke-width="9.38" stroke-miterlimit="10" stroke-linecap="round" stroke-linejoin="round"/>
<path d="M91.5827 28.2917V44.9584C91.5827 57.2084 85.9577 63.7917 74.7493 64.75C74.8743 63.75 74.916 62.7084 74.916 61.625V44.9584C74.916 31.6667 68.2493 25 54.9577 25H28.291C27.2077 25 26.166 25.0417 25.166 25.1667C26.1243 13.9584 32.7493 8.33333 44.9577 8.33333H71.6243C84.916 8.33333 91.5827 15 91.5827 28.2917Z" stroke="#0A0A0A" stroke-width="9.38" stroke-miterlimit="10" stroke-linecap="round" stroke-linejoin="round"/>
<path d="M56.2306 55.2083H56.2681" stroke="#0A0A0A" stroke-width="9.38" stroke-linecap="round" stroke-linejoin="round"/>
<path d="M41.6486 55.2083H41.6861" stroke="#0A0A0A" stroke-width="9.38" stroke-linecap="round" stroke-linejoin="round"/>
<path d="M27.0646 55.2083H27.1021" stroke="#0A0A0A" stroke-width="9.38" stroke-linecap="round" stroke-linejoin="round"/>
</svg>
