<svg width="200" height="200" viewBox="0 0 200 200" fill="none" xmlns="http://www.w3.org/2000/svg">
<path d="M100.001 16.6666C146.026 16.6666 183.335 53.975 183.335 100C183.335 146.025 146.026 183.333 100.001 183.333C53.9763 183.333 16.668 146.025 16.668 100C16.668 53.975 53.9763 16.6666 100.001 16.6666ZM100.001 33.3333C82.3202 33.3333 65.3633 40.3571 52.8609 52.8595C40.3584 65.3619 33.3346 82.3189 33.3346 100C33.3346 117.681 40.3584 134.638 52.8609 147.14C65.3633 159.643 82.3202 166.667 100.001 166.667C117.682 166.667 134.639 159.643 147.142 147.14C159.644 134.638 166.668 117.681 166.668 100C166.668 82.3189 159.644 65.3619 147.142 52.8595C134.639 40.3571 117.682 33.3333 100.001 33.3333ZM100.001 133.333C102.211 133.333 104.331 134.211 105.894 135.774C107.457 137.337 108.335 139.456 108.335 141.667C108.335 143.877 107.457 145.996 105.894 147.559C104.331 149.122 102.211 150 100.001 150C97.7912 150 95.6716 149.122 94.1088 147.559C92.5459 145.996 91.668 143.877 91.668 141.667C91.668 139.456 92.5459 137.337 94.1088 135.774C95.6716 134.211 97.7912 133.333 100.001 133.333ZM100.001 54.1666C107.02 54.1668 113.82 56.6112 119.233 61.08C124.645 65.5487 128.333 71.7628 129.662 78.6548C130.991 85.5468 129.879 92.6865 126.516 98.8476C123.153 105.009 117.75 109.806 111.235 112.417C110.27 112.771 109.4 113.345 108.693 114.092C108.326 114.508 108.268 115.042 108.276 115.592L108.335 116.667C108.332 118.791 107.519 120.834 106.061 122.378C104.603 123.923 102.61 124.852 100.49 124.976C98.3693 125.101 96.2815 124.411 94.6527 123.048C93.0239 121.685 91.9772 119.751 91.7263 117.642L91.668 116.667V114.583C91.668 104.975 99.418 99.2083 105.035 96.95C107.321 96.0371 109.315 94.5189 110.803 92.5582C112.291 90.5975 113.217 88.2685 113.481 85.8213C113.746 83.374 113.338 80.901 112.303 78.6678C111.268 76.4346 109.644 74.5255 107.606 73.1456C105.567 71.7657 103.192 70.9671 100.734 70.8355C98.2759 70.704 95.8285 71.2444 93.6546 72.3989C91.4806 73.5533 89.6622 75.2782 88.3946 77.3881C87.127 79.4981 86.458 81.9135 86.4596 84.375C86.4596 86.5851 85.5817 88.7047 84.0189 90.2675C82.4561 91.8303 80.3364 92.7083 78.1263 92.7083C75.9162 92.7083 73.7966 91.8303 72.2338 90.2675C70.6709 88.7047 69.793 86.5851 69.793 84.375C69.793 76.3632 72.9756 68.6796 78.6408 63.0144C84.306 57.3493 91.9896 54.1666 100.001 54.1666Z" fill="#003E27"/>
</svg>
