<svg width="21" height="24" viewBox="0 0 21 24" fill="none" xmlns="http://www.w3.org/2000/svg">
<g clip-path="url(#clip0_2022_3680)">
<path d="M17.4655 2.03958C16.3769 0.798799 14.4091 0.266846 11.8916 0.266846H4.58539C4.33631 0.266807 4.09538 0.355651 3.90595 0.517397C3.71652 0.679142 3.59103 0.903172 3.55204 1.14919L0.509848 20.4435C0.449379 20.824 0.743988 21.1685 1.12961 21.1685H5.64024L6.77305 13.9833L6.7379 14.2083C6.8186 13.7004 7.25297 13.3258 7.76735 13.3258H9.91079C14.1216 13.3258 17.4187 11.6154 18.3818 6.66786C18.4104 6.52153 18.4352 6.37911 18.4566 6.23997C18.335 6.1756 18.335 6.1756 18.4566 6.23997C18.7434 4.4113 18.4546 3.16653 17.4655 2.03958Z" fill="#27346A"/>
<path d="M8.49899 5.58122C8.62227 5.52241 8.75716 5.49198 8.89375 5.49216H14.6217C15.3 5.49216 15.9327 5.5363 16.5108 5.62935C16.6726 5.65516 16.8335 5.68596 16.9934 5.72169C17.2199 5.7717 17.4439 5.83289 17.6645 5.90505C17.9487 5.99997 18.2134 6.11052 18.4566 6.23997C18.7434 4.4106 18.4546 3.16653 17.4655 2.03958C16.3763 0.798799 14.4091 0.266846 11.8916 0.266846H4.58477C4.07032 0.266846 3.63266 0.641377 3.55204 1.14919L0.509848 20.4428C0.449379 20.8239 0.743989 21.1679 1.12899 21.1679H5.64024L7.99047 6.26403C8.0136 6.11755 8.07196 5.97887 8.16054 5.85993C8.24912 5.74099 8.36527 5.64534 8.49899 5.58122Z" fill="#27346A"/>
<path d="M18.3822 6.66788C17.4191 11.6148 14.1221 13.3258 9.91123 13.3258H7.76717C7.25279 13.3258 6.81834 13.7004 6.73842 14.2083L5.32912 23.1423C5.27646 23.4752 5.53396 23.7769 5.87084 23.7769H9.67318C9.89099 23.7769 10.1016 23.6991 10.2672 23.5576C10.4328 23.4161 10.5425 23.2202 10.5765 23.0051L10.6136 22.8113L11.3302 18.2694L11.3764 18.0184C11.4104 17.8033 11.5201 17.6074 11.6857 17.4659C11.8512 17.3244 12.0619 17.2466 12.2797 17.2466H12.8487C16.5321 17.2466 19.4162 15.7501 20.259 11.4223C20.6108 9.61374 20.4288 8.10374 19.4982 7.04312C19.2159 6.72187 18.8654 6.45655 18.457 6.23999C18.4349 6.37983 18.4109 6.52155 18.3822 6.66788Z" fill="#2790C3"/>
<path d="M17.4503 5.83814C17.3001 5.7943 17.1485 5.75547 16.9958 5.72174C16.8358 5.68657 16.6749 5.65599 16.5132 5.63002C15.9345 5.53635 15.3023 5.49213 14.6234 5.49213H8.89609C8.75942 5.4919 8.62446 5.52259 8.50133 5.58189C8.36743 5.64579 8.25114 5.74137 8.16251 5.86035C8.07389 5.97933 8.01561 6.11812 7.99273 6.26471L6.77539 13.9833L6.74023 14.2083C6.82031 13.7004 7.25469 13.3258 7.76914 13.3258H9.9132C14.124 13.3258 17.421 11.6155 18.3841 6.66791C18.4128 6.52158 18.4369 6.37978 18.459 6.24002C18.2151 6.11137 17.9511 5.99994 17.6668 5.90572C17.5951 5.88194 17.5229 5.85941 17.4504 5.83814" fill="#1F264F"/>
</g>
<defs>
<clipPath id="clip0_2022_3680">
<rect width="20" height="23.5938" fill="white" transform="translate(0.5 0.203125)"/>
</clipPath>
</defs>
</svg>
