<svg width="150" height="150" viewBox="0 0 150 150" fill="none" xmlns="http://www.w3.org/2000/svg">
<path fill-rule="evenodd" clip-rule="evenodd" d="M27.3442 18.675C25.5301 17.8596 23.4664 17.7982 21.607 18.5043C19.7476 19.2103 18.2448 20.626 17.4292 22.44L1.20668 58.4625C0.390343 60.2747 0.32676 62.3369 1.0299 64.196C1.73303 66.0551 3.14538 67.5591 4.95668 68.3775L16.1317 73.41C17.0294 73.8154 17.9982 74.0399 18.9827 74.0709C19.9673 74.1018 20.9483 73.9385 21.8697 73.5903C22.7911 73.242 23.6349 72.7157 24.3529 72.0413C25.0708 71.367 25.649 70.5578 26.0542 69.66L42.2767 33.63C43.093 31.8178 43.1566 29.7556 42.4535 27.8965C41.7503 26.0374 40.338 24.5334 38.5267 23.715L27.3442 18.675ZM14.0467 63.135C14.6583 63.4108 15.3183 63.5634 15.9889 63.5841C16.6595 63.6048 17.3276 63.4933 17.9551 63.2558C18.5826 63.0183 19.1572 62.6595 19.646 62.2C20.1349 61.7405 20.5284 61.1891 20.8042 60.5775C21.08 59.9659 21.2326 59.3059 21.2533 58.6353C21.274 57.9647 21.1624 57.2966 20.925 56.6691C20.6875 56.0416 20.3287 55.467 19.8692 54.9782C19.4096 54.4893 18.8583 54.0958 18.2467 53.82C17.0114 53.263 15.6055 53.2196 14.3383 53.6992C13.071 54.1788 12.0461 55.1422 11.4892 56.3775C10.9322 57.6127 10.8888 59.0186 11.3684 60.2859C11.848 61.5532 12.8114 62.578 14.0467 63.135ZM142.612 69.36C143.533 69.0105 144.376 68.4829 145.093 67.8075C145.81 67.1321 146.387 66.322 146.791 65.4236C147.195 64.5251 147.418 63.5559 147.447 62.5713C147.476 61.5866 147.311 60.6059 146.962 59.685L132.974 22.755C132.625 21.8334 132.098 20.9895 131.423 20.2716C130.748 19.5538 129.938 18.976 129.04 18.5713C128.141 18.1666 127.172 17.943 126.187 17.9132C125.202 17.8833 124.221 18.0479 123.299 18.3975L111.847 22.74C110.926 23.0895 110.083 23.6171 109.366 24.2925C108.649 24.9679 108.072 25.778 107.668 26.6764C107.264 27.5749 107.041 28.5441 107.011 29.5287C106.982 30.5133 107.147 31.4941 107.497 32.415L121.492 69.3525C122.196 71.212 123.61 72.7157 125.423 73.5328C127.236 74.3499 129.299 74.4137 131.159 73.71L142.612 69.36ZM120.584 28.5225C119.957 28.7604 119.382 29.1195 118.894 29.5793C118.405 30.0391 118.012 30.5907 117.736 31.2025C117.461 31.8144 117.309 32.4744 117.288 33.1451C117.268 33.8158 117.38 34.4839 117.618 35.1112C117.856 35.7386 118.215 36.313 118.675 36.8016C119.135 37.2902 119.686 37.6835 120.298 37.9589C120.91 38.2344 121.57 38.3866 122.241 38.407C122.911 38.4273 123.579 38.3154 124.207 38.0775C125.474 37.5971 126.498 36.6331 127.054 35.3974C127.611 34.1618 127.653 32.7558 127.173 31.4887C126.693 30.2217 125.729 29.1973 124.493 28.641C123.257 28.0848 121.851 28.0421 120.584 28.5225Z" fill="black"/>
<path fill-rule="evenodd" clip-rule="evenodd" d="M111.637 30.8025H111.697C112.188 30.7597 112.666 30.6205 113.103 30.3931C113.54 30.1656 113.928 29.8542 114.245 29.4768C114.562 29.0993 114.801 28.6631 114.95 28.1931C115.098 27.7231 115.152 27.2285 115.11 26.7375C115.067 26.2465 114.928 25.7688 114.7 25.3316C114.473 24.8944 114.161 24.5062 113.784 24.1894C113.406 23.8725 112.97 23.6331 112.5 23.4847C112.03 23.3364 111.535 23.2822 111.045 23.325H110.985L110.79 23.3475L110.062 23.4225L107.415 23.6775C105.187 23.9025 102.105 24.255 98.6995 24.705C91.987 25.59 83.6695 26.94 78.2245 28.755C75.5845 29.6325 72.7945 31.335 70.1245 33.285C67.417 35.265 64.612 37.6725 61.927 40.17C57.1616 44.6646 52.6091 49.3798 48.2845 54.3C45.142 57.855 44.4145 63.525 48.1045 67.545C50.5045 70.14 54.2545 73.425 59.1145 74.895C64.192 76.4175 70.042 75.825 76.0195 71.385L83.512 66.5475L83.647 66.465C84.7195 67.1175 86.212 68.2425 87.997 69.735C89.947 71.37 92.062 73.2975 94.0345 75.15C96.2732 77.26 98.4736 79.4104 100.635 81.6L101.047 82.0275L101.152 82.1325L101.19 82.17L101.632 82.62L102.195 82.9125C105.217 84.4125 108.54 83.8725 111.12 83.0025C113.805 82.1025 116.475 80.5725 118.747 79.065C121.592 77.1504 124.288 75.0217 126.81 72.6975L126.945 72.5775L126.982 72.54L126.99 72.5325C126.99 72.5325 126.33 70.2075 123.75 67.4925L121.717 70.0425L120 75L101.19 82.17L105 78.75L102.99 73.3725C101.732 72.1343 100.462 70.9093 99.1795 69.6975C97.1545 67.7925 94.9195 65.76 92.8045 63.9975C90.757 62.2725 88.627 60.6375 86.8495 59.6625C83.8945 58.0425 80.9995 59.2425 79.4395 60.255L71.7295 65.235L71.6245 65.31C67.462 68.43 64.042 68.55 61.2745 67.7175C58.2745 66.8175 55.612 64.6275 53.6245 62.4675C53.002 61.7925 52.822 60.495 53.902 59.2725C58.0651 54.5329 62.4474 49.9905 67.0345 45.66C69.592 43.2825 72.157 41.085 74.5495 39.3375C76.9945 37.5525 79.0495 36.39 80.602 35.8725C85.282 34.3125 92.9395 33.03 99.682 32.1375C103.369 31.653 107.065 31.2354 110.767 30.885L111.465 30.8175L111.637 30.8025Z" fill="black"/>
<path d="M105.952 76.3275C104.972 75.3346 103.985 74.3496 102.989 73.3725L104.999 78.75L101.189 82.1775L119.999 75L121.717 70.05L123.749 67.5L121.837 67.095L121.814 67.11L121.709 67.2075L121.304 67.5825C119.194 69.4868 116.951 71.2387 114.592 72.825C112.567 74.175 110.519 75.3 108.719 75.9C107.324 76.3725 106.454 76.41 105.952 76.3275Z" fill="black"/>
<path fill-rule="evenodd" clip-rule="evenodd" d="M37.852 38.01L36.3745 34.56L34.897 31.11L35.197 30.99L36.0445 30.63C40.2027 28.8645 44.3779 27.1394 48.5695 25.455C51.9739 24.0813 55.4046 22.7736 58.8595 21.5325C60.382 20.9925 61.7995 20.5275 62.9845 20.19C64.0045 19.89 65.3095 19.56 66.3745 19.56C67.3495 19.56 68.377 19.785 69.2245 20.01C70.1395 20.2575 71.1445 20.5875 72.1645 20.9625C74.2195 21.7125 76.537 22.6875 78.682 23.6325C81.1838 24.7505 83.6643 25.9157 86.122 27.1275L86.617 27.3675L86.752 27.435L86.797 27.4575C87.6872 27.9021 88.3642 28.682 88.6793 29.6258C88.9944 30.5696 88.9216 31.5999 88.477 32.49C88.0325 33.3801 87.2525 34.0572 86.3087 34.3723C85.3649 34.6873 84.3347 34.6146 83.4445 34.17L83.407 34.1475L83.287 34.0875L82.822 33.8625C80.4453 32.6938 78.0474 31.5686 75.6295 30.4875C73.6501 29.5957 71.6415 28.7702 69.607 28.0125C68.845 27.7312 68.0719 27.481 67.2895 27.2625C66.9963 27.1794 66.6982 27.1143 66.397 27.0675L66.3295 27.0825C66.1795 27.105 65.782 27.1875 65.0395 27.3975C63.7982 27.7645 62.5677 28.1672 61.3495 28.605C58.4395 29.6325 54.862 31.02 51.3595 32.4225C47.2147 34.0826 43.0869 35.7852 38.977 37.53L38.1445 37.8825L37.852 38.01ZM32.9245 36.0375C32.5342 35.1234 32.5227 34.0918 32.8925 33.1693C33.2624 32.2467 33.9834 31.5088 34.897 31.1175L36.3745 34.5675L37.852 38.01C37.399 38.2044 36.9121 38.3077 36.4192 38.3137C35.9262 38.3198 35.437 38.2287 34.9793 38.0454C34.5216 37.8622 34.1046 37.5906 33.752 37.246C33.3994 36.9015 33.1182 36.4908 32.9245 36.0375ZM18.652 65.7375C18.9903 65.3794 19.3958 65.0914 19.8454 64.89C20.2949 64.6887 20.7798 64.5779 21.2722 64.5639C21.7646 64.55 22.2549 64.6332 22.7152 64.8089C23.1754 64.9845 23.5966 65.2491 23.9545 65.5875L21.3745 68.31L18.802 71.04C18.4439 70.7017 18.1559 70.2962 17.9546 69.8467C17.7532 69.3971 17.6424 68.9122 17.6285 68.4198C17.6145 67.9274 17.6978 67.4371 17.8734 66.9768C18.049 66.5166 18.3136 66.0955 18.652 65.7375ZM52.927 91.14L73.6495 98.91C75.6718 99.6677 77.8695 99.8274 79.9801 99.3699C82.0907 98.9124 84.025 97.8571 85.552 96.33L101.227 80.655C101.931 79.9518 102.886 79.5572 103.881 79.5579C104.876 79.5586 105.83 79.9546 106.533 80.6587C107.236 81.3629 107.631 82.3175 107.63 83.3126C107.63 84.3078 107.234 85.2618 106.53 85.965L90.8545 101.64C88.3084 104.183 85.084 105.94 81.5664 106.701C78.0488 107.462 74.3866 107.194 71.017 105.93L49.867 98.0025L49.6945 97.92C48.5478 97.2862 47.4587 96.5534 46.4395 95.73C45.2245 94.7925 43.7995 93.63 42.262 92.3175C38.8196 89.3741 35.4242 86.3763 32.077 83.325C27.9872 79.6101 23.9296 75.86 19.9045 72.075L19.087 71.31L18.802 71.04L21.3745 68.31L23.9545 65.5875L24.232 65.85L25.0345 66.6075C29.0286 70.3609 33.0537 74.081 37.1095 77.7675C40.5595 80.895 44.122 84.0675 47.107 86.6025C48.607 87.87 49.9345 88.95 51.007 89.7825C51.997 90.54 52.6195 90.96 52.927 91.1325M27.5245 107.16C28.1621 106.4 29.0749 105.923 30.0632 105.835C31.0514 105.746 32.0345 106.053 32.797 106.687L39.9895 112.687C41.6014 114.033 43.5576 114.901 45.637 115.192L54.907 116.497C55.4057 116.552 55.8884 116.706 56.3264 116.951C56.7644 117.196 57.1489 117.526 57.4571 117.921C57.7653 118.317 57.991 118.771 58.1207 119.256C58.2504 119.74 58.2815 120.246 58.2123 120.743C58.143 121.24 57.9748 121.718 57.7175 122.148C57.4602 122.579 57.119 122.954 56.7143 123.25C56.3096 123.547 55.8495 123.759 55.3613 123.874C54.8731 123.99 54.3667 124.006 53.872 123.922L44.5945 122.625C41.1286 122.138 37.8681 120.691 35.182 118.447L27.9895 112.447C27.6109 112.132 27.2983 111.744 27.0696 111.307C26.8409 110.871 26.7005 110.393 26.6567 109.902C26.6128 109.411 26.6662 108.916 26.8138 108.445C26.9614 107.975 27.2004 107.538 27.517 107.16" fill="black"/>
</svg>
