<svg width="183" height="57" viewBox="0 0 183 57" fill="none" xmlns="http://www.w3.org/2000/svg">
<path d="M67.0557 8.19673C67.0557 10.2251 66.2465 11.9563 64.6279 13.3905C63.0298 14.8247 61.1039 15.5418 58.8502 15.5418C56.5965 15.5418 54.6706 14.8247 53.0725 13.3905C51.4744 11.9563 50.6754 10.2251 50.6754 8.19673C50.6754 7.7255 50.7573 7.11085 50.9212 6.35278C49.9993 6.27083 49.4153 6.22985 49.1695 6.22985C46.0553 6.22985 44.4982 7.53086 44.4982 10.1329C44.4982 11.4646 45.4099 14.4457 47.2333 19.076C49.0773 23.7064 49.9993 27.3328 49.9993 29.9553C49.9993 35.5691 46.8953 39.7794 40.6873 42.5863C36.057 44.6556 30.6378 45.6903 24.4299 45.6903C18.7546 45.6903 13.7248 44.9015 9.34026 43.3239C3.17329 41.1111 0.0898045 37.7101 0.0898045 33.1207C0.0898045 26.4415 5.7753 23.102 17.1463 23.102H28.8553L31.0988 28.0191H21.9713C19.6766 28.0191 17.679 28.4187 15.9785 29.2177C13.7657 30.2626 12.6594 31.8095 12.6594 33.8583C12.6594 36.1735 14.1857 37.9867 17.2385 39.2979C19.5946 40.3019 22.1147 40.8038 24.7987 40.8038C28.1997 40.8038 31.0374 40.056 33.3115 38.5604C35.9545 36.8393 37.276 34.3705 37.276 31.1538C37.276 28.9411 36.436 25.7654 34.756 21.6268C33.0759 17.4882 32.2359 14.2715 32.2359 11.9768C32.2359 4.49859 38.5975 0.759483 51.3207 0.759483H58.9117C61.0015 0.759483 62.8659 1.46633 64.505 2.88002C66.2055 4.37566 67.0557 6.1479 67.0557 8.19673ZM102.296 23.102L96.7334 39.0828C95.2173 42.3609 92.6665 44 89.0811 44H73.5305C70.8055 44 69.2894 43.0985 68.9821 41.2955C67.4864 43.0985 65.3249 44 62.4975 44H57.0271C53.9949 44 52.4787 42.9244 52.4787 40.7731C52.4787 40.2609 52.5914 39.6975 52.8168 39.0828L58.4101 23.102H69.566L63.819 39.0828H69.1664L74.9134 23.102H85.9156L80.3223 39.0828H85.5468L91.2631 23.102H102.296ZM120.603 10.5017C120.603 12.5505 119.804 14.292 118.206 15.7262C116.628 17.1604 114.723 17.8774 112.489 17.8774C110.215 17.8774 108.279 17.1604 106.681 15.7262C105.103 14.292 104.315 12.5505 104.315 10.5017C104.315 8.47332 105.103 6.74206 106.681 5.30788C108.279 3.8737 110.215 3.15661 112.489 3.15661C114.723 3.15661 116.628 3.8737 118.206 5.30788C119.804 6.74206 120.603 8.47332 120.603 10.5017ZM122.815 39.0828C122.283 40.8858 121.176 42.2175 119.496 43.078C118.288 43.6927 116.976 44 115.563 44H103.423C100.493 44 99.0285 42.7707 99.0285 40.3121C99.0285 39.6155 99.1719 38.8677 99.4588 38.0686L104.806 23.102H115.962L110.277 39.0828H122.815ZM169.191 23.102C168.535 26.3801 165.892 28.0191 161.262 28.0191H140.825C142.71 29.7606 143.57 32.8236 143.406 37.2081C143.201 42.3917 140.435 47.0118 135.108 51.0685C130.314 54.7359 125.715 56.5081 121.31 56.3852C120.47 56.3647 119.722 56.0369 119.066 55.4017C118.41 54.7666 118.083 54.0085 118.083 53.1275C118.083 52.7792 118.154 52.4207 118.298 52.0519L126.073 30.0782C125.028 29.7914 124.147 29.2382 123.43 28.4187C122.611 27.5172 122.201 26.4825 122.201 25.3147C122.201 24.5976 122.365 23.86 122.692 23.102H128.47L134.217 6.9367H145.281L138.489 23.102H169.191ZM134.34 41.9717C134.873 40.3941 135.139 39.0111 135.139 37.8228C135.139 36.1427 134.596 34.8827 133.51 34.0427C131.83 37.9764 129.208 43.8771 125.643 51.7446C127.302 50.8841 129.044 49.4089 130.867 47.3191C132.65 45.3112 133.807 43.5288 134.34 41.9717ZM182.467 39.0828C181.504 42.3609 178.943 44 174.784 44H159.11C156.078 44 154.562 42.9346 154.562 40.8038C154.562 40.2711 154.675 39.6975 154.9 39.0828L158.803 28.0191H153.763L155.699 23.102C159.285 22.18 161.948 21.0019 163.69 19.5677C165.656 17.9491 167.756 15.0193 169.99 10.7783H175.983L171.649 23.102H179.578C178.308 26.3801 175.726 28.0191 171.834 28.0191H169.805L165.964 39.0828H182.467Z" fill="black"/>
</svg>
