<svg width="150" height="150" viewBox="0 0 150 150" fill="none" xmlns="http://www.w3.org/2000/svg">
<path d="M75 99V50.9969M62.7 89.9938C65.1219 93.0563 68.1563 94.2 72.3813 94.2H78.225C83.6656 94.2 88.075 89.9031 88.075 84.6C88.075 79.2969 83.6687 75 78.225 75H71.7687C66.3312 75 61.9187 70.7031 61.9187 65.4C61.9187 60.0969 66.325 55.8 71.7687 55.8H77.6125C81.8406 55.8 84.875 56.9406 87.2969 60.0063M75.1906 106.756V130.481M135.941 36.075V96.2938L78.0156 129.741C77.1558 130.237 76.1804 130.498 75.1875 130.498C74.1946 130.498 73.2192 130.237 72.3594 129.741L14.0625 96.0781V35.8563M14.0625 35.8563L42.375 19.5063L62.5781 31.1719C69.4437 35.1344 80.5344 35.1531 87.3563 31.2156L107.438 19.6219L135.938 36.0781L96.7125 58.725M14.0625 35.8563L53.2875 58.5031" stroke="black" stroke-width="9.38" stroke-linecap="round" stroke-linejoin="round"/>
</svg>
