<svg width="150" height="150" viewBox="0 0 150 150" fill="none" xmlns="http://www.w3.org/2000/svg">
<path d="M39.0625 12.5C35.3329 12.5 31.756 13.9816 29.1188 16.6188C26.4816 19.256 25 22.8329 25 26.5625V123.438C25 127.167 26.4816 130.744 29.1188 133.381C31.756 136.018 35.3329 137.5 39.0625 137.5H85.9375C89.6445 137.5 93.2016 136.037 95.8351 133.428C98.4686 130.819 99.9654 127.276 100 123.569V114.069C100 112.826 99.5061 111.633 98.6271 110.754C97.748 109.875 96.5557 109.381 95.3125 109.381C92.4812 109.381 90.6938 108.612 89.4625 107.619C88.1625 106.575 87.0875 104.963 86.2688 102.688C84.5625 97.9688 84.3813 91.75 84.3813 85.9375C84.3812 84.7494 83.9299 83.6056 83.1187 82.7375L82.0875 81.6312C81.7481 81.2567 81.3936 80.8959 81.025 80.55C80.5625 80.1125 79.15 78.7688 73.6313 73.25C70.7 70.3188 69.0813 67.8438 68.55 65.95C68.3302 65.2951 68.2956 64.5921 68.45 63.9188C68.6813 63.1399 69.125 62.4409 69.7312 61.9C70.2712 61.297 70.9679 60.8556 71.7438 60.625C72.4151 60.4718 73.1157 60.5064 73.7688 60.725C75.6563 61.2562 78.1313 62.8875 81.0625 65.8188C84.4375 69.1938 87.6438 72.3625 90.5125 75.1938C95.2625 79.8938 99.0937 83.6937 101.262 86.0062C102.112 86.9079 103.284 87.4365 104.523 87.4764C105.761 87.5164 106.965 87.0645 107.871 86.2195C108.777 85.3746 109.312 84.2053 109.358 82.9672C109.405 81.7291 108.959 80.523 108.119 79.6125C105.459 76.8297 102.752 74.0918 100 71.4V50.375L117.762 68.1375C120.394 70.775 121.881 74.35 121.881 78.075V132.812C121.881 134.056 122.375 135.248 123.254 136.127C124.133 137.006 125.326 137.5 126.569 137.5C127.812 137.5 129.004 137.006 129.883 136.127C130.762 135.248 131.256 134.056 131.256 132.812V78.0813C131.256 75.0027 130.649 71.9544 129.471 69.1105C128.292 66.2665 126.565 63.6825 124.388 61.5062L100 37.1188V26.5563C99.9983 22.8277 98.516 19.2525 95.879 16.6166C93.2419 13.9807 89.666 12.5 85.9375 12.5H39.0625ZM77.45 105.875C78.0563 107.55 78.8375 109.213 79.85 110.763C77.4617 111.909 75.4459 113.708 74.035 115.95C72.6241 118.193 71.8753 120.788 71.875 123.438V128.125H53.125V123.438C53.125 119.708 51.6434 116.131 49.0062 113.494C46.369 110.857 42.7921 109.375 39.0625 109.375H34.375V40.625H39.0625C42.7921 40.625 46.369 39.1434 49.0062 36.5062C51.6434 33.869 53.125 30.2921 53.125 26.5625V21.875H71.875V26.5625C71.875 30.2921 73.3566 33.869 75.9938 36.5062C78.631 39.1434 82.2079 40.625 85.9375 40.625H90.625V62.1125L87.6938 59.1875C84.375 55.8688 80.5188 52.8875 76.3125 51.7C74.0676 51.0333 71.6853 50.9793 69.4125 51.5437C68.0022 51.903 66.6654 52.5058 65.4625 53.325C61.9289 52.843 58.331 53.2323 54.9823 54.4589C51.6336 55.6855 48.6355 57.7123 46.2493 60.3627C43.863 63.0131 42.161 66.2067 41.2914 69.6654C40.4218 73.124 40.411 76.7429 41.26 80.2067C42.1089 83.6705 43.7919 86.8742 46.1623 89.5388C48.5327 92.2033 51.5186 94.2479 54.86 95.4945C58.2014 96.741 61.7968 97.1518 65.3333 96.6908C68.8697 96.2299 72.2398 94.9114 75.15 92.85C75.3813 97.125 75.9625 101.769 77.45 105.875ZM50 75C49.9994 72.2771 50.888 69.6286 52.5305 67.4569C54.1731 65.2853 56.4798 63.7094 59.1 62.9687C58.8661 64.8181 59.0107 66.6957 59.525 68.4875C60.7063 72.6938 63.6812 76.5563 67.0062 79.8813L71.1625 84.0187C69.3949 85.7179 67.1666 86.8596 64.755 87.302C62.3434 87.7443 59.8549 87.4676 57.5994 86.5063C55.3438 85.5451 53.4208 83.9417 52.0696 81.8958C50.7183 79.8499 49.9986 77.4518 50 75ZM34.375 26.5625C34.375 25.3193 34.8689 24.127 35.7479 23.2479C36.627 22.3689 37.8193 21.875 39.0625 21.875H43.75V26.5625C43.75 27.8057 43.2561 28.998 42.3771 29.8771C41.498 30.7561 40.3057 31.25 39.0625 31.25H34.375V26.5625ZM81.25 21.875H85.9375C87.1807 21.875 88.373 22.3689 89.2521 23.2479C90.1311 24.127 90.625 25.3193 90.625 26.5625V31.25H85.9375C84.6943 31.25 83.502 30.7561 82.6229 29.8771C81.7439 28.998 81.25 27.8057 81.25 26.5625V21.875ZM90.625 118.75V123.438C90.625 124.681 90.1311 125.873 89.2521 126.752C88.373 127.631 87.1807 128.125 85.9375 128.125H81.25V123.438C81.25 122.194 81.7439 121.002 82.6229 120.123C83.502 119.244 84.6943 118.75 85.9375 118.75H90.625ZM43.75 128.125H39.0625C37.8193 128.125 36.627 127.631 35.7479 126.752C34.8689 125.873 34.375 124.681 34.375 123.438V118.75H39.0625C40.3057 118.75 41.498 119.244 42.3771 120.123C43.2561 121.002 43.75 122.194 43.75 123.438V128.125Z" fill="#0A0A0A"/>
</svg>
