<svg width="150" height="150" viewBox="0 0 150 150" fill="none" xmlns="http://www.w3.org/2000/svg">
<path d="M32.1439 87.5C27.4542 79.8202 24.9817 70.9922 25.0001 61.9937C25.0001 34.6562 47.3876 12.5 75.0001 12.5C102.613 12.5 125 34.6562 125 61.9937C125.019 70.9922 122.546 79.8202 117.856 87.5M93.7501 118.75L92.9376 122.794C92.0626 127.212 91.6189 129.419 90.6251 131.169C89.0938 133.866 86.6145 135.898 83.6689 136.869C81.7626 137.5 79.5001 137.5 75.0001 137.5C70.5001 137.5 68.2376 137.5 66.3314 136.875C63.3847 135.902 60.9052 133.868 59.3751 131.169C58.3814 129.419 57.9376 127.212 57.0626 122.794L56.2501 118.75M46.1439 106.862C45.5689 105.137 45.2814 104.269 45.3126 103.569C45.348 102.845 45.5923 102.147 46.016 101.559C46.4397 100.971 47.0246 100.519 47.7001 100.256C48.3501 100 49.2626 100 51.0751 100H98.9251C100.744 100 101.65 100 102.3 100.25C102.977 100.513 103.562 100.966 103.986 101.555C104.41 102.144 104.653 102.844 104.688 103.569C104.719 104.269 104.431 105.131 103.856 106.862C102.794 110.056 102.263 111.656 101.444 112.95C99.7314 115.654 97.047 117.598 93.9439 118.381C92.4564 118.75 90.7814 118.75 87.4251 118.75H62.5751C59.2189 118.75 57.5376 118.75 56.0564 118.375C52.9542 117.593 50.27 115.651 48.5564 112.95C47.7376 111.656 47.2064 110.056 46.1439 106.862Z" stroke="black" stroke-width="9.375" stroke-linecap="round" stroke-linejoin="round"/>
<path d="M51.5625 60.9375L65.625 75V100M98.4375 60.9375L84.375 75V100M51.5625 65.625C52.8057 65.625 53.998 65.1311 54.8771 64.2521C55.7561 63.373 56.25 62.1807 56.25 60.9375C56.25 59.6943 55.7561 58.502 54.8771 57.6229C53.998 56.7439 52.8057 56.25 51.5625 56.25C50.3193 56.25 49.127 56.7439 48.2479 57.6229C47.3689 58.502 46.875 59.6943 46.875 60.9375C46.875 62.1807 47.3689 63.373 48.2479 64.2521C49.127 65.1311 50.3193 65.625 51.5625 65.625ZM98.4375 65.625C97.1943 65.625 96.002 65.1311 95.1229 64.2521C94.2439 63.373 93.75 62.1807 93.75 60.9375C93.75 59.6943 94.2439 58.502 95.1229 57.6229C96.002 56.7439 97.1943 56.25 98.4375 56.25C99.6807 56.25 100.873 56.7439 101.752 57.6229C102.631 58.502 103.125 59.6943 103.125 60.9375C103.125 62.1807 102.631 63.373 101.752 64.2521C100.873 65.1311 99.6807 65.625 98.4375 65.625Z" stroke="black" stroke-width="9.375" stroke-linecap="round" stroke-linejoin="round"/>
</svg>
