<svg width="250" height="250" viewBox="0 0 250 250" fill="none" xmlns="http://www.w3.org/2000/svg">
<rect width="250" height="250" rx="125" fill="#F3CE64"/>
<path d="M197.875 152.197C181.097 191.413 136.809 208.257 102.109 205.385C92.6347 204.601 73.5717 203.023 58.6871 188.947C30.1024 161.915 34.5048 105.412 61.8685 72.1453C65.3924 67.8613 89.7843 39.1588 127.794 39.543C155.623 39.8244 175.156 55.5445 177.531 57.5029C180.532 59.977 187.149 65.856 193.114 75.1829C207.127 97.0976 208.359 127.691 197.875 152.197Z" fill="url(#paint0_linear_220_2644)"/>
<path d="M210.716 40.7308C211.103 39.957 210.08 39.1374 209.238 39.5418C200.683 43.6478 179.309 56.9542 176.354 88.4025C172.647 127.859 160.12 139.594 146.633 145.36C146.633 145.36 163.327 145.115 176.598 133.34C209.182 104.43 203.82 54.4893 210.716 40.7308Z" fill="#BDD0FB"/>
<path d="M202.419 51.354C200.51 55.39 198.695 59.4622 197.057 63.5968C195.394 67.7218 193.878 71.8974 192.516 76.1173C191.173 80.3424 189.923 84.5943 188.884 88.8987C187.823 93.1974 186.977 97.5436 186.145 101.911C185.285 106.27 184.448 110.667 183.088 114.973C181.736 119.27 179.765 123.461 176.954 127.16C176.252 128.082 175.527 128.995 174.746 129.857C173.983 130.734 173.173 131.579 172.345 132.409C170.68 134.063 168.879 135.615 166.946 137.035C163.07 139.866 158.665 142.147 154.004 143.856C153.514 144.036 152.923 143.822 152.685 143.379C152.451 142.943 152.645 142.448 153.116 142.26L153.12 142.259C154.238 141.815 155.348 141.359 156.427 140.86C156.972 140.619 157.502 140.355 158.039 140.102C158.562 139.83 159.099 139.576 159.61 139.289C161.682 138.175 163.652 136.929 165.498 135.555C169.201 132.827 172.421 129.572 175.114 126.042C176.437 124.263 177.602 122.391 178.592 120.438C179.58 118.484 180.393 116.451 181.071 114.367C182.429 110.197 183.299 105.853 184.195 101.502C185.098 97.1507 186.039 92.786 187.187 88.4741C187.754 86.3166 188.366 84.171 189.022 82.0386C189.343 80.9703 189.688 79.9091 190.03 78.8475C190.385 77.7893 190.746 76.7335 191.117 75.681C192.611 71.4737 194.255 67.3171 196.049 63.2207C197.866 59.1332 199.81 55.0966 201.932 51.143C201.993 51.03 202.15 50.9877 202.283 51.0486C202.413 51.1077 202.471 51.2429 202.419 51.354Z" fill="white"/>
<path d="M170.164 127.678C170.821 128.82 172.431 128.92 173.238 127.878C177.69 122.131 188.81 104.744 183.108 80.3032C178.293 59.6639 177.644 48.0148 177.715 42.7061C177.73 41.5835 176.304 41.0941 175.625 41.9883C168.135 51.8535 146.361 86.2915 170.164 127.678Z" fill="#91B3FA"/>
<path d="M171.924 127.378C171.954 127.391 171.985 127.402 172.018 127.409C172.296 127.47 172.57 127.296 172.632 127.018C172.702 126.704 179.551 95.2459 174.153 66.2458C174.101 65.9667 173.832 65.7824 173.553 65.8342C173.273 65.8862 173.089 66.1547 173.141 66.4342C178.501 95.2231 171.697 126.483 171.628 126.795C171.573 127.04 171.703 127.282 171.924 127.378Z" fill="white"/>
<path d="M72.5258 82.4752C72.5191 82.4752 72.5124 82.4751 72.5056 82.4748C72.2178 82.4639 71.9933 82.2216 72.0043 81.9338C72.0069 81.8647 72.2875 74.9295 74.0344 66.8818C76.392 56.0202 80.1514 48.4042 85.208 44.2452C88.8264 41.2691 93.0863 40.1419 97.8686 40.8946C103.378 41.762 108.015 44.4832 111.649 48.983C114.535 52.5557 116.792 57.2498 118.36 62.9349C121.016 72.5713 120.767 81.8765 120.764 81.9694C120.755 82.2572 120.523 82.4833 120.227 82.4748C119.939 82.466 119.713 82.2256 119.722 81.9377C119.724 81.8462 119.968 72.6773 117.348 63.1903C115.818 57.6492 113.625 53.0866 110.83 49.6294C107.365 45.3424 102.949 42.7502 97.7064 41.925C93.2305 41.2201 89.2488 42.272 85.8703 45.0508C79.8033 50.0408 76.6394 59.7972 75.0536 67.103C73.326 75.0618 73.0491 81.9051 73.0465 81.9734C73.036 82.2546 72.8047 82.4752 72.5258 82.4752Z" fill="url(#paint1_linear_220_2644)"/>
<path d="M164.569 198.225L146.487 73.5309L75.7809 72.6294L58.9707 204.988L158.688 205.155C162.317 205.155 165.099 201.877 164.569 198.225Z" fill="#2B5E4B"/>
<path d="M62.8339 73.7503L75.7813 72.6294L58.9711 204.988L43.5697 205.155C40.9143 205.155 40.321 204.413 40.8623 201.769L62.8339 73.7503Z" fill="#003E27"/>
<path d="M87.1215 82.1897C87.1148 82.1897 87.1081 82.1896 87.1012 82.1893C86.8135 82.1783 86.589 81.9361 86.6 81.6483C86.6026 81.5792 86.8832 74.644 88.6302 66.5963C90.9877 55.7348 94.7471 48.1187 99.8037 43.9598C103.422 40.9836 107.683 39.8566 112.465 40.6091C117.974 41.4765 122.611 44.1979 126.245 48.6976C129.131 52.2703 131.388 56.9645 132.956 62.6496C135.612 72.2859 135.363 81.5911 135.36 81.684C135.351 81.9718 135.122 82.1974 134.823 82.1894C134.535 82.1807 134.309 81.9402 134.317 81.6524C134.32 81.5608 134.564 72.392 131.944 62.905C130.414 57.3638 128.221 52.8014 125.426 49.3441C121.961 45.0571 117.545 42.4649 112.302 41.6395C107.828 40.935 103.846 41.9866 100.467 44.7646C94.4029 49.7517 91.2392 59.5006 89.653 66.8008C87.9233 74.7616 87.6448 81.6196 87.6422 81.6879C87.6314 81.969 87.4002 82.1897 87.1215 82.1897Z" fill="url(#paint2_linear_220_2644)"/>
<path d="M92.7676 86.2055C92.7676 81.0945 96.9109 76.9512 102.022 76.9512H180.721C185.062 76.9512 188.643 80.3537 188.863 84.6898L194.672 198.788C194.845 202.182 192.174 205.044 188.777 205.106L98.5783 206.745C95.3864 206.803 92.7676 204.231 92.7676 201.039V86.2055Z" fill="#00291A"/>
<path d="M99.2149 78.7075C99.2052 77.0722 100.643 75.8066 102.264 76.0264C113.011 77.4838 149.967 81.9913 180.522 79.6457C181.915 79.5388 183.125 80.5945 183.199 81.9901L189.29 196.597C189.374 198.169 188.174 199.513 186.603 199.606C173.752 200.366 120.828 203.306 101.951 201.329C100.802 201.208 99.9298 200.241 99.923 199.086L99.2149 78.7075Z" fill="#2B5E4B"/>
<path d="M100.481 81.5794C100.471 80.0058 101.855 78.7878 103.415 78.9993C113.757 80.4019 149.322 84.7396 178.726 82.4824C180.067 82.3794 181.231 83.3955 181.302 84.7384L187.164 195.03C187.244 196.542 186.089 197.836 184.578 197.925C172.211 198.657 121.28 201.486 103.113 199.583C102.008 199.467 101.169 198.537 101.162 197.425L100.481 81.5794Z" fill="#809F93"/>
<g opacity="0.6">
<path d="M176.458 92.342C176.612 92.342 176.735 92.2158 176.731 92.0616L176.701 91.0358C176.696 90.8816 176.566 90.7532 176.412 90.7505L146.745 90.2218C146.591 90.2191 146.507 90.3359 146.558 90.4813L147.12 92.0774C147.171 92.2229 147.339 92.3419 147.494 92.3419L176.458 92.342Z" fill="white"/>
</g>
<g opacity="0.6">
<path d="M146.745 96.8404C146.591 96.8377 146.507 96.9545 146.558 97.0999L147.12 98.696C147.171 98.8415 147.339 98.9605 147.494 98.9605H176.458C176.612 98.9605 176.735 98.8344 176.731 98.6802L176.701 97.6544C176.696 97.5002 176.566 97.3718 176.412 97.369L146.745 96.8404Z" fill="white"/>
</g>
<g opacity="0.6">
<path d="M146.546 110.012C146.392 110.009 146.308 110.126 146.359 110.271L146.921 111.867C146.972 112.013 147.14 112.132 147.295 112.132H176.259C176.413 112.132 176.536 112.006 176.531 111.852L176.501 110.826C176.497 110.672 176.367 110.543 176.213 110.54L146.546 110.012Z" fill="white"/>
</g>
<g opacity="0.6">
<path d="M146.745 103.724C146.591 103.721 146.507 103.838 146.558 103.983L147.12 105.579C147.171 105.725 147.339 105.844 147.494 105.844H176.458C176.612 105.844 176.735 105.718 176.731 105.564L176.701 104.538C176.696 104.384 176.566 104.255 176.412 104.253L146.745 103.724Z" fill="white"/>
</g>
<g opacity="0.6">
<path d="M178.211 127.612C178.366 127.612 178.483 127.486 178.473 127.332L178.402 126.305C178.392 126.151 178.257 126.024 178.103 126.023L107.653 125.489C107.499 125.488 107.454 125.584 107.552 125.703L108.953 127.396C109.051 127.515 109.258 127.612 109.412 127.612L178.211 127.612Z" fill="white"/>
</g>
<g opacity="0.6">
<path d="M107.653 132.308C107.499 132.307 107.454 132.403 107.552 132.522L108.953 134.215C109.051 134.334 109.258 134.431 109.412 134.431H178.211C178.366 134.431 178.483 134.305 178.473 134.152L178.402 133.125C178.392 132.971 178.257 132.844 178.103 132.843L107.653 132.308Z" fill="white"/>
</g>
<g opacity="0.6">
<path d="M108.268 159.951C108.43 160.567 108.99 160.994 109.627 160.989L161.552 160.546C162.14 160.541 162.61 160.057 162.597 159.469C162.585 158.898 162.119 158.441 161.548 158.439L109.621 158.202C108.705 158.198 108.034 159.064 108.268 159.951Z" fill="white"/>
</g>
<g opacity="0.6">
<path d="M108.129 149.618C108.291 150.234 108.851 150.661 109.488 150.656L161.414 150.213C162.001 150.208 162.471 149.724 162.458 149.137C162.446 148.566 161.981 148.109 161.41 148.106L109.483 147.869C108.566 147.865 107.895 148.732 108.129 149.618Z" fill="white"/>
</g>
<g opacity="0.6">
<path d="M108.268 171.979C108.43 172.595 108.99 173.022 109.627 173.017L161.552 172.574C162.14 172.569 162.61 172.085 162.597 171.498C162.585 170.927 162.119 170.47 161.548 170.467L109.621 170.23C108.705 170.226 108.034 171.093 108.268 171.979Z" fill="white"/>
</g>
<g opacity="0.6">
<path d="M108.871 184.007C109.034 184.623 109.593 185.051 110.23 185.045L162.156 184.602C162.743 184.597 163.213 184.113 163.2 183.526C163.188 182.955 162.723 182.498 162.152 182.495L110.225 182.258C109.308 182.254 108.637 183.121 108.871 184.007Z" fill="white"/>
</g>
<path d="M176.398 151.847C176.393 151.847 176.387 151.847 176.382 151.847L170.771 151.965C169.97 151.982 169.291 151.45 169.193 150.729L168.556 146.038C168.519 145.762 168.596 145.487 168.774 145.261C168.973 145.009 169.281 144.845 169.619 144.812C170.091 144.765 170.755 144.688 171.458 144.606C172.937 144.435 174.779 144.221 175.817 144.176C176.571 144.149 177.224 144.576 177.422 145.227C177.747 146.298 177.784 148.344 177.795 150.525C177.799 151.233 177.173 151.823 176.398 151.847ZM169.662 145.241C169.44 145.263 169.239 145.368 169.112 145.529C169.007 145.661 168.962 145.822 168.983 145.98L169.62 150.671C169.689 151.175 170.18 151.546 170.762 151.534L176.373 151.416C176.377 151.416 176.381 151.416 176.385 151.416C176.928 151.399 177.367 151.003 177.364 150.527C177.353 148.38 177.318 146.368 177.009 145.352C176.871 144.897 176.384 144.592 175.836 144.607C174.813 144.651 172.98 144.864 171.507 145.034C170.803 145.116 170.137 145.193 169.662 145.241Z" fill="white"/>
<path opacity="0.6" d="M170.28 145.708C171.456 145.591 174.009 145.253 175.224 145.201C175.738 145.178 176.199 145.476 176.333 145.918C176.594 146.778 176.616 148.507 176.624 150.103C176.627 150.581 176.2 150.975 175.664 150.987L171.18 151.081C170.628 151.092 170.159 150.73 170.093 150.242L169.584 146.493C169.531 146.105 169.844 145.751 170.28 145.708Z" fill="white"/>
<path d="M177.624 163.433C177.619 163.433 177.614 163.433 177.609 163.434L171.998 163.551C171.196 163.568 170.518 163.037 170.42 162.316L169.783 157.624C169.745 157.349 169.823 157.073 170.001 156.848C170.2 156.596 170.508 156.432 170.846 156.398C171.318 156.351 171.981 156.274 172.684 156.193C174.164 156.021 176.006 155.807 177.044 155.763C177.052 155.762 177.059 155.762 177.067 155.762C177.804 155.739 178.453 156.169 178.648 156.813C178.974 157.885 179.011 159.931 179.022 162.111C179.025 162.819 178.4 163.409 177.624 163.433ZM170.889 156.827C170.666 156.849 170.466 156.954 170.339 157.115C170.234 157.248 170.188 157.408 170.21 157.566L170.847 162.258C170.915 162.762 171.406 163.133 171.989 163.121L177.6 163.003C177.604 163.003 177.607 163.003 177.611 163.002C178.155 162.986 178.593 162.589 178.591 162.113C178.58 159.966 178.545 157.955 178.236 156.938C178.098 156.483 177.603 156.168 177.063 156.193C176.04 156.237 174.207 156.45 172.734 156.621C172.029 156.703 171.364 156.78 170.889 156.827Z" fill="white"/>
<path opacity="0.6" d="M171.507 157.294C172.683 157.178 175.236 156.839 176.45 156.787C176.965 156.765 177.426 157.062 177.56 157.505C177.821 158.364 177.843 160.093 177.851 161.689C177.853 162.167 177.426 162.562 176.89 162.573L172.406 162.667C171.855 162.679 171.386 162.317 171.32 161.829L170.81 158.08C170.758 157.692 171.071 157.337 171.507 157.294Z" fill="white"/>
<path d="M177.989 175.456C177.984 175.456 177.979 175.456 177.974 175.456L172.363 175.574C171.561 175.591 170.883 175.06 170.785 174.339L170.148 169.647C170.11 169.372 170.188 169.096 170.366 168.87C170.565 168.618 170.873 168.454 171.211 168.421C171.683 168.374 172.347 168.297 173.049 168.215C174.529 168.044 176.371 167.83 177.409 167.785C177.417 167.785 177.424 167.784 177.432 167.784C178.17 167.762 178.818 168.191 179.014 168.836C179.339 169.907 179.376 171.953 179.387 174.134C179.391 174.842 178.765 175.432 177.989 175.456ZM171.254 168.85C171.032 168.871 170.831 168.977 170.704 169.137C170.599 169.27 170.553 169.43 170.575 169.589L171.212 174.28C171.28 174.784 171.771 175.155 172.354 175.143L177.965 175.025C177.969 175.025 177.973 175.025 177.976 175.025C178.52 175.008 178.958 174.611 178.956 174.136C178.945 171.988 178.91 169.977 178.601 168.961C178.463 168.506 177.968 168.189 177.428 168.216C176.405 168.26 174.572 168.472 173.099 168.643C172.395 168.725 171.729 168.802 171.254 168.85Z" fill="white"/>
<path opacity="0.6" d="M171.872 169.317C173.048 169.2 175.601 168.862 176.815 168.81C177.33 168.787 177.791 169.085 177.925 169.527C178.186 170.387 178.208 172.116 178.216 173.712C178.218 174.19 177.791 174.584 177.256 174.596L172.772 174.69C172.22 174.701 171.751 174.339 171.685 173.851L171.176 170.102C171.123 169.715 171.436 169.36 171.872 169.317Z" fill="white"/>
<path d="M178.359 187.478C178.354 187.479 178.348 187.479 178.343 187.479L172.732 187.597C171.93 187.613 171.252 187.082 171.154 186.361L170.517 181.67C170.48 181.394 170.557 181.119 170.735 180.893C170.934 180.641 171.242 180.477 171.58 180.443C172.052 180.397 172.716 180.319 173.419 180.238C174.898 180.066 176.74 179.853 177.778 179.808C177.786 179.808 177.794 179.807 177.801 179.807C178.539 179.784 179.187 180.214 179.383 180.858C179.708 181.93 179.745 183.976 179.756 186.156C179.76 186.865 179.134 187.455 178.359 187.478ZM171.623 180.872C171.401 180.894 171.2 180.999 171.073 181.16C170.968 181.293 170.923 181.453 170.944 181.612L171.581 186.303C171.649 186.807 172.14 187.178 172.723 187.166L178.334 187.048C178.338 187.048 178.342 187.048 178.346 187.048C178.889 187.031 179.328 186.634 179.325 186.158C179.314 184.011 179.279 182 178.97 180.983C178.832 180.528 178.337 180.21 177.797 180.238C176.774 180.282 174.941 180.495 173.468 180.666C172.764 180.748 172.098 180.825 171.623 180.872Z" fill="white"/>
<path opacity="0.6" d="M172.241 181.34C173.417 181.223 175.97 180.885 177.185 180.832C177.699 180.81 178.16 181.107 178.294 181.55C178.555 182.41 178.577 184.138 178.585 185.734C178.588 186.212 178.161 186.607 177.625 186.618L173.141 186.712C172.589 186.724 172.12 186.362 172.054 185.874L171.545 182.125C171.492 181.737 171.805 181.383 172.241 181.34Z" fill="white"/>
<g opacity="0.8">
<path d="M136.201 95.5863C136.054 95.4051 135.823 95.3299 135.577 95.335L113.249 95.8034L112.685 94.0117C112.606 93.7621 112.371 93.6023 112.106 93.6093L109.04 93.6898C108.712 93.6984 108.445 93.927 108.445 94.2552C108.445 94.5832 108.712 94.7986 109.04 94.7908L111.66 94.7289L116.401 109.877C116.48 110.132 116.72 110.307 116.991 110.311L132.664 110.521C133.031 110.526 133.33 110.295 133.33 109.948C133.33 109.6 133.031 109.362 132.664 109.358L117.448 109.194L116.227 105.261L132.947 105.286C133.29 105.287 133.592 105.063 133.687 104.752L136.326 96.2194C136.395 95.9968 136.349 95.7676 136.201 95.5863Z" fill="white"/>
<path d="M119.284 111.245C117.994 111.225 116.951 112.229 116.951 113.482C116.951 114.736 117.994 115.783 119.284 115.817C120.581 115.851 121.642 114.848 121.642 113.58C121.642 112.313 120.581 111.265 119.284 111.245ZM119.284 114.598C118.681 114.584 118.192 114.095 118.192 113.508C118.192 112.922 118.681 112.453 119.284 112.464C119.888 112.475 120.381 112.964 120.381 113.554C120.381 114.144 119.888 114.612 119.284 114.598Z" fill="white"/>
<path d="M129.731 111.407C128.378 111.386 127.283 112.414 127.283 113.698C127.283 114.982 128.378 116.056 129.731 116.091C131.093 116.127 132.207 115.1 132.207 113.801C132.207 112.503 131.093 111.429 129.731 111.407ZM129.731 114.842C129.099 114.828 128.586 114.327 128.586 113.725C128.586 113.124 129.099 112.645 129.731 112.657C130.366 112.668 130.883 113.169 130.883 113.774C130.883 114.378 130.366 114.857 129.731 114.842Z" fill="white"/>
</g>
<path opacity="0.81" d="M123.413 121.784C112.644 121.784 103.883 113.023 103.883 102.253C103.883 91.4844 112.644 82.7231 123.413 82.7231C134.182 82.7231 142.944 91.4844 142.944 102.253C142.944 113.023 134.182 121.784 123.413 121.784ZM123.413 84.392C113.564 84.392 105.552 92.4046 105.552 102.253C105.552 112.102 113.564 120.115 123.413 120.115C133.262 120.115 141.275 112.102 141.275 102.253C141.275 92.4046 133.262 84.392 123.413 84.392Z" fill="white"/>
<path d="M146.251 61.3945C143.408 59.4168 140.937 59.456 139.197 59.9695C137.609 60.4378 136.58 61.9703 136.731 63.6183L137.482 71.8088L146.411 72.6012C146.411 72.6012 151.826 65.2729 146.251 61.3945ZM142.324 68.0022C141.095 68.0022 140.098 67.0054 140.098 65.7757C140.098 64.546 141.095 63.5491 142.324 63.5491C143.554 63.5491 144.551 64.546 144.551 65.7757C144.551 67.0054 143.554 68.0022 142.324 68.0022Z" fill="#001F14"/>
<path d="M138.375 68.3634C138.265 68.3634 138.171 68.2794 138.161 68.1675L138.042 66.8632C138.031 66.7447 138.118 66.6399 138.236 66.629C138.357 66.6176 138.46 66.7054 138.471 66.824L138.59 68.1284C138.601 68.2469 138.514 68.3517 138.395 68.3626C138.389 68.3632 138.382 68.3634 138.375 68.3634ZM138.141 65.8073C138.031 65.8073 137.937 65.7233 137.927 65.6114L137.836 64.6212C137.692 63.0512 138.68 61.5894 140.185 61.1453C141.251 60.8307 142.349 60.7857 143.448 61.0112C143.565 61.035 143.64 61.1491 143.616 61.2656C143.592 61.382 143.479 61.4565 143.362 61.4333C142.332 61.2225 141.304 61.2643 140.307 61.5585C138.999 61.9446 138.14 63.2161 138.265 64.582L138.356 65.5722C138.367 65.6907 138.28 65.7955 138.161 65.8064C138.154 65.807 138.148 65.8073 138.141 65.8073Z" fill="white"/>
<path d="M125.297 77.1019V72.9839C125.297 71.5625 126.475 70.4239 127.896 70.4725L156.287 71.4453C157.547 71.4885 158.567 72.483 158.643 73.7415L158.88 77.6982L125.297 77.1019Z" fill="#001F14"/>
<path d="M135.882 72.0243H134.661C134.542 72.0243 134.445 71.9279 134.445 71.8089C134.445 71.6898 134.542 71.5934 134.661 71.5934H135.882C136.001 71.5934 136.097 71.6898 136.097 71.8089C136.097 71.9279 136.001 72.0243 135.882 72.0243Z" fill="white"/>
<path d="M126.833 75.8089C126.714 75.8089 126.617 75.7125 126.617 75.5934V73.9275C126.617 72.6404 127.664 71.5933 128.951 71.5933H133.44C133.559 71.5933 133.656 71.6897 133.656 71.8088C133.656 71.9279 133.559 72.0242 133.44 72.0242H128.951C127.902 72.0242 127.048 72.8781 127.048 73.9275V75.5934C127.048 75.7125 126.952 75.8089 126.833 75.8089Z" fill="white"/>
<path d="M113.727 78.1418C113.796 76.7158 114.972 75.5949 116.399 75.5948L166.047 75.5935C167.832 75.5934 169.358 76.8781 169.663 78.6371L169.705 78.8799C170.038 80.8067 168.555 82.5689 166.6 82.5689H115.664C114.494 82.5689 113.561 81.5904 113.618 80.4215L113.727 78.1418Z" fill="#003E27"/>
<path d="M109.146 128.206C109.146 128.206 108.214 125.752 107.125 125.976C106.035 126.201 104.844 127.038 104.844 127.038L103.094 129.405C103.094 129.405 108.006 131.34 109.734 130.231C109.734 130.231 114.752 131.098 121.088 130.058C120.171 128.122 119.624 126.183 119.303 124.678C116.094 126.494 112.637 127.851 109.146 128.206Z" fill="url(#paint3_linear_220_2644)"/>
<path d="M135.725 110.4C135.725 110.4 128.541 119.448 119.303 124.678C119.624 126.183 120.17 128.122 121.088 130.058C125.88 129.272 131.427 127.395 136.129 123.225L135.725 110.4Z" fill="url(#paint4_linear_220_2644)"/>
<path d="M144.685 150.505C143.28 143.832 141.875 139.968 137.171 127.319C135.691 123.338 134.346 119.311 134.996 115.114L135.726 110.4C135.726 110.4 144.868 107.306 155.002 110.27C155.002 110.27 168.828 116.276 159.437 145.939C155.204 150.675 150.25 152.024 144.685 150.505Z" fill="url(#paint5_linear_220_2644)"/>
<path d="M137.281 104.384L139.652 110.079C139.802 110.439 140.125 110.695 140.509 110.761C141.876 110.995 145.182 111.362 147.353 109.934C147.611 109.764 147.677 109.412 147.5 109.158L143.121 102.871L137.281 104.384Z" fill="url(#paint6_linear_220_2644)"/>
<path d="M139.735 95.6705C139.635 95.7642 135.533 103.82 135.533 103.82L140.183 106.065L145.205 99.0071C145.205 99.0071 141.402 94.1016 139.735 95.6705Z" fill="url(#paint7_linear_220_2644)"/>
<path d="M143.091 99.8538L140.772 103.719C140.737 103.778 140.695 103.831 140.645 103.878C140.369 104.135 139.424 104.882 138.694 103.864C138.072 102.997 137.488 102.209 136.862 101.884C136.497 101.694 136.047 101.845 135.862 102.213C135.48 102.97 134.739 104.514 134.275 105.978C134.158 106.345 134.347 106.738 134.704 106.883C135.646 107.264 137.506 107.954 139.157 108.182C139.429 108.219 139.697 108.105 139.859 107.884C140.569 106.911 142.571 104.191 143.255 103.51C143.889 102.878 145.061 103.116 145.589 103.268C145.79 103.326 146.003 103.298 146.182 103.19C146.717 102.868 147.652 102.064 146.797 100.704C146.584 100.366 146.693 99.9151 147.026 99.6956C147.625 99.3021 148.274 98.5637 147.655 97.3678C147.029 96.1572 145.912 96.0485 145.15 96.1416C144.813 96.1827 144.472 96.0061 144.342 95.6923C144.285 95.5528 144.171 95.4338 143.96 95.3909C143.561 95.31 143.299 94.945 143.377 94.5455C143.511 93.8604 143.41 92.9705 142.316 92.3691C140.31 91.2661 138.553 93.0634 138.106 94.5805C137.659 96.0977 139.902 97.1698 141.313 97.3488C142.35 97.4803 142.918 98.6114 143.146 99.2026C143.229 99.417 143.209 99.6565 143.091 99.8538Z" fill="url(#paint8_linear_220_2644)"/>
<path d="M142.279 104.667C142.279 104.667 143.277 102.32 144.419 102.415C145.561 102.511 146.46 103.649 145.044 104.928C143.284 106.518 142.279 104.667 142.279 104.667Z" fill="url(#paint9_linear_220_2644)"/>
<path d="M143.784 209.318C145.992 209.509 149.824 209.819 152.845 209.952C154.661 210.032 155.707 209.854 156.309 209.613C156.308 209.681 156.306 209.745 156.303 209.805C156.289 210.122 156.031 210.377 155.709 210.395C150.001 210.713 145.461 210.505 143.845 210.407C143.511 210.386 143.311 210.023 143.482 209.738C143.568 209.596 143.672 209.456 143.784 209.318Z" fill="url(#paint10_linear_220_2644)"/>
<path d="M152.844 209.952C149.823 209.819 145.991 209.509 143.783 209.318C145.954 206.655 152.844 204.86 152.844 204.86H154.79C156.129 206.789 156.323 208.626 156.308 209.613C155.706 209.854 154.66 210.032 152.844 209.952Z" fill="url(#paint11_linear_220_2644)"/>
<path d="M155.119 201.683L154.937 205.286C154.917 205.677 154.625 206.004 154.234 206.06C153.845 206.116 153.324 206.123 152.772 205.939C152.432 205.826 152.18 205.54 152.118 205.191L151.488 201.683L155.119 201.683Z" fill="url(#paint12_linear_220_2644)"/>
<path d="M180.395 209.925C181.353 209.791 181.786 209.294 181.968 208.762C181.969 208.767 181.97 208.772 181.971 208.776C182.112 209.337 181.786 209.919 181.133 210.195C180.343 210.529 179.481 210.586 178.811 210.559C178.092 210.529 177.432 210.232 177.07 209.756L177.064 209.749C177.786 210.106 178.798 210.148 180.395 209.925Z" fill="url(#paint13_linear_220_2644)"/>
<path d="M175.882 201.659H177.486C179.931 201.609 181.466 206.766 181.968 208.762C181.787 209.294 181.354 209.791 180.396 209.925C178.799 210.148 177.787 210.106 177.065 209.749C175.745 208.011 175.09 205.465 174.775 203.98C174.417 202.29 175.882 201.659 175.882 201.659Z" fill="url(#paint14_linear_220_2644)"/>
<path d="M177.28 198.315L178.171 201.859C178.281 202.294 178.073 202.743 177.671 202.949C177.172 203.205 176.47 203.474 175.825 203.396C175.522 203.36 175.27 203.146 175.17 202.86L173.861 199.131L177.28 198.315Z" fill="url(#paint15_linear_220_2644)"/>
<path d="M178.344 199.339C177.235 200.323 173.629 200.452 173.629 200.452C160.638 169.274 155.222 160.69 155.222 160.69C157.098 172.459 155.626 202.666 155.626 202.666C153.483 203.612 150.719 202.666 150.719 202.666C150.545 183.4 147.832 162.698 144.334 149.451C153.114 149.254 157.886 147.34 159.41 146.134C166.729 157.933 178.344 199.339 178.344 199.339Z" fill="url(#paint16_linear_220_2644)"/>
<path d="M142.121 158.164L143.737 168.212C144.018 169.965 145.641 171.18 147.411 170.964L171.592 168.015C172.775 167.87 173.672 166.883 173.696 165.697C173.747 163.1 173.645 158.479 172.556 154.269L142.121 158.164Z" fill="url(#paint17_linear_220_2644)"/>
<path d="M147.332 170.341C147.331 170.341 147.329 170.341 147.328 170.341C147.133 170.33 146.939 170.301 146.749 170.255C146.711 170.246 146.687 170.207 146.696 170.168C146.706 170.13 146.744 170.107 146.783 170.116C146.964 170.16 147.15 170.187 147.336 170.198C147.376 170.2 147.406 170.234 147.404 170.273C147.402 170.311 147.37 170.341 147.332 170.341ZM148.663 170.229C148.627 170.229 148.596 170.202 148.592 170.166C148.587 170.127 148.615 170.091 148.654 170.086L149.223 170.017C149.266 170.012 149.298 170.04 149.303 170.079C149.308 170.119 149.28 170.154 149.241 170.159L148.672 170.228C148.668 170.229 148.666 170.229 148.663 170.229ZM150.56 169.997C150.524 169.997 150.493 169.971 150.488 169.935C150.484 169.895 150.512 169.86 150.551 169.855L151.12 169.785C151.163 169.781 151.195 169.809 151.2 169.848C151.205 169.887 151.176 169.923 151.137 169.928L150.568 169.997C150.565 169.997 150.562 169.997 150.56 169.997ZM152.456 169.766C152.42 169.766 152.39 169.74 152.385 169.703C152.38 169.664 152.408 169.628 152.448 169.623L153.017 169.554C153.059 169.548 153.092 169.577 153.096 169.617C153.101 169.656 153.073 169.692 153.034 169.696L152.465 169.766C152.462 169.766 152.459 169.766 152.456 169.766ZM145.571 169.68C145.555 169.68 145.54 169.675 145.527 169.665C145.373 169.545 145.229 169.41 145.099 169.265C145.073 169.235 145.076 169.19 145.105 169.164C145.135 169.137 145.18 169.14 145.206 169.169C145.33 169.308 145.468 169.437 145.615 169.552C145.646 169.576 145.652 169.621 145.628 169.652C145.613 169.67 145.592 169.68 145.571 169.68ZM154.353 169.535C154.317 169.535 154.286 169.508 154.282 169.472C154.277 169.433 154.305 169.397 154.344 169.392L154.913 169.323C154.956 169.318 154.988 169.346 154.993 169.385C154.998 169.424 154.97 169.46 154.931 169.465L154.362 169.534C154.359 169.535 154.356 169.535 154.353 169.535ZM156.25 169.303C156.214 169.303 156.183 169.277 156.179 169.241C156.174 169.201 156.202 169.166 156.241 169.161L156.81 169.091C156.853 169.085 156.885 169.114 156.89 169.154C156.895 169.193 156.867 169.229 156.827 169.234L156.258 169.303C156.255 169.303 156.253 169.303 156.25 169.303ZM158.146 169.072C158.111 169.072 158.08 169.046 158.075 169.009C158.07 168.97 158.099 168.934 158.138 168.929L158.707 168.86C158.75 168.854 158.782 168.883 158.787 168.922C158.791 168.962 158.763 168.997 158.724 169.002L158.155 169.072C158.152 169.072 158.149 169.072 158.146 169.072ZM160.043 168.841C160.007 168.841 159.977 168.814 159.972 168.778C159.967 168.739 159.995 168.703 160.035 168.698L160.604 168.629C160.646 168.624 160.679 168.652 160.683 168.691C160.688 168.73 160.66 168.766 160.621 168.771L160.052 168.84C160.049 168.841 160.046 168.841 160.043 168.841ZM161.94 168.61C161.904 168.61 161.873 168.583 161.869 168.546C161.864 168.507 161.892 168.472 161.931 168.467L162.5 168.397C162.543 168.391 162.575 168.421 162.58 168.46C162.585 168.499 162.557 168.535 162.518 168.54L161.949 168.609C161.946 168.609 161.943 168.61 161.94 168.61ZM163.837 168.378C163.801 168.378 163.77 168.352 163.766 168.315C163.761 168.276 163.789 168.24 163.828 168.235L164.397 168.166C164.44 168.16 164.472 168.189 164.477 168.228C164.482 168.268 164.454 168.303 164.415 168.308L163.846 168.378C163.842 168.378 163.84 168.378 163.837 168.378ZM165.733 168.147C165.698 168.147 165.667 168.12 165.662 168.084C165.657 168.045 165.686 168.009 165.725 168.004L166.294 167.935C166.336 167.93 166.369 167.958 166.374 167.997C166.378 168.036 166.35 168.072 166.311 168.077L165.742 168.146C165.739 168.147 165.736 168.147 165.733 168.147ZM144.5 168.133C144.47 168.133 144.441 168.113 144.432 168.083C144.388 167.94 144.353 167.792 144.329 167.643L144.308 167.513C144.302 167.474 144.328 167.437 144.368 167.431C144.407 167.424 144.443 167.452 144.45 167.491L144.471 167.621C144.493 167.763 144.526 167.904 144.569 168.04C144.58 168.078 144.559 168.118 144.521 168.13C144.514 168.132 144.507 168.133 144.5 168.133ZM167.63 167.915C167.594 167.915 167.563 167.889 167.559 167.852C167.554 167.813 167.582 167.777 167.621 167.773L168.19 167.703C168.233 167.697 168.266 167.726 168.27 167.766C168.275 167.805 168.247 167.841 168.208 167.845L167.639 167.915C167.636 167.915 167.633 167.915 167.63 167.915ZM169.527 167.684C169.491 167.684 169.46 167.657 169.456 167.621C169.451 167.582 169.479 167.546 169.518 167.541L170.087 167.472C170.13 167.467 170.162 167.495 170.167 167.534C170.172 167.574 170.144 167.609 170.105 167.614L169.536 167.684C169.533 167.684 169.53 167.684 169.527 167.684ZM171.412 167.396C171.383 167.396 171.355 167.378 171.345 167.348C171.331 167.311 171.351 167.27 171.388 167.257C171.562 167.194 171.728 167.109 171.88 167.004C171.913 166.982 171.958 166.99 171.98 167.023C172.003 167.056 171.994 167.1 171.962 167.123C171.799 167.234 171.622 167.324 171.437 167.391C171.428 167.394 171.42 167.396 171.412 167.396ZM144.167 166.253C144.132 166.253 144.102 166.228 144.096 166.193L144.005 165.627C143.999 165.588 144.025 165.551 144.064 165.545C144.105 165.538 144.141 165.565 144.147 165.604L144.237 166.17C144.244 166.209 144.217 166.246 144.178 166.252C144.174 166.253 144.17 166.253 144.167 166.253ZM172.748 166.109C172.739 166.109 172.73 166.107 172.721 166.104C172.684 166.089 172.667 166.047 172.682 166.01C172.751 165.838 172.798 165.658 172.822 165.475C172.827 165.436 172.862 165.408 172.902 165.413C172.941 165.418 172.969 165.454 172.964 165.493C172.938 165.689 172.888 165.881 172.814 166.064C172.803 166.092 172.776 166.109 172.748 166.109ZM143.864 164.366C143.829 164.366 143.799 164.341 143.793 164.306L143.702 163.74C143.696 163.701 143.722 163.664 143.761 163.658C143.801 163.651 143.837 163.679 143.843 163.717L143.934 164.283C143.941 164.322 143.914 164.359 143.875 164.366C143.871 164.366 143.867 164.366 143.864 164.366ZM172.921 164.219C172.882 164.219 172.849 164.187 172.849 164.148C172.849 163.963 172.848 163.772 172.845 163.575C172.845 163.536 172.877 163.503 172.916 163.503C172.955 163.505 172.988 163.534 172.989 163.573C172.991 163.771 172.993 163.962 172.993 164.148C172.993 164.187 172.961 164.219 172.921 164.219ZM143.56 162.48C143.526 162.48 143.495 162.455 143.49 162.42L143.398 161.854C143.392 161.815 143.419 161.778 143.458 161.772C143.499 161.764 143.534 161.792 143.54 161.831L143.631 162.397C143.637 162.436 143.611 162.473 143.572 162.479C143.568 162.48 143.564 162.48 143.56 162.48ZM172.883 162.308C172.845 162.308 172.813 162.278 172.812 162.239C172.804 162.052 172.796 161.861 172.786 161.667C172.784 161.628 172.815 161.594 172.854 161.592C172.895 161.592 172.928 161.621 172.929 161.66C172.939 161.855 172.947 162.046 172.955 162.234C172.956 162.274 172.925 162.307 172.886 162.308C172.885 162.308 172.884 162.308 172.883 162.308ZM143.257 160.593C143.222 160.593 143.192 160.568 143.186 160.533L143.095 159.967C143.089 159.928 143.115 159.891 143.155 159.885C143.194 159.878 143.231 159.905 143.237 159.944L143.328 160.51C143.334 160.549 143.307 160.586 143.268 160.592C143.264 160.593 143.261 160.593 143.257 160.593ZM172.772 160.4C172.735 160.4 172.704 160.372 172.701 160.334C172.686 160.146 172.67 159.956 172.652 159.764C172.649 159.724 172.678 159.69 172.717 159.686C172.758 159.681 172.792 159.712 172.795 159.751C172.813 159.943 172.829 160.134 172.844 160.323C172.847 160.363 172.817 160.397 172.778 160.4C172.776 160.4 172.774 160.4 172.772 160.4ZM142.954 158.707C142.919 158.707 142.889 158.682 142.883 158.647L142.792 158.081C142.786 158.041 142.812 158.005 142.851 157.998C142.892 157.992 142.927 158.019 142.933 158.058L143.024 158.624C143.031 158.663 143.004 158.7 142.965 158.706C142.961 158.706 142.957 158.707 142.954 158.707ZM172.581 158.499C172.546 158.499 172.515 158.472 172.51 158.436C172.487 158.248 172.462 158.059 172.436 157.869C172.43 157.829 172.457 157.793 172.496 157.788C172.538 157.783 172.572 157.81 172.577 157.849C172.604 158.039 172.629 158.229 172.652 158.418C172.657 158.458 172.629 158.494 172.59 158.498C172.587 158.499 172.584 158.499 172.581 158.499ZM143.14 158.105C143.104 158.105 143.073 158.079 143.068 158.043C143.063 158.004 143.091 157.968 143.13 157.963L143.699 157.89C143.744 157.884 143.774 157.913 143.779 157.952C143.784 157.991 143.756 158.027 143.717 158.032L143.149 158.105C143.145 158.105 143.142 158.105 143.14 158.105ZM145.035 157.863C144.999 157.863 144.969 157.836 144.964 157.8C144.959 157.761 144.987 157.725 145.026 157.72L145.594 157.647C145.639 157.642 145.67 157.67 145.675 157.709C145.68 157.749 145.652 157.784 145.613 157.79L145.044 157.862C145.041 157.863 145.038 157.863 145.035 157.863ZM146.93 157.62C146.895 157.62 146.864 157.594 146.859 157.558C146.854 157.518 146.882 157.483 146.921 157.477L147.49 157.405C147.534 157.4 147.565 157.428 147.57 157.467C147.575 157.506 147.547 157.542 147.508 157.547L146.939 157.62C146.936 157.62 146.933 157.62 146.93 157.62ZM148.826 157.378C148.79 157.378 148.759 157.351 148.754 157.315C148.749 157.276 148.777 157.24 148.816 157.235L149.385 157.162C149.429 157.156 149.46 157.185 149.465 157.224C149.47 157.263 149.442 157.299 149.403 157.304L148.835 157.377C148.831 157.378 148.828 157.378 148.826 157.378ZM150.721 157.135C150.685 157.135 150.654 157.109 150.65 157.073C150.645 157.033 150.673 156.998 150.712 156.992L151.28 156.92C151.324 156.914 151.356 156.943 151.36 156.982C151.366 157.021 151.338 157.057 151.299 157.062L150.73 157.135C150.727 157.135 150.724 157.135 150.721 157.135ZM152.616 156.893C152.581 156.893 152.55 156.866 152.545 156.83C152.54 156.791 152.568 156.755 152.607 156.75L153.176 156.677C153.219 156.672 153.251 156.7 153.256 156.739C153.261 156.778 153.233 156.814 153.194 156.819L152.625 156.892C152.622 156.892 152.619 156.893 152.616 156.893ZM154.512 156.65C154.476 156.65 154.445 156.624 154.441 156.588C154.436 156.548 154.463 156.512 154.502 156.507L155.071 156.435C155.114 156.429 155.146 156.458 155.151 156.497C155.156 156.536 155.129 156.572 155.089 156.577L154.521 156.65C154.518 156.65 154.515 156.65 154.512 156.65ZM172.297 156.609C172.263 156.609 172.233 156.585 172.227 156.55C172.193 156.362 172.158 156.175 172.121 155.988C172.114 155.949 172.139 155.911 172.178 155.904C172.217 155.896 172.254 155.921 172.262 155.96C172.299 156.148 172.334 156.337 172.368 156.525C172.375 156.564 172.349 156.601 172.31 156.608C172.306 156.609 172.301 156.609 172.297 156.609ZM156.407 156.408C156.371 156.408 156.34 156.381 156.336 156.345C156.331 156.306 156.359 156.27 156.398 156.265L156.966 156.192C157.012 156.187 157.042 156.215 157.047 156.254C157.052 156.293 157.024 156.329 156.985 156.334L156.416 156.407C156.413 156.407 156.41 156.408 156.407 156.408ZM158.302 156.165C158.267 156.165 158.236 156.139 158.231 156.102C158.226 156.063 158.254 156.027 158.293 156.022L158.862 155.949C158.907 155.944 158.937 155.973 158.942 156.012C158.947 156.051 158.919 156.087 158.88 156.092L158.311 156.164C158.308 156.165 158.305 156.165 158.302 156.165ZM160.198 155.923C160.162 155.923 160.131 155.896 160.126 155.86C160.121 155.821 160.149 155.785 160.188 155.78L160.757 155.707C160.802 155.702 160.832 155.73 160.837 155.769C160.842 155.808 160.814 155.844 160.775 155.849L160.207 155.922C160.203 155.922 160.2 155.923 160.198 155.923ZM162.093 155.68C162.057 155.68 162.027 155.654 162.022 155.617C162.017 155.578 162.045 155.542 162.084 155.537L162.652 155.464C162.697 155.46 162.728 155.487 162.733 155.526C162.738 155.566 162.71 155.602 162.671 155.607L162.102 155.679C162.099 155.68 162.096 155.68 162.093 155.68ZM163.988 155.437C163.953 155.437 163.922 155.411 163.917 155.375C163.912 155.336 163.94 155.3 163.979 155.295L164.548 155.222C164.592 155.216 164.623 155.245 164.628 155.284C164.633 155.323 164.605 155.359 164.566 155.364L163.997 155.437C163.994 155.437 163.991 155.437 163.988 155.437ZM165.884 155.195C165.848 155.195 165.817 155.168 165.812 155.132C165.807 155.093 165.835 155.057 165.874 155.052L166.443 154.979C166.487 154.974 166.518 155.002 166.523 155.041C166.528 155.081 166.5 155.116 166.461 155.122L165.893 155.194C165.889 155.195 165.886 155.195 165.884 155.195ZM167.779 154.952C167.743 154.952 167.712 154.926 167.708 154.89C167.703 154.85 167.731 154.815 167.77 154.81L168.338 154.737C168.382 154.732 168.414 154.76 168.419 154.799C168.424 154.838 168.396 154.874 168.357 154.879L167.788 154.952C167.785 154.952 167.782 154.952 167.779 154.952ZM171.903 154.739C171.871 154.739 171.842 154.718 171.834 154.685C171.814 154.604 171.794 154.523 171.773 154.442L171.579 154.467C171.536 154.472 171.504 154.444 171.499 154.405C171.494 154.365 171.521 154.329 171.56 154.324L171.88 154.284L171.896 154.345C171.922 154.446 171.948 154.548 171.973 154.65C171.982 154.689 171.959 154.728 171.92 154.737C171.915 154.739 171.909 154.739 171.903 154.739ZM169.674 154.71C169.639 154.71 169.608 154.683 169.603 154.647C169.598 154.608 169.626 154.572 169.665 154.567L170.234 154.494C170.277 154.489 170.309 154.517 170.314 154.556C170.319 154.596 170.291 154.631 170.252 154.636L169.683 154.709C169.68 154.71 169.677 154.71 169.674 154.71Z" fill="white"/>
<path d="M148.265 149.933L148.238 149.145C148.297 148.949 148.45 148.796 148.647 148.738C149.385 148.522 151.225 148.072 152.21 148.629L152.46 149.516L148.265 149.933Z" fill="url(#paint18_linear_220_2644)"/>
<path d="M150.521 148.883C150.354 148.948 150.18 148.97 150 148.949C149.783 148.925 149.611 148.755 149.583 148.54L149.271 146.103L150.512 145.944L150.823 148.379C150.851 148.596 150.726 148.805 150.521 148.883Z" fill="url(#paint19_linear_220_2644)"/>
<path d="M160.275 148.396L160.248 147.609C160.306 147.412 160.46 147.259 160.657 147.201C161.395 146.985 163.235 146.535 164.219 147.092L164.469 147.979L160.275 148.396Z" fill="url(#paint20_linear_220_2644)"/>
<path d="M162.531 147.346C162.363 147.411 162.189 147.433 162.01 147.412C161.793 147.388 161.62 147.218 161.593 147.003L161.248 144.309L162.488 144.151L162.832 146.842C162.86 147.059 162.736 147.268 162.531 147.346Z" fill="url(#paint21_linear_220_2644)"/>
<path d="M149.221 146.716L162.501 144.568C162.803 144.519 163.033 144.267 163.047 143.962C163.067 143.535 163.051 142.902 162.872 142.266C162.669 141.544 161.965 141.077 161.215 141.155C158.719 141.414 152.386 142.227 149.072 144.054C148.722 144.247 148.488 144.598 148.444 144.994C148.402 145.372 148.405 145.869 148.585 146.352C148.681 146.609 148.949 146.76 149.221 146.716Z" fill="url(#paint22_linear_220_2644)"/>
<path d="M148.895 146.185C148.808 146.185 148.729 146.126 148.709 146.037C148.704 146.015 148.586 145.497 148.658 144.974C148.717 144.549 148.999 144.178 149.395 144.005C150.116 143.689 151.5 143.132 152.67 142.949C152.775 142.932 152.872 143.004 152.889 143.108C152.905 143.213 152.834 143.31 152.729 143.327C151.559 143.51 150.115 144.107 149.548 144.355C149.269 144.477 149.078 144.728 149.036 145.026C148.974 145.48 149.08 145.946 149.081 145.951C149.105 146.054 149.041 146.156 148.938 146.18C148.924 146.184 148.909 146.185 148.895 146.185Z" fill="#BDD0FB"/>
<path d="M142.039 150.422C146.341 149.815 164.953 147.234 170.451 147.195C170.924 147.191 171.348 147.484 171.508 147.927C172.013 149.333 173.086 152.61 173.436 155.95C173.484 156.404 173.2 156.829 172.764 156.971L160.705 160.891L156.315 161.452L142.812 160.52C142.336 160.487 141.944 160.138 141.86 159.67C141.56 158.006 140.923 154.092 141.052 151.503C141.08 150.953 141.492 150.499 142.039 150.422Z" fill="url(#paint23_linear_220_2644)"/>
<path d="M156.293 160.445L155.707 160.406C155.667 160.403 155.637 160.369 155.64 160.329C155.643 160.29 155.677 160.26 155.717 160.263L156.288 160.302L156.348 160.293C156.391 160.288 156.423 160.316 156.428 160.355C156.433 160.395 156.406 160.43 156.366 160.436L156.293 160.445ZM154.377 160.314C154.376 160.314 154.374 160.314 154.372 160.314L153.8 160.274C153.761 160.272 153.731 160.237 153.734 160.198C153.736 160.158 153.77 160.131 153.81 160.131L154.382 160.171C154.422 160.174 154.451 160.208 154.449 160.247C154.446 160.285 154.415 160.314 154.377 160.314ZM157.684 160.267C157.648 160.267 157.618 160.24 157.613 160.204C157.608 160.165 157.636 160.129 157.675 160.124L158.243 160.051C158.289 160.046 158.319 160.074 158.324 160.113C158.329 160.152 158.301 160.188 158.262 160.193L157.693 160.266C157.69 160.266 157.687 160.267 157.684 160.267ZM152.471 160.182C152.469 160.182 152.468 160.182 152.466 160.182L151.894 160.143C151.855 160.14 151.825 160.106 151.828 160.066C151.83 160.027 151.868 159.999 151.904 160L152.476 160.039C152.515 160.042 152.545 160.076 152.542 160.116C152.54 160.153 152.508 160.182 152.471 160.182ZM150.565 160.051C150.563 160.051 150.562 160.051 150.56 160.051L149.988 160.011C149.949 160.008 149.919 159.974 149.922 159.935C149.924 159.895 149.961 159.867 149.998 159.868L150.57 159.908C150.609 159.91 150.639 159.945 150.636 159.984C150.634 160.022 150.602 160.051 150.565 160.051ZM159.579 160.024C159.544 160.024 159.513 159.997 159.508 159.961C159.503 159.922 159.531 159.886 159.57 159.881L160.139 159.808C160.184 159.804 160.214 159.831 160.219 159.87C160.224 159.91 160.196 159.946 160.157 159.951L159.588 160.023C159.585 160.024 159.582 160.024 159.579 160.024ZM148.659 159.919C148.657 159.919 148.655 159.919 148.654 159.919L148.082 159.879C148.042 159.877 148.013 159.842 148.015 159.803C148.018 159.763 148.054 159.735 148.092 159.736L148.663 159.776C148.703 159.779 148.733 159.813 148.73 159.852C148.727 159.89 148.696 159.919 148.659 159.919ZM146.752 159.787C146.751 159.787 146.749 159.787 146.747 159.787L146.176 159.748C146.136 159.745 146.106 159.711 146.109 159.671C146.112 159.632 146.147 159.603 146.185 159.605L146.757 159.644C146.797 159.647 146.827 159.681 146.824 159.721C146.821 159.759 146.79 159.787 146.752 159.787ZM144.846 159.656C144.844 159.656 144.843 159.656 144.841 159.656L144.269 159.616C144.23 159.613 144.2 159.579 144.203 159.54C144.205 159.5 144.24 159.471 144.279 159.473L144.851 159.513C144.89 159.515 144.92 159.55 144.917 159.589C144.915 159.627 144.884 159.656 144.846 159.656ZM161.433 159.597C161.403 159.597 161.375 159.577 161.365 159.547C161.353 159.51 161.373 159.469 161.411 159.457L161.956 159.28C161.994 159.268 162.034 159.288 162.046 159.326C162.059 159.363 162.038 159.404 162.001 159.416L161.455 159.593C161.448 159.596 161.441 159.597 161.433 159.597ZM142.94 159.524C142.938 159.524 142.936 159.524 142.935 159.524L142.85 159.518L142.841 159.463C142.812 159.306 142.781 159.125 142.746 158.925C142.739 158.886 142.766 158.849 142.805 158.843C142.846 158.836 142.881 158.862 142.888 158.901C142.918 159.08 142.947 159.244 142.973 159.389C142.997 159.402 143.013 159.428 143.011 159.457C143.009 159.495 142.977 159.524 142.94 159.524ZM163.25 159.006C163.22 159.006 163.192 158.987 163.182 158.957C163.17 158.919 163.191 158.878 163.228 158.866L163.773 158.689C163.811 158.677 163.852 158.697 163.864 158.735C163.876 158.773 163.855 158.813 163.818 158.825L163.273 159.003C163.265 159.005 163.258 159.006 163.25 159.006ZM165.068 158.416C165.038 158.416 165.009 158.396 165 158.366C164.987 158.328 165.008 158.288 165.045 158.276L165.591 158.098C165.629 158.086 165.669 158.107 165.681 158.144C165.693 158.182 165.673 158.223 165.635 158.235L165.09 158.412C165.083 158.414 165.075 158.416 165.068 158.416ZM166.885 157.825C166.855 157.825 166.827 157.806 166.817 157.775C166.805 157.738 166.825 157.697 166.863 157.685L167.408 157.508C167.445 157.496 167.486 157.516 167.498 157.554C167.51 157.591 167.49 157.632 167.452 157.644L166.907 157.821C166.9 157.824 166.892 157.825 166.885 157.825ZM142.604 157.664C142.569 157.664 142.539 157.638 142.533 157.603C142.505 157.419 142.477 157.229 142.45 157.034C142.444 156.995 142.472 156.959 142.511 156.954C142.548 156.948 142.586 156.975 142.592 157.014C142.619 157.208 142.647 157.398 142.675 157.581C142.681 157.62 142.654 157.657 142.615 157.663C142.611 157.663 142.607 157.664 142.604 157.664ZM168.702 157.234C168.672 157.234 168.644 157.215 168.634 157.185C168.622 157.147 168.642 157.107 168.68 157.094L169.225 156.917C169.262 156.905 169.303 156.925 169.315 156.963C169.328 157.001 169.307 157.041 169.269 157.053L168.724 157.231C168.717 157.233 168.709 157.234 168.702 157.234ZM170.519 156.644C170.489 156.644 170.461 156.624 170.451 156.594C170.439 156.556 170.46 156.516 170.497 156.504L171.042 156.327C171.08 156.315 171.12 156.335 171.133 156.373C171.145 156.41 171.124 156.451 171.087 156.463L170.542 156.64C170.534 156.642 170.527 156.644 170.519 156.644ZM172.336 156.053C172.306 156.053 172.278 156.034 172.268 156.003C172.26 155.978 172.267 155.952 172.282 155.934C172.264 155.768 172.244 155.603 172.222 155.438C172.217 155.398 172.244 155.362 172.284 155.357C172.321 155.35 172.359 155.38 172.364 155.419C172.388 155.601 172.41 155.783 172.43 155.966L172.437 156.024L172.359 156.049C172.351 156.052 172.344 156.053 172.336 156.053ZM142.348 155.769C142.312 155.769 142.281 155.742 142.277 155.705C142.255 155.516 142.233 155.326 142.213 155.135C142.209 155.095 142.237 155.06 142.277 155.056C142.317 155.051 142.351 155.08 142.355 155.119C142.376 155.31 142.397 155.5 142.419 155.689C142.424 155.728 142.396 155.763 142.356 155.768C142.353 155.769 142.351 155.769 142.348 155.769ZM172.083 154.179C172.049 154.179 172.019 154.154 172.013 154.12C171.978 153.931 171.942 153.743 171.904 153.558C171.896 153.519 171.921 153.482 171.96 153.474C172.001 153.466 172.037 153.491 172.045 153.53C172.082 153.716 172.119 153.904 172.154 154.094C172.161 154.133 172.135 154.17 172.096 154.177C172.092 154.178 172.088 154.179 172.083 154.179ZM142.167 153.865C142.13 153.865 142.098 153.836 142.096 153.799C142.082 153.605 142.071 153.414 142.062 153.224C142.06 153.185 142.091 153.151 142.13 153.149C142.131 153.149 142.133 153.149 142.134 153.149C142.172 153.149 142.203 153.179 142.205 153.218C142.214 153.406 142.225 153.596 142.239 153.789C142.241 153.828 142.212 153.862 142.172 153.865C142.17 153.865 142.169 153.865 142.167 153.865ZM171.682 152.31C171.65 152.31 171.621 152.288 171.613 152.255C171.567 152.066 171.52 151.881 171.473 151.7C171.463 151.662 171.486 151.623 171.524 151.613C171.564 151.603 171.602 151.626 171.611 151.664C171.659 151.846 171.706 152.032 171.752 152.221C171.761 152.26 171.738 152.298 171.699 152.308C171.694 152.309 171.688 152.31 171.682 152.31ZM142.113 151.955C142.112 151.955 142.112 151.955 142.111 151.955C142.071 151.954 142.04 151.921 142.041 151.882C142.044 151.77 142.048 151.66 142.053 151.553C142.057 151.481 142.109 151.424 142.179 151.414L142.319 151.394C142.36 151.388 142.395 151.416 142.4 151.455C142.406 151.494 142.378 151.53 142.339 151.536L142.2 151.556C142.191 151.666 142.187 151.775 142.184 151.885C142.184 151.924 142.152 151.955 142.113 151.955ZM143.655 151.351C143.619 151.351 143.589 151.325 143.584 151.289C143.578 151.25 143.606 151.214 143.645 151.208L144.213 151.13C144.252 151.125 144.288 151.152 144.294 151.191C144.299 151.23 144.272 151.266 144.233 151.272L143.664 151.35C143.661 151.351 143.658 151.351 143.655 151.351ZM145.548 151.09C145.513 151.09 145.482 151.064 145.478 151.028C145.472 150.989 145.5 150.953 145.539 150.947L146.107 150.87C146.151 150.864 146.182 150.892 146.188 150.931C146.193 150.97 146.166 151.006 146.126 151.012L145.558 151.089C145.555 151.09 145.552 151.09 145.548 151.09ZM147.443 150.833C147.407 150.833 147.376 150.807 147.371 150.771C147.366 150.731 147.394 150.695 147.433 150.69L148.001 150.614C148.043 150.608 148.077 150.636 148.082 150.675C148.087 150.714 148.059 150.75 148.02 150.755L147.452 150.832C147.449 150.832 147.446 150.833 147.443 150.833ZM149.337 150.579C149.302 150.579 149.271 150.553 149.266 150.517C149.261 150.478 149.288 150.442 149.328 150.437L149.896 150.361C149.935 150.356 149.971 150.384 149.976 150.423C149.982 150.462 149.954 150.498 149.915 150.503L149.346 150.579C149.343 150.579 149.34 150.579 149.337 150.579ZM171.184 150.465C171.153 150.465 171.124 150.444 171.115 150.413C171.058 150.223 171.003 150.04 170.948 149.865C170.937 149.828 170.958 149.787 170.995 149.776C171.033 149.764 171.073 149.785 171.085 149.823C171.14 149.998 171.196 150.181 171.252 150.372C171.263 150.41 171.242 150.45 171.204 150.461C171.197 150.464 171.19 150.465 171.184 150.465ZM151.232 150.33C151.197 150.33 151.166 150.303 151.161 150.267C151.156 150.228 151.184 150.192 151.223 150.187L151.792 150.113C151.832 150.107 151.867 150.136 151.872 150.175C151.877 150.214 151.849 150.25 151.81 150.255L151.241 150.329C151.238 150.33 151.235 150.33 151.232 150.33ZM153.128 150.085C153.092 150.085 153.061 150.059 153.057 150.022C153.052 149.983 153.079 149.947 153.119 149.942L153.688 149.87C153.729 149.864 153.763 149.893 153.768 149.932C153.773 149.971 153.745 150.007 153.705 150.012L153.137 150.084C153.134 150.085 153.131 150.085 153.128 150.085ZM155.024 149.845C154.988 149.845 154.957 149.819 154.953 149.782C154.948 149.743 154.976 149.707 155.015 149.702L155.584 149.632C155.624 149.626 155.659 149.655 155.664 149.694C155.668 149.733 155.641 149.769 155.601 149.774L155.033 149.845C155.03 149.845 155.027 149.845 155.024 149.845ZM156.92 149.611C156.884 149.611 156.853 149.584 156.849 149.548C156.844 149.509 156.872 149.473 156.911 149.468L157.48 149.399C157.52 149.394 157.555 149.423 157.56 149.462C157.565 149.501 157.537 149.537 157.498 149.542L156.929 149.61C156.926 149.611 156.923 149.611 156.92 149.611ZM158.817 149.384C158.781 149.384 158.75 149.357 158.746 149.321C158.741 149.281 158.77 149.246 158.809 149.241L159.378 149.174C159.419 149.169 159.453 149.198 159.458 149.237C159.463 149.276 159.434 149.312 159.395 149.317L158.826 149.383C158.823 149.384 158.82 149.384 158.817 149.384ZM160.716 149.165C160.68 149.165 160.649 149.138 160.645 149.101C160.64 149.062 160.668 149.026 160.708 149.022L161.277 148.958C161.318 148.954 161.352 148.982 161.357 149.021C161.361 149.06 161.333 149.096 161.293 149.1L160.724 149.164C160.721 149.165 160.718 149.165 160.716 149.165ZM162.615 148.955C162.579 148.955 162.548 148.928 162.544 148.891C162.54 148.852 162.568 148.817 162.607 148.813L163.177 148.752C163.219 148.75 163.252 148.777 163.256 148.816C163.26 148.855 163.232 148.891 163.193 148.895L162.623 148.955C162.62 148.955 162.617 148.955 162.615 148.955ZM164.516 148.76C164.479 148.76 164.448 148.732 164.445 148.695C164.441 148.656 164.47 148.62 164.509 148.617C164.703 148.597 164.893 148.579 165.08 148.561C165.117 148.558 165.154 148.586 165.158 148.626C165.162 148.665 165.133 148.7 165.093 148.704C164.907 148.722 164.717 148.74 164.523 148.759C164.521 148.759 164.518 148.76 164.516 148.76ZM170.597 148.645C170.568 148.645 170.54 148.626 170.53 148.596C170.498 148.504 170.467 148.418 170.439 148.34C170.373 148.341 170.304 148.342 170.233 148.343C170.2 148.345 170.161 148.312 170.161 148.273C170.16 148.233 170.191 148.2 170.231 148.2C170.309 148.198 170.385 148.197 170.459 148.197C170.507 148.197 170.549 148.224 170.564 148.265C170.595 148.351 170.629 148.446 170.665 148.549C170.678 148.587 170.658 148.628 170.621 148.641C170.613 148.643 170.605 148.645 170.597 148.645ZM166.418 148.582C166.382 148.582 166.35 148.554 166.347 148.517C166.344 148.477 166.373 148.442 166.412 148.439C166.608 148.422 166.798 148.406 166.984 148.391C167.028 148.385 167.058 148.417 167.061 148.456C167.064 148.495 167.035 148.53 166.996 148.533C166.81 148.549 166.62 148.565 166.425 148.582C166.422 148.582 166.42 148.582 166.418 148.582ZM168.324 148.433C168.286 148.433 168.255 148.404 168.252 148.367C168.25 148.327 168.279 148.293 168.319 148.29C168.518 148.277 168.709 148.265 168.892 148.254C168.939 148.25 168.965 148.283 168.967 148.322C168.97 148.361 168.94 148.395 168.9 148.397C168.717 148.408 168.527 148.42 168.329 148.433C168.327 148.433 168.325 148.433 168.324 148.433Z" fill="white"/>
<path d="M160.527 162.786L156.681 163.279C156.177 163.343 155.705 163.022 155.581 162.532L154.663 158.888C154.517 158.308 154.913 157.73 155.51 157.654L160.13 157.062C160.714 156.988 161.237 157.428 161.259 158.014L161.403 161.757C161.422 162.274 161.042 162.72 160.527 162.786Z" fill="url(#paint24_linear_220_2644)"/>
<path d="M159.967 162.166L157.039 162.541C156.656 162.59 156.296 162.346 156.202 161.973L155.504 159.199C155.392 158.758 155.694 158.318 156.148 158.26L159.664 157.81C160.109 157.753 160.507 158.088 160.524 158.534L160.633 161.383C160.648 161.776 160.359 162.116 159.967 162.166Z" fill="url(#paint25_linear_220_2644)"/>
<path d="M157.68 132.676C158.587 136.424 158.611 140.091 158.473 141.426C158.421 141.929 158.016 142.322 157.511 142.358C156.938 142.398 156.157 142.451 155.46 142.491C154.693 142.535 153.842 142.051 153.273 141.646C152.983 141.439 152.607 141.761 152.769 142.078C153.049 142.625 153.534 143.056 154.016 143.422C154.306 143.642 155.27 144.034 155.202 144.467C155.181 144.604 155.099 144.723 155.01 144.83C154.475 145.472 153.664 145.815 152.865 146.061C152.765 146.092 152.659 146.125 152.588 146.202C152.568 146.719 154.159 147.294 154.569 147.43C155.184 147.634 155.837 147.72 156.482 147.652C158.083 147.484 159.561 146.379 160.423 145.047C162.727 141.487 163.919 137.187 164.354 133.898C162.21 131.755 158.974 132.299 157.68 132.676Z" fill="url(#paint26_linear_220_2644)"/>
<path d="M164.355 134.237C166.065 121.323 156.113 111.393 156.113 111.393L150.191 118.296C154.687 123.899 156.824 129.034 157.8 133.067C159.095 132.69 162.212 132.094 164.355 134.237Z" fill="url(#paint27_linear_220_2644)"/>
<path d="M157.658 133.003C157.493 133.003 157.343 132.891 157.302 132.723C156.099 127.752 153.563 122.83 149.764 118.095C149.638 117.937 149.663 117.706 149.821 117.58C149.978 117.453 150.21 117.478 150.336 117.636C154.203 122.456 156.786 127.474 158.015 132.551C158.063 132.747 157.942 132.946 157.745 132.993C157.716 133 157.687 133.003 157.658 133.003Z" fill="url(#paint28_linear_220_2644)"/>
<path d="M77.4648 209.562C77.4658 209.499 77.4616 209.435 77.4454 209.371C76.4932 205.595 71.7666 203.244 71.7666 203.244L69.8936 203.391C68.8167 206.718 68.9551 208.759 69.128 209.668C69.1328 209.694 69.1406 209.718 69.1474 209.742C70.6924 209.881 73.8724 209.971 77.4648 209.562Z" fill="url(#paint29_linear_220_2644)"/>
<path d="M69.1465 209.742C69.2299 210.046 69.454 210.282 69.7409 210.343C71.9387 210.805 75.4318 210.433 76.8985 210.241C77.2221 210.199 77.4586 209.9 77.464 209.562C73.8716 209.971 70.6915 209.881 69.1465 209.742Z" fill="url(#paint30_linear_220_2644)"/>
<path d="M69.1406 200.601L69.9339 204.42C69.992 204.699 70.207 204.909 70.4674 204.933C70.7862 204.963 71.24 204.981 71.6964 204.914C72.1056 204.854 72.3906 204.438 72.3181 203.992L71.7667 200.601L69.1406 200.601Z" fill="url(#paint31_linear_220_2644)"/>
<path d="M85.5749 209.694C83.5063 209.636 82.4364 209.393 81.8833 209.167C81.882 209.372 81.8831 209.582 81.8899 209.798C81.897 210.03 82.0685 210.215 82.2796 210.214L93.6373 210.14C93.9998 210.138 94.2115 209.718 94.0545 209.385C92.5653 209.508 88.7725 209.784 85.5749 209.694Z" fill="url(#paint32_linear_220_2644)"/>
<path d="M94.056 209.385C94.0423 209.356 94.0305 209.327 94.011 209.3C93.008 207.898 90.4533 205.107 85.4052 203.897L82.9835 203.82C82.9835 203.82 81.9051 205.695 81.8848 209.167C82.4379 209.393 83.5078 209.636 85.5763 209.694C88.774 209.784 92.5668 209.508 94.056 209.385Z" fill="url(#paint33_linear_220_2644)"/>
<path d="M82.4258 200.263C82.464 200.441 82.9679 203.159 83.163 204.212C83.2094 204.463 83.4045 204.646 83.6366 204.659C84.0512 204.682 84.72 204.685 85.2951 204.529C85.6054 204.445 85.8138 204.128 85.7917 203.777L85.5208 199.479L82.4258 200.263Z" fill="url(#paint34_linear_220_2644)"/>
<path d="M80.591 150.092C80.591 150.092 83.9223 172.983 86.3264 200.224C86.3712 200.731 85.9669 201.173 85.4685 201.278C84.7341 201.432 83.6546 201.616 82.7608 201.591C82.2837 201.578 81.8849 201.224 81.8046 200.753C80.9857 195.95 75.1415 170.174 73.6077 164.501C73.6077 164.501 71.8459 188.599 72.409 201.101C72.423 201.412 72.1954 201.682 71.8863 201.717C71.4173 201.772 70.6671 201.813 69.7124 201.711C69.35 201.673 69.0577 201.399 69.0059 201.038C68.4225 196.973 65.0648 172.778 65.2075 155.349C65.2156 154.366 66.3608 146.29 66.3608 146.29L80.591 150.092Z" fill="url(#paint35_linear_220_2644)"/>
<path d="M65.8611 151.411C65.5186 151.29 65.2798 150.979 65.2425 150.618C64.7995 146.32 62.6545 119.671 76.1962 108.709C76.1962 108.709 76.9727 106.677 83.356 111.671C89.7392 116.666 86.3216 121.901 84.7934 129.122C82.9441 137.859 79.6995 145.001 81.1351 150.378C81.2341 150.749 81.039 151.139 80.6787 151.272C75.7201 153.099 70.7808 153.16 65.8611 151.411Z" fill="url(#paint36_linear_220_2644)"/>
<path d="M81.478 100.724C81.4737 101.103 76.0664 108.784 76.0664 108.784C76.0664 108.784 77.037 110.695 81.6705 112.247L85.6702 104.024L81.478 100.724Z" fill="url(#paint37_linear_220_2644)"/>
<path d="M85.7363 96.323C85.7363 96.323 87.6603 100.743 87.7895 103.063C87.9187 105.382 88.4186 106.888 85.7363 107.355C83.054 107.822 80.7943 106.486 79.5702 104.175C79.5702 104.175 77.6522 100.614 78.0824 99.1562C78.5127 97.6979 85.7363 96.323 85.7363 96.323Z" fill="url(#paint38_linear_220_2644)"/>
<path d="M80.4857 102.514L80.6383 102.446C80.8327 102.361 80.9159 102.129 80.8183 101.941C80.4401 101.21 79.7026 99.5351 80.6552 99.1444C81.8828 98.6409 86.7456 97.6493 87.7948 95.9238C88.8032 94.2655 87.9097 92.1248 86.567 91.516C86.4772 91.4752 86.3712 91.5076 86.3251 91.5948L86.2132 91.8065C86.1366 91.9515 85.9225 91.9295 85.8769 91.772C85.8332 91.6208 85.6321 91.5915 85.5487 91.7249C85.2262 92.2411 84.3555 93.0781 82.0272 93.5077C78.7181 94.1185 76.5303 95.4576 76.4758 97.7443C76.4724 97.8895 76.3179 97.9703 76.1937 97.8947C75.9494 97.7458 75.5584 97.6759 75.0359 98.1153C74.1271 98.8795 74.499 100.862 76.4912 102.492C76.5858 102.57 76.5851 102.717 76.4826 102.784C76.1214 103.019 75.583 103.579 76.978 104.324C78.421 105.096 79.4985 105.032 79.9134 104.964C80.0166 104.947 80.0831 104.847 80.0606 104.745L79.6178 102.735C79.5927 102.621 79.6793 102.514 79.7958 102.514L80.4857 102.514Z" fill="url(#paint39_linear_220_2644)"/>
<path d="M80.5695 102.938C80.5695 102.938 79.8354 100.114 78.5696 100.906C77.3038 101.698 79.2265 104.069 80.2441 104.175L80.5695 102.938Z" fill="url(#paint40_linear_220_2644)"/>
<path d="M85.4102 113.989L85.783 124.002C86.8419 124.366 87.85 124.65 88.81 124.861C89.4106 122.928 90.7327 120.555 91.8154 118.791C87.8375 117.385 85.4102 113.989 85.4102 113.989Z" fill="url(#paint41_linear_220_2644)"/>
<path d="M105.271 113.819C99.8144 119.71 95.3977 120.057 91.816 118.791C90.7333 120.555 89.411 122.928 88.8105 124.861C103.383 128.074 106.814 114.678 106.814 114.678L105.271 113.819Z" fill="url(#paint42_linear_220_2644)"/>
<path d="M106.377 113.193C106.377 113.193 107.006 112.518 108.169 112.73C109.332 112.942 110.368 113.346 111.093 112.73C111.818 112.114 112.072 112.941 112.072 112.941L109.902 114.591L106.377 113.193Z" fill="url(#paint43_linear_220_2644)"/>
<path d="M105.078 114.347C105.078 114.347 105.509 112.546 106.807 112.793C108.105 113.04 111.051 114.642 111.811 114.347C112.57 114.052 113.541 113.345 114.039 113.595L113.162 114.686C113.162 114.686 115.418 113.385 115.806 114.184L112.052 116.297C112.052 116.297 106.561 115.747 105.078 114.347Z" fill="url(#paint44_linear_220_2644)"/>
<path d="M79.3516 127.094C79.3516 127.094 89.6106 135.686 100.689 131.937C101.376 131.704 102.127 131.755 102.769 132.093L105.953 133.776C107.29 134.481 108.946 134.018 109.721 132.721C110.164 131.98 110.541 131.135 110.616 130.325L104.385 127.802L104.844 127.038C104.844 127.038 101.801 126.78 101.005 128.961C101.005 128.961 95.2096 131.372 85.436 120.621C85.436 120.621 81.0009 124.392 79.3516 127.094Z" fill="url(#paint45_linear_220_2644)"/>
<path d="M78.8003 127.005C78.7665 127.005 78.7322 126.995 78.7022 126.975C74.3825 124.056 72.3504 119.345 72.3303 119.298C72.2926 119.208 72.3342 119.106 72.4234 119.068C72.513 119.03 72.6157 119.071 72.6537 119.161C72.6733 119.207 74.6677 123.825 78.8987 126.684C78.9791 126.738 79.0002 126.847 78.9458 126.928C78.9121 126.978 78.8567 127.005 78.8003 127.005Z" fill="url(#paint46_linear_220_2644)"/>
<path d="M85.234 120.476C85.1764 120.476 85.1198 120.447 85.0862 120.395C85.0732 120.375 83.7535 118.32 81.24 113.82C80.4671 112.436 79.4513 111.559 78.2208 111.215C76.1831 110.645 74.2192 111.738 74.1999 111.749C74.1153 111.795 74.0084 111.767 73.9605 111.683C73.9126 111.599 73.9419 111.492 74.0263 111.444C74.111 111.396 76.1309 110.265 78.3122 110.876C79.6375 111.246 80.7258 112.178 81.5467 113.648C84.0538 118.138 85.3685 120.185 85.3816 120.205C85.4341 120.286 85.4105 120.395 85.3291 120.447C85.2995 120.467 85.2666 120.476 85.234 120.476Z" fill="url(#paint47_linear_220_2644)"/>
<defs>
<linearGradient id="paint0_linear_220_2644" x1="214.89" y1="227.3" x2="92.7885" y2="95.5078" gradientUnits="userSpaceOnUse">
<stop stop-color="#DAE3FE"/>
<stop offset="1" stop-color="#E9EFFD"/>
</linearGradient>
<linearGradient id="paint1_linear_220_2644" x1="120.772" y1="61.5718" x2="72.0039" y2="61.5718" gradientUnits="userSpaceOnUse">
<stop stop-color="#2B3582"/>
<stop offset="1" stop-color="#150E42"/>
</linearGradient>
<linearGradient id="paint2_linear_220_2644" x1="135.368" y1="61.2863" x2="86.5996" y2="61.2863" gradientUnits="userSpaceOnUse">
<stop stop-color="#2B3582"/>
<stop offset="1" stop-color="#150E42"/>
</linearGradient>
<linearGradient id="paint3_linear_220_2644" x1="126.604" y1="118.503" x2="106.021" y2="133.663" gradientUnits="userSpaceOnUse">
<stop stop-color="#FEBBBA"/>
<stop offset="1" stop-color="#FF928E"/>
</linearGradient>
<linearGradient id="paint4_linear_220_2644" x1="147.568" y1="78.9737" x2="120.865" y2="139.473" gradientUnits="userSpaceOnUse">
<stop stop-color="#FF928E"/>
<stop offset="1" stop-color="#FE7062"/>
</linearGradient>
<linearGradient id="paint5_linear_220_2644" x1="165.753" y1="86.9998" x2="139.05" y2="147.499" gradientUnits="userSpaceOnUse">
<stop stop-color="#FF928E"/>
<stop offset="1" stop-color="#FE7062"/>
</linearGradient>
<linearGradient id="paint6_linear_220_2644" x1="143.355" y1="109.628" x2="140.469" y2="100.972" gradientUnits="userSpaceOnUse">
<stop stop-color="#FEBBBA"/>
<stop offset="1" stop-color="#FF928E"/>
</linearGradient>
<linearGradient id="paint7_linear_220_2644" x1="136.617" y1="99.005" x2="146.988" y2="103.514" gradientUnits="userSpaceOnUse">
<stop stop-color="#FEBBBA"/>
<stop offset="1" stop-color="#FF928E"/>
</linearGradient>
<linearGradient id="paint8_linear_220_2644" x1="144.115" y1="105.219" x2="135.623" y2="96.1988" gradientUnits="userSpaceOnUse">
<stop stop-color="#09005D"/>
<stop offset="1" stop-color="#1A0F91"/>
</linearGradient>
<linearGradient id="paint9_linear_220_2644" x1="135.971" y1="100.491" x2="146.342" y2="105.001" gradientUnits="userSpaceOnUse">
<stop stop-color="#FEBBBA"/>
<stop offset="1" stop-color="#FF928E"/>
</linearGradient>
<linearGradient id="paint10_linear_220_2644" x1="156.309" y1="209.941" x2="143.42" y2="209.941" gradientUnits="userSpaceOnUse">
<stop stop-color="#09005D"/>
<stop offset="1" stop-color="#1A0F91"/>
</linearGradient>
<linearGradient id="paint11_linear_220_2644" x1="187.418" y1="197.883" x2="140.749" y2="211.185" gradientUnits="userSpaceOnUse">
<stop stop-color="#4F52FF"/>
<stop offset="1" stop-color="#4042E2"/>
</linearGradient>
<linearGradient id="paint12_linear_220_2644" x1="155.119" y1="203.889" x2="151.488" y2="203.889" gradientUnits="userSpaceOnUse">
<stop stop-color="#FEBBBA"/>
<stop offset="1" stop-color="#FF928E"/>
</linearGradient>
<linearGradient id="paint13_linear_220_2644" x1="182.004" y1="209.663" x2="177.064" y2="209.663" gradientUnits="userSpaceOnUse">
<stop stop-color="#09005D"/>
<stop offset="1" stop-color="#1A0F91"/>
</linearGradient>
<linearGradient id="paint14_linear_220_2644" x1="161.402" y1="195.179" x2="190.486" y2="214.117" gradientUnits="userSpaceOnUse">
<stop stop-color="#4F52FF"/>
<stop offset="1" stop-color="#4042E2"/>
</linearGradient>
<linearGradient id="paint15_linear_220_2644" x1="178.2" y1="200.862" x2="173.861" y2="200.862" gradientUnits="userSpaceOnUse">
<stop stop-color="#FEBBBA"/>
<stop offset="1" stop-color="#FF928E"/>
</linearGradient>
<linearGradient id="paint16_linear_220_2644" x1="158.754" y1="139.238" x2="163.35" y2="201.744" gradientUnits="userSpaceOnUse">
<stop stop-color="#09005D"/>
<stop offset="1" stop-color="#1A0F91"/>
</linearGradient>
<linearGradient id="paint17_linear_220_2644" x1="157.914" y1="174.761" x2="157.914" y2="161.514" gradientUnits="userSpaceOnUse">
<stop stop-color="#4F52FF"/>
<stop offset="1" stop-color="#4042E2"/>
</linearGradient>
<linearGradient id="paint18_linear_220_2644" x1="327.928" y1="-215.565" x2="323.016" y2="-205.471" gradientUnits="userSpaceOnUse">
<stop stop-color="#4F52FF"/>
<stop offset="1" stop-color="#4042E2"/>
</linearGradient>
<linearGradient id="paint19_linear_220_2644" x1="326.906" y1="-216.073" x2="321.994" y2="-205.979" gradientUnits="userSpaceOnUse">
<stop stop-color="#4F52FF"/>
<stop offset="1" stop-color="#4042E2"/>
</linearGradient>
<linearGradient id="paint20_linear_220_2644" x1="337.033" y1="-211.133" x2="332.121" y2="-201.039" gradientUnits="userSpaceOnUse">
<stop stop-color="#4F52FF"/>
<stop offset="1" stop-color="#4042E2"/>
</linearGradient>
<linearGradient id="paint21_linear_220_2644" x1="335.946" y1="-211.672" x2="331.034" y2="-201.578" gradientUnits="userSpaceOnUse">
<stop stop-color="#4F52FF"/>
<stop offset="1" stop-color="#4042E2"/>
</linearGradient>
<linearGradient id="paint22_linear_220_2644" x1="330.377" y1="-214.374" x2="325.465" y2="-204.28" gradientUnits="userSpaceOnUse">
<stop stop-color="#4F52FF"/>
<stop offset="1" stop-color="#4042E2"/>
</linearGradient>
<linearGradient id="paint23_linear_220_2644" x1="157.033" y1="144.27" x2="157.889" y2="185.826" gradientUnits="userSpaceOnUse">
<stop stop-color="#4F52FF"/>
<stop offset="1" stop-color="#4042E2"/>
</linearGradient>
<linearGradient id="paint24_linear_220_2644" x1="189.262" y1="121.165" x2="167.566" y2="148.285" gradientUnits="userSpaceOnUse">
<stop stop-color="#09005D"/>
<stop offset="1" stop-color="#1A0F91"/>
</linearGradient>
<linearGradient id="paint25_linear_220_2644" x1="180.507" y1="124.607" x2="161.105" y2="155.378" gradientUnits="userSpaceOnUse">
<stop stop-color="#4F52FF"/>
<stop offset="1" stop-color="#4042E2"/>
</linearGradient>
<linearGradient id="paint26_linear_220_2644" x1="171.785" y1="94.3908" x2="155.852" y2="147.503" gradientUnits="userSpaceOnUse">
<stop stop-color="#FEBBBA"/>
<stop offset="1" stop-color="#FF928E"/>
</linearGradient>
<linearGradient id="paint27_linear_220_2644" x1="173.162" y1="90.2696" x2="146.458" y2="150.769" gradientUnits="userSpaceOnUse">
<stop stop-color="#FF928E"/>
<stop offset="1" stop-color="#FE7062"/>
</linearGradient>
<linearGradient id="paint28_linear_220_2644" x1="200.043" y1="70.2749" x2="152.895" y2="126.393" gradientUnits="userSpaceOnUse">
<stop stop-color="#FF928E"/>
<stop offset="1" stop-color="#FE7062"/>
</linearGradient>
<linearGradient id="paint29_linear_220_2644" x1="69.0098" y1="206.551" x2="77.465" y2="206.551" gradientUnits="userSpaceOnUse">
<stop stop-color="#09005D"/>
<stop offset="1" stop-color="#1A0F91"/>
</linearGradient>
<linearGradient id="paint30_linear_220_2644" x1="90.1761" y1="196.576" x2="59.4157" y2="220.73" gradientUnits="userSpaceOnUse">
<stop stop-color="#4F52FF"/>
<stop offset="1" stop-color="#4042E2"/>
</linearGradient>
<linearGradient id="paint31_linear_220_2644" x1="71.3612" y1="196.925" x2="69.7461" y2="211.021" gradientUnits="userSpaceOnUse">
<stop stop-color="#FEBBBA"/>
<stop offset="1" stop-color="#FF928E"/>
</linearGradient>
<linearGradient id="paint32_linear_220_2644" x1="95.6398" y1="203.526" x2="64.8797" y2="227.679" gradientUnits="userSpaceOnUse">
<stop stop-color="#4F52FF"/>
<stop offset="1" stop-color="#4042E2"/>
</linearGradient>
<linearGradient id="paint33_linear_220_2644" x1="81.8848" y1="206.766" x2="94.056" y2="206.766" gradientUnits="userSpaceOnUse">
<stop stop-color="#09005D"/>
<stop offset="1" stop-color="#1A0F91"/>
</linearGradient>
<linearGradient id="paint34_linear_220_2644" x1="84.296" y1="198.414" x2="83.5708" y2="212.583" gradientUnits="userSpaceOnUse">
<stop stop-color="#FEBBBA"/>
<stop offset="1" stop-color="#FF928E"/>
</linearGradient>
<linearGradient id="paint35_linear_220_2644" x1="63.603" y1="217.376" x2="83.8265" y2="147.513" gradientUnits="userSpaceOnUse">
<stop stop-color="#003E27"/>
<stop offset="1" stop-color="#1A0F91"/>
</linearGradient>
<linearGradient id="paint36_linear_220_2644" x1="164.16" y1="-8.06373" x2="126.767" y2="51.7226" gradientUnits="userSpaceOnUse">
<stop stop-color="#FF928E"/>
<stop offset="1" stop-color="#FE7062"/>
</linearGradient>
<linearGradient id="paint37_linear_220_2644" x1="77.8041" y1="114.771" x2="81.5552" y2="104.528" gradientUnits="userSpaceOnUse">
<stop stop-color="#FEBBBA"/>
<stop offset="1" stop-color="#FF928E"/>
</linearGradient>
<linearGradient id="paint38_linear_220_2644" x1="85.4955" y1="107.363" x2="80.3496" y2="94.7071" gradientUnits="userSpaceOnUse">
<stop stop-color="#FEBBBA"/>
<stop offset="1" stop-color="#FF928E"/>
</linearGradient>
<linearGradient id="paint39_linear_220_2644" x1="102.52" y1="29.5686" x2="87.5454" y2="77.3012" gradientUnits="userSpaceOnUse">
<stop stop-color="#09005D"/>
<stop offset="1" stop-color="#1A0F91"/>
</linearGradient>
<linearGradient id="paint40_linear_220_2644" x1="81.9666" y1="108.798" x2="76.8207" y2="96.1417" gradientUnits="userSpaceOnUse">
<stop stop-color="#FEBBBA"/>
<stop offset="1" stop-color="#FF928E"/>
</linearGradient>
<linearGradient id="paint41_linear_220_2644" x1="77.1482" y1="131.047" x2="93.0031" y2="112.55" gradientUnits="userSpaceOnUse">
<stop stop-color="#FF928E"/>
<stop offset="1" stop-color="#FE7062"/>
</linearGradient>
<linearGradient id="paint42_linear_220_2644" x1="112.475" y1="112.977" x2="88.8787" y2="124.715" gradientUnits="userSpaceOnUse">
<stop stop-color="#FEBBBA"/>
<stop offset="1" stop-color="#FF928E"/>
</linearGradient>
<linearGradient id="paint43_linear_220_2644" x1="112.129" y1="110.033" x2="104.058" y2="118.463" gradientUnits="userSpaceOnUse">
<stop stop-color="#FEBBBA"/>
<stop offset="1" stop-color="#FF928E"/>
</linearGradient>
<linearGradient id="paint44_linear_220_2644" x1="112.586" y1="112.838" x2="88.9894" y2="124.576" gradientUnits="userSpaceOnUse">
<stop stop-color="#FEBBBA"/>
<stop offset="1" stop-color="#FF928E"/>
</linearGradient>
<linearGradient id="paint45_linear_220_2644" x1="107.711" y1="135.358" x2="75.1667" y2="118.669" gradientUnits="userSpaceOnUse">
<stop stop-color="#FEBBBA"/>
<stop offset="1" stop-color="#FF928E"/>
</linearGradient>
<linearGradient id="paint46_linear_220_2644" x1="162.887" y1="19.7742" x2="10.5962" y2="200.02" gradientUnits="userSpaceOnUse">
<stop stop-color="#E1473D"/>
<stop offset="1" stop-color="#E9605A"/>
</linearGradient>
<linearGradient id="paint47_linear_220_2644" x1="161.746" y1="18.8104" x2="9.45456" y2="199.056" gradientUnits="userSpaceOnUse">
<stop stop-color="#E1473D"/>
<stop offset="1" stop-color="#E9605A"/>
</linearGradient>
</defs>
</svg>
