<svg width="150" height="150" viewBox="0 0 150 150" fill="none" xmlns="http://www.w3.org/2000/svg">
<path d="M41.1123 96.7625C32.2685 102.025 9.08101 112.775 23.206 126.231C30.0998 132.8 37.781 137.5 47.4373 137.5H102.55C112.212 137.5 119.894 132.8 126.787 126.231C140.912 112.775 117.725 102.025 108.881 96.7625C98.6172 90.6991 86.9145 87.5006 74.9935 87.5006C63.0725 87.5006 51.3761 90.6991 41.1123 96.7625ZM103.125 40.625C103.125 48.0842 100.162 55.2379 94.8871 60.5124C89.6127 65.7868 82.459 68.75 74.9998 68.75C67.5405 68.75 60.3868 65.7868 55.1124 60.5124C49.8379 55.2379 46.8748 48.0842 46.8748 40.625C46.8748 33.1658 49.8379 26.0121 55.1124 20.7376C60.3868 15.4632 67.5405 12.5 74.9998 12.5C82.459 12.5 89.6127 15.4632 94.8871 20.7376C100.162 26.0121 103.125 33.1658 103.125 40.625Z" stroke="black" stroke-width="9.375" stroke-linecap="round" stroke-linejoin="round"/>
</svg>
